G75*
%MOIN*%
%OFA0B0*%
%FSLAX25Y25*%
%IPPOS*%
%LPD*%
%AMOC8*
5,1,8,0,0,1.08239X$1,22.5*
%
%ADD10C,0.00000*%
%ADD11C,0.00300*%
%ADD12C,0.00500*%
D10*
X0027000Y0009000D02*
X0027000Y0219000D01*
X0281000Y0219000D01*
X0287000Y0213000D01*
X0287000Y0168000D01*
X0297000Y0158000D01*
X0297000Y0029000D01*
X0287000Y0019000D01*
X0287000Y0009000D01*
X0027000Y0009000D01*
X0075701Y0019000D02*
X0075703Y0019158D01*
X0075709Y0019316D01*
X0075719Y0019474D01*
X0075733Y0019632D01*
X0075751Y0019789D01*
X0075772Y0019946D01*
X0075798Y0020102D01*
X0075828Y0020258D01*
X0075861Y0020413D01*
X0075899Y0020566D01*
X0075940Y0020719D01*
X0075985Y0020871D01*
X0076034Y0021022D01*
X0076087Y0021171D01*
X0076143Y0021319D01*
X0076203Y0021465D01*
X0076267Y0021610D01*
X0076335Y0021753D01*
X0076406Y0021895D01*
X0076480Y0022035D01*
X0076558Y0022172D01*
X0076640Y0022308D01*
X0076724Y0022442D01*
X0076813Y0022573D01*
X0076904Y0022702D01*
X0076999Y0022829D01*
X0077096Y0022954D01*
X0077197Y0023076D01*
X0077301Y0023195D01*
X0077408Y0023312D01*
X0077518Y0023426D01*
X0077631Y0023537D01*
X0077746Y0023646D01*
X0077864Y0023751D01*
X0077985Y0023853D01*
X0078108Y0023953D01*
X0078234Y0024049D01*
X0078362Y0024142D01*
X0078492Y0024232D01*
X0078625Y0024318D01*
X0078760Y0024402D01*
X0078896Y0024481D01*
X0079035Y0024558D01*
X0079176Y0024630D01*
X0079318Y0024700D01*
X0079462Y0024765D01*
X0079608Y0024827D01*
X0079755Y0024885D01*
X0079904Y0024940D01*
X0080054Y0024991D01*
X0080205Y0025038D01*
X0080357Y0025081D01*
X0080510Y0025120D01*
X0080665Y0025156D01*
X0080820Y0025187D01*
X0080976Y0025215D01*
X0081132Y0025239D01*
X0081289Y0025259D01*
X0081447Y0025275D01*
X0081604Y0025287D01*
X0081763Y0025295D01*
X0081921Y0025299D01*
X0082079Y0025299D01*
X0082237Y0025295D01*
X0082396Y0025287D01*
X0082553Y0025275D01*
X0082711Y0025259D01*
X0082868Y0025239D01*
X0083024Y0025215D01*
X0083180Y0025187D01*
X0083335Y0025156D01*
X0083490Y0025120D01*
X0083643Y0025081D01*
X0083795Y0025038D01*
X0083946Y0024991D01*
X0084096Y0024940D01*
X0084245Y0024885D01*
X0084392Y0024827D01*
X0084538Y0024765D01*
X0084682Y0024700D01*
X0084824Y0024630D01*
X0084965Y0024558D01*
X0085104Y0024481D01*
X0085240Y0024402D01*
X0085375Y0024318D01*
X0085508Y0024232D01*
X0085638Y0024142D01*
X0085766Y0024049D01*
X0085892Y0023953D01*
X0086015Y0023853D01*
X0086136Y0023751D01*
X0086254Y0023646D01*
X0086369Y0023537D01*
X0086482Y0023426D01*
X0086592Y0023312D01*
X0086699Y0023195D01*
X0086803Y0023076D01*
X0086904Y0022954D01*
X0087001Y0022829D01*
X0087096Y0022702D01*
X0087187Y0022573D01*
X0087276Y0022442D01*
X0087360Y0022308D01*
X0087442Y0022172D01*
X0087520Y0022035D01*
X0087594Y0021895D01*
X0087665Y0021753D01*
X0087733Y0021610D01*
X0087797Y0021465D01*
X0087857Y0021319D01*
X0087913Y0021171D01*
X0087966Y0021022D01*
X0088015Y0020871D01*
X0088060Y0020719D01*
X0088101Y0020566D01*
X0088139Y0020413D01*
X0088172Y0020258D01*
X0088202Y0020102D01*
X0088228Y0019946D01*
X0088249Y0019789D01*
X0088267Y0019632D01*
X0088281Y0019474D01*
X0088291Y0019316D01*
X0088297Y0019158D01*
X0088299Y0019000D01*
X0088297Y0018842D01*
X0088291Y0018684D01*
X0088281Y0018526D01*
X0088267Y0018368D01*
X0088249Y0018211D01*
X0088228Y0018054D01*
X0088202Y0017898D01*
X0088172Y0017742D01*
X0088139Y0017587D01*
X0088101Y0017434D01*
X0088060Y0017281D01*
X0088015Y0017129D01*
X0087966Y0016978D01*
X0087913Y0016829D01*
X0087857Y0016681D01*
X0087797Y0016535D01*
X0087733Y0016390D01*
X0087665Y0016247D01*
X0087594Y0016105D01*
X0087520Y0015965D01*
X0087442Y0015828D01*
X0087360Y0015692D01*
X0087276Y0015558D01*
X0087187Y0015427D01*
X0087096Y0015298D01*
X0087001Y0015171D01*
X0086904Y0015046D01*
X0086803Y0014924D01*
X0086699Y0014805D01*
X0086592Y0014688D01*
X0086482Y0014574D01*
X0086369Y0014463D01*
X0086254Y0014354D01*
X0086136Y0014249D01*
X0086015Y0014147D01*
X0085892Y0014047D01*
X0085766Y0013951D01*
X0085638Y0013858D01*
X0085508Y0013768D01*
X0085375Y0013682D01*
X0085240Y0013598D01*
X0085104Y0013519D01*
X0084965Y0013442D01*
X0084824Y0013370D01*
X0084682Y0013300D01*
X0084538Y0013235D01*
X0084392Y0013173D01*
X0084245Y0013115D01*
X0084096Y0013060D01*
X0083946Y0013009D01*
X0083795Y0012962D01*
X0083643Y0012919D01*
X0083490Y0012880D01*
X0083335Y0012844D01*
X0083180Y0012813D01*
X0083024Y0012785D01*
X0082868Y0012761D01*
X0082711Y0012741D01*
X0082553Y0012725D01*
X0082396Y0012713D01*
X0082237Y0012705D01*
X0082079Y0012701D01*
X0081921Y0012701D01*
X0081763Y0012705D01*
X0081604Y0012713D01*
X0081447Y0012725D01*
X0081289Y0012741D01*
X0081132Y0012761D01*
X0080976Y0012785D01*
X0080820Y0012813D01*
X0080665Y0012844D01*
X0080510Y0012880D01*
X0080357Y0012919D01*
X0080205Y0012962D01*
X0080054Y0013009D01*
X0079904Y0013060D01*
X0079755Y0013115D01*
X0079608Y0013173D01*
X0079462Y0013235D01*
X0079318Y0013300D01*
X0079176Y0013370D01*
X0079035Y0013442D01*
X0078896Y0013519D01*
X0078760Y0013598D01*
X0078625Y0013682D01*
X0078492Y0013768D01*
X0078362Y0013858D01*
X0078234Y0013951D01*
X0078108Y0014047D01*
X0077985Y0014147D01*
X0077864Y0014249D01*
X0077746Y0014354D01*
X0077631Y0014463D01*
X0077518Y0014574D01*
X0077408Y0014688D01*
X0077301Y0014805D01*
X0077197Y0014924D01*
X0077096Y0015046D01*
X0076999Y0015171D01*
X0076904Y0015298D01*
X0076813Y0015427D01*
X0076724Y0015558D01*
X0076640Y0015692D01*
X0076558Y0015828D01*
X0076480Y0015965D01*
X0076406Y0016105D01*
X0076335Y0016247D01*
X0076267Y0016390D01*
X0076203Y0016535D01*
X0076143Y0016681D01*
X0076087Y0016829D01*
X0076034Y0016978D01*
X0075985Y0017129D01*
X0075940Y0017281D01*
X0075899Y0017434D01*
X0075861Y0017587D01*
X0075828Y0017742D01*
X0075798Y0017898D01*
X0075772Y0018054D01*
X0075751Y0018211D01*
X0075733Y0018368D01*
X0075719Y0018526D01*
X0075709Y0018684D01*
X0075703Y0018842D01*
X0075701Y0019000D01*
X0280701Y0149000D02*
X0280703Y0149158D01*
X0280709Y0149316D01*
X0280719Y0149474D01*
X0280733Y0149632D01*
X0280751Y0149789D01*
X0280772Y0149946D01*
X0280798Y0150102D01*
X0280828Y0150258D01*
X0280861Y0150413D01*
X0280899Y0150566D01*
X0280940Y0150719D01*
X0280985Y0150871D01*
X0281034Y0151022D01*
X0281087Y0151171D01*
X0281143Y0151319D01*
X0281203Y0151465D01*
X0281267Y0151610D01*
X0281335Y0151753D01*
X0281406Y0151895D01*
X0281480Y0152035D01*
X0281558Y0152172D01*
X0281640Y0152308D01*
X0281724Y0152442D01*
X0281813Y0152573D01*
X0281904Y0152702D01*
X0281999Y0152829D01*
X0282096Y0152954D01*
X0282197Y0153076D01*
X0282301Y0153195D01*
X0282408Y0153312D01*
X0282518Y0153426D01*
X0282631Y0153537D01*
X0282746Y0153646D01*
X0282864Y0153751D01*
X0282985Y0153853D01*
X0283108Y0153953D01*
X0283234Y0154049D01*
X0283362Y0154142D01*
X0283492Y0154232D01*
X0283625Y0154318D01*
X0283760Y0154402D01*
X0283896Y0154481D01*
X0284035Y0154558D01*
X0284176Y0154630D01*
X0284318Y0154700D01*
X0284462Y0154765D01*
X0284608Y0154827D01*
X0284755Y0154885D01*
X0284904Y0154940D01*
X0285054Y0154991D01*
X0285205Y0155038D01*
X0285357Y0155081D01*
X0285510Y0155120D01*
X0285665Y0155156D01*
X0285820Y0155187D01*
X0285976Y0155215D01*
X0286132Y0155239D01*
X0286289Y0155259D01*
X0286447Y0155275D01*
X0286604Y0155287D01*
X0286763Y0155295D01*
X0286921Y0155299D01*
X0287079Y0155299D01*
X0287237Y0155295D01*
X0287396Y0155287D01*
X0287553Y0155275D01*
X0287711Y0155259D01*
X0287868Y0155239D01*
X0288024Y0155215D01*
X0288180Y0155187D01*
X0288335Y0155156D01*
X0288490Y0155120D01*
X0288643Y0155081D01*
X0288795Y0155038D01*
X0288946Y0154991D01*
X0289096Y0154940D01*
X0289245Y0154885D01*
X0289392Y0154827D01*
X0289538Y0154765D01*
X0289682Y0154700D01*
X0289824Y0154630D01*
X0289965Y0154558D01*
X0290104Y0154481D01*
X0290240Y0154402D01*
X0290375Y0154318D01*
X0290508Y0154232D01*
X0290638Y0154142D01*
X0290766Y0154049D01*
X0290892Y0153953D01*
X0291015Y0153853D01*
X0291136Y0153751D01*
X0291254Y0153646D01*
X0291369Y0153537D01*
X0291482Y0153426D01*
X0291592Y0153312D01*
X0291699Y0153195D01*
X0291803Y0153076D01*
X0291904Y0152954D01*
X0292001Y0152829D01*
X0292096Y0152702D01*
X0292187Y0152573D01*
X0292276Y0152442D01*
X0292360Y0152308D01*
X0292442Y0152172D01*
X0292520Y0152035D01*
X0292594Y0151895D01*
X0292665Y0151753D01*
X0292733Y0151610D01*
X0292797Y0151465D01*
X0292857Y0151319D01*
X0292913Y0151171D01*
X0292966Y0151022D01*
X0293015Y0150871D01*
X0293060Y0150719D01*
X0293101Y0150566D01*
X0293139Y0150413D01*
X0293172Y0150258D01*
X0293202Y0150102D01*
X0293228Y0149946D01*
X0293249Y0149789D01*
X0293267Y0149632D01*
X0293281Y0149474D01*
X0293291Y0149316D01*
X0293297Y0149158D01*
X0293299Y0149000D01*
X0293297Y0148842D01*
X0293291Y0148684D01*
X0293281Y0148526D01*
X0293267Y0148368D01*
X0293249Y0148211D01*
X0293228Y0148054D01*
X0293202Y0147898D01*
X0293172Y0147742D01*
X0293139Y0147587D01*
X0293101Y0147434D01*
X0293060Y0147281D01*
X0293015Y0147129D01*
X0292966Y0146978D01*
X0292913Y0146829D01*
X0292857Y0146681D01*
X0292797Y0146535D01*
X0292733Y0146390D01*
X0292665Y0146247D01*
X0292594Y0146105D01*
X0292520Y0145965D01*
X0292442Y0145828D01*
X0292360Y0145692D01*
X0292276Y0145558D01*
X0292187Y0145427D01*
X0292096Y0145298D01*
X0292001Y0145171D01*
X0291904Y0145046D01*
X0291803Y0144924D01*
X0291699Y0144805D01*
X0291592Y0144688D01*
X0291482Y0144574D01*
X0291369Y0144463D01*
X0291254Y0144354D01*
X0291136Y0144249D01*
X0291015Y0144147D01*
X0290892Y0144047D01*
X0290766Y0143951D01*
X0290638Y0143858D01*
X0290508Y0143768D01*
X0290375Y0143682D01*
X0290240Y0143598D01*
X0290104Y0143519D01*
X0289965Y0143442D01*
X0289824Y0143370D01*
X0289682Y0143300D01*
X0289538Y0143235D01*
X0289392Y0143173D01*
X0289245Y0143115D01*
X0289096Y0143060D01*
X0288946Y0143009D01*
X0288795Y0142962D01*
X0288643Y0142919D01*
X0288490Y0142880D01*
X0288335Y0142844D01*
X0288180Y0142813D01*
X0288024Y0142785D01*
X0287868Y0142761D01*
X0287711Y0142741D01*
X0287553Y0142725D01*
X0287396Y0142713D01*
X0287237Y0142705D01*
X0287079Y0142701D01*
X0286921Y0142701D01*
X0286763Y0142705D01*
X0286604Y0142713D01*
X0286447Y0142725D01*
X0286289Y0142741D01*
X0286132Y0142761D01*
X0285976Y0142785D01*
X0285820Y0142813D01*
X0285665Y0142844D01*
X0285510Y0142880D01*
X0285357Y0142919D01*
X0285205Y0142962D01*
X0285054Y0143009D01*
X0284904Y0143060D01*
X0284755Y0143115D01*
X0284608Y0143173D01*
X0284462Y0143235D01*
X0284318Y0143300D01*
X0284176Y0143370D01*
X0284035Y0143442D01*
X0283896Y0143519D01*
X0283760Y0143598D01*
X0283625Y0143682D01*
X0283492Y0143768D01*
X0283362Y0143858D01*
X0283234Y0143951D01*
X0283108Y0144047D01*
X0282985Y0144147D01*
X0282864Y0144249D01*
X0282746Y0144354D01*
X0282631Y0144463D01*
X0282518Y0144574D01*
X0282408Y0144688D01*
X0282301Y0144805D01*
X0282197Y0144924D01*
X0282096Y0145046D01*
X0281999Y0145171D01*
X0281904Y0145298D01*
X0281813Y0145427D01*
X0281724Y0145558D01*
X0281640Y0145692D01*
X0281558Y0145828D01*
X0281480Y0145965D01*
X0281406Y0146105D01*
X0281335Y0146247D01*
X0281267Y0146390D01*
X0281203Y0146535D01*
X0281143Y0146681D01*
X0281087Y0146829D01*
X0281034Y0146978D01*
X0280985Y0147129D01*
X0280940Y0147281D01*
X0280899Y0147434D01*
X0280861Y0147587D01*
X0280828Y0147742D01*
X0280798Y0147898D01*
X0280772Y0148054D01*
X0280751Y0148211D01*
X0280733Y0148368D01*
X0280719Y0148526D01*
X0280709Y0148684D01*
X0280703Y0148842D01*
X0280701Y0149000D01*
X0080701Y0209000D02*
X0080703Y0209158D01*
X0080709Y0209316D01*
X0080719Y0209474D01*
X0080733Y0209632D01*
X0080751Y0209789D01*
X0080772Y0209946D01*
X0080798Y0210102D01*
X0080828Y0210258D01*
X0080861Y0210413D01*
X0080899Y0210566D01*
X0080940Y0210719D01*
X0080985Y0210871D01*
X0081034Y0211022D01*
X0081087Y0211171D01*
X0081143Y0211319D01*
X0081203Y0211465D01*
X0081267Y0211610D01*
X0081335Y0211753D01*
X0081406Y0211895D01*
X0081480Y0212035D01*
X0081558Y0212172D01*
X0081640Y0212308D01*
X0081724Y0212442D01*
X0081813Y0212573D01*
X0081904Y0212702D01*
X0081999Y0212829D01*
X0082096Y0212954D01*
X0082197Y0213076D01*
X0082301Y0213195D01*
X0082408Y0213312D01*
X0082518Y0213426D01*
X0082631Y0213537D01*
X0082746Y0213646D01*
X0082864Y0213751D01*
X0082985Y0213853D01*
X0083108Y0213953D01*
X0083234Y0214049D01*
X0083362Y0214142D01*
X0083492Y0214232D01*
X0083625Y0214318D01*
X0083760Y0214402D01*
X0083896Y0214481D01*
X0084035Y0214558D01*
X0084176Y0214630D01*
X0084318Y0214700D01*
X0084462Y0214765D01*
X0084608Y0214827D01*
X0084755Y0214885D01*
X0084904Y0214940D01*
X0085054Y0214991D01*
X0085205Y0215038D01*
X0085357Y0215081D01*
X0085510Y0215120D01*
X0085665Y0215156D01*
X0085820Y0215187D01*
X0085976Y0215215D01*
X0086132Y0215239D01*
X0086289Y0215259D01*
X0086447Y0215275D01*
X0086604Y0215287D01*
X0086763Y0215295D01*
X0086921Y0215299D01*
X0087079Y0215299D01*
X0087237Y0215295D01*
X0087396Y0215287D01*
X0087553Y0215275D01*
X0087711Y0215259D01*
X0087868Y0215239D01*
X0088024Y0215215D01*
X0088180Y0215187D01*
X0088335Y0215156D01*
X0088490Y0215120D01*
X0088643Y0215081D01*
X0088795Y0215038D01*
X0088946Y0214991D01*
X0089096Y0214940D01*
X0089245Y0214885D01*
X0089392Y0214827D01*
X0089538Y0214765D01*
X0089682Y0214700D01*
X0089824Y0214630D01*
X0089965Y0214558D01*
X0090104Y0214481D01*
X0090240Y0214402D01*
X0090375Y0214318D01*
X0090508Y0214232D01*
X0090638Y0214142D01*
X0090766Y0214049D01*
X0090892Y0213953D01*
X0091015Y0213853D01*
X0091136Y0213751D01*
X0091254Y0213646D01*
X0091369Y0213537D01*
X0091482Y0213426D01*
X0091592Y0213312D01*
X0091699Y0213195D01*
X0091803Y0213076D01*
X0091904Y0212954D01*
X0092001Y0212829D01*
X0092096Y0212702D01*
X0092187Y0212573D01*
X0092276Y0212442D01*
X0092360Y0212308D01*
X0092442Y0212172D01*
X0092520Y0212035D01*
X0092594Y0211895D01*
X0092665Y0211753D01*
X0092733Y0211610D01*
X0092797Y0211465D01*
X0092857Y0211319D01*
X0092913Y0211171D01*
X0092966Y0211022D01*
X0093015Y0210871D01*
X0093060Y0210719D01*
X0093101Y0210566D01*
X0093139Y0210413D01*
X0093172Y0210258D01*
X0093202Y0210102D01*
X0093228Y0209946D01*
X0093249Y0209789D01*
X0093267Y0209632D01*
X0093281Y0209474D01*
X0093291Y0209316D01*
X0093297Y0209158D01*
X0093299Y0209000D01*
X0093297Y0208842D01*
X0093291Y0208684D01*
X0093281Y0208526D01*
X0093267Y0208368D01*
X0093249Y0208211D01*
X0093228Y0208054D01*
X0093202Y0207898D01*
X0093172Y0207742D01*
X0093139Y0207587D01*
X0093101Y0207434D01*
X0093060Y0207281D01*
X0093015Y0207129D01*
X0092966Y0206978D01*
X0092913Y0206829D01*
X0092857Y0206681D01*
X0092797Y0206535D01*
X0092733Y0206390D01*
X0092665Y0206247D01*
X0092594Y0206105D01*
X0092520Y0205965D01*
X0092442Y0205828D01*
X0092360Y0205692D01*
X0092276Y0205558D01*
X0092187Y0205427D01*
X0092096Y0205298D01*
X0092001Y0205171D01*
X0091904Y0205046D01*
X0091803Y0204924D01*
X0091699Y0204805D01*
X0091592Y0204688D01*
X0091482Y0204574D01*
X0091369Y0204463D01*
X0091254Y0204354D01*
X0091136Y0204249D01*
X0091015Y0204147D01*
X0090892Y0204047D01*
X0090766Y0203951D01*
X0090638Y0203858D01*
X0090508Y0203768D01*
X0090375Y0203682D01*
X0090240Y0203598D01*
X0090104Y0203519D01*
X0089965Y0203442D01*
X0089824Y0203370D01*
X0089682Y0203300D01*
X0089538Y0203235D01*
X0089392Y0203173D01*
X0089245Y0203115D01*
X0089096Y0203060D01*
X0088946Y0203009D01*
X0088795Y0202962D01*
X0088643Y0202919D01*
X0088490Y0202880D01*
X0088335Y0202844D01*
X0088180Y0202813D01*
X0088024Y0202785D01*
X0087868Y0202761D01*
X0087711Y0202741D01*
X0087553Y0202725D01*
X0087396Y0202713D01*
X0087237Y0202705D01*
X0087079Y0202701D01*
X0086921Y0202701D01*
X0086763Y0202705D01*
X0086604Y0202713D01*
X0086447Y0202725D01*
X0086289Y0202741D01*
X0086132Y0202761D01*
X0085976Y0202785D01*
X0085820Y0202813D01*
X0085665Y0202844D01*
X0085510Y0202880D01*
X0085357Y0202919D01*
X0085205Y0202962D01*
X0085054Y0203009D01*
X0084904Y0203060D01*
X0084755Y0203115D01*
X0084608Y0203173D01*
X0084462Y0203235D01*
X0084318Y0203300D01*
X0084176Y0203370D01*
X0084035Y0203442D01*
X0083896Y0203519D01*
X0083760Y0203598D01*
X0083625Y0203682D01*
X0083492Y0203768D01*
X0083362Y0203858D01*
X0083234Y0203951D01*
X0083108Y0204047D01*
X0082985Y0204147D01*
X0082864Y0204249D01*
X0082746Y0204354D01*
X0082631Y0204463D01*
X0082518Y0204574D01*
X0082408Y0204688D01*
X0082301Y0204805D01*
X0082197Y0204924D01*
X0082096Y0205046D01*
X0081999Y0205171D01*
X0081904Y0205298D01*
X0081813Y0205427D01*
X0081724Y0205558D01*
X0081640Y0205692D01*
X0081558Y0205828D01*
X0081480Y0205965D01*
X0081406Y0206105D01*
X0081335Y0206247D01*
X0081267Y0206390D01*
X0081203Y0206535D01*
X0081143Y0206681D01*
X0081087Y0206829D01*
X0081034Y0206978D01*
X0080985Y0207129D01*
X0080940Y0207281D01*
X0080899Y0207434D01*
X0080861Y0207587D01*
X0080828Y0207742D01*
X0080798Y0207898D01*
X0080772Y0208054D01*
X0080751Y0208211D01*
X0080733Y0208368D01*
X0080719Y0208526D01*
X0080709Y0208684D01*
X0080703Y0208842D01*
X0080701Y0209000D01*
D11*
X0111431Y0186933D02*
X0111431Y0185721D01*
X0111431Y0184375D02*
X0111431Y0183567D01*
X0111432Y0183567D02*
X0111434Y0183512D01*
X0111440Y0183457D01*
X0111449Y0183403D01*
X0111462Y0183349D01*
X0111479Y0183296D01*
X0111499Y0183245D01*
X0111523Y0183195D01*
X0111550Y0183147D01*
X0111580Y0183101D01*
X0111613Y0183057D01*
X0111649Y0183015D01*
X0111688Y0182976D01*
X0111730Y0182940D01*
X0111774Y0182907D01*
X0111820Y0182877D01*
X0111868Y0182850D01*
X0111918Y0182826D01*
X0111969Y0182806D01*
X0112022Y0182789D01*
X0112076Y0182776D01*
X0112130Y0182767D01*
X0112185Y0182761D01*
X0112240Y0182759D01*
X0112240Y0182758D02*
X0114260Y0182758D01*
X0114260Y0182759D02*
X0114315Y0182761D01*
X0114370Y0182767D01*
X0114424Y0182776D01*
X0114478Y0182789D01*
X0114531Y0182806D01*
X0114582Y0182826D01*
X0114632Y0182850D01*
X0114680Y0182877D01*
X0114726Y0182907D01*
X0114770Y0182940D01*
X0114811Y0182976D01*
X0114851Y0183015D01*
X0114887Y0183057D01*
X0114920Y0183101D01*
X0114950Y0183147D01*
X0114977Y0183195D01*
X0115001Y0183245D01*
X0115021Y0183296D01*
X0115038Y0183349D01*
X0115051Y0183403D01*
X0115060Y0183457D01*
X0115066Y0183512D01*
X0115068Y0183567D01*
X0115069Y0183567D02*
X0115069Y0184375D01*
X0115069Y0185721D02*
X0115069Y0187742D01*
X0113452Y0186933D02*
X0113452Y0185721D01*
X0115069Y0185721D01*
X0113452Y0186933D02*
X0113450Y0186988D01*
X0113444Y0187043D01*
X0113435Y0187097D01*
X0113422Y0187151D01*
X0113405Y0187204D01*
X0113385Y0187255D01*
X0113361Y0187305D01*
X0113334Y0187353D01*
X0113304Y0187399D01*
X0113271Y0187443D01*
X0113235Y0187485D01*
X0113196Y0187524D01*
X0113154Y0187560D01*
X0113110Y0187593D01*
X0113064Y0187623D01*
X0113016Y0187650D01*
X0112966Y0187674D01*
X0112915Y0187694D01*
X0112862Y0187711D01*
X0112808Y0187724D01*
X0112754Y0187733D01*
X0112699Y0187739D01*
X0112644Y0187741D01*
X0112644Y0187742D02*
X0112240Y0187742D01*
X0112240Y0187741D02*
X0112185Y0187739D01*
X0112130Y0187733D01*
X0112076Y0187724D01*
X0112022Y0187711D01*
X0111969Y0187694D01*
X0111918Y0187674D01*
X0111868Y0187650D01*
X0111820Y0187623D01*
X0111774Y0187593D01*
X0111730Y0187560D01*
X0111688Y0187524D01*
X0111649Y0187484D01*
X0111613Y0187443D01*
X0111580Y0187399D01*
X0111550Y0187353D01*
X0111523Y0187305D01*
X0111499Y0187255D01*
X0111479Y0187204D01*
X0111462Y0187151D01*
X0111449Y0187097D01*
X0111440Y0187043D01*
X0111434Y0186988D01*
X0111432Y0186933D01*
X0128931Y0184375D02*
X0128931Y0183567D01*
X0128932Y0183567D02*
X0128934Y0183512D01*
X0128940Y0183457D01*
X0128949Y0183403D01*
X0128962Y0183349D01*
X0128979Y0183296D01*
X0128999Y0183245D01*
X0129023Y0183195D01*
X0129050Y0183147D01*
X0129080Y0183101D01*
X0129113Y0183057D01*
X0129149Y0183015D01*
X0129188Y0182976D01*
X0129230Y0182940D01*
X0129274Y0182907D01*
X0129320Y0182877D01*
X0129368Y0182850D01*
X0129418Y0182826D01*
X0129469Y0182806D01*
X0129522Y0182789D01*
X0129576Y0182776D01*
X0129630Y0182767D01*
X0129685Y0182761D01*
X0129740Y0182759D01*
X0129740Y0182758D02*
X0131760Y0182758D01*
X0131760Y0182759D02*
X0131815Y0182761D01*
X0131870Y0182767D01*
X0131924Y0182776D01*
X0131978Y0182789D01*
X0132031Y0182806D01*
X0132082Y0182826D01*
X0132132Y0182850D01*
X0132180Y0182877D01*
X0132226Y0182907D01*
X0132270Y0182940D01*
X0132311Y0182976D01*
X0132351Y0183015D01*
X0132387Y0183057D01*
X0132420Y0183101D01*
X0132450Y0183147D01*
X0132477Y0183195D01*
X0132501Y0183245D01*
X0132521Y0183296D01*
X0132538Y0183349D01*
X0132551Y0183403D01*
X0132560Y0183457D01*
X0132566Y0183512D01*
X0132568Y0183567D01*
X0132569Y0183567D02*
X0132569Y0184375D01*
X0130952Y0185721D02*
X0130952Y0186933D01*
X0130952Y0185722D02*
X0131031Y0185724D01*
X0131110Y0185730D01*
X0131189Y0185739D01*
X0131267Y0185753D01*
X0131345Y0185770D01*
X0131421Y0185792D01*
X0131496Y0185816D01*
X0131570Y0185845D01*
X0131643Y0185877D01*
X0131714Y0185913D01*
X0131783Y0185952D01*
X0131850Y0185994D01*
X0131915Y0186040D01*
X0131977Y0186089D01*
X0132037Y0186141D01*
X0132095Y0186195D01*
X0132149Y0186253D01*
X0132201Y0186313D01*
X0132250Y0186375D01*
X0132296Y0186440D01*
X0132338Y0186507D01*
X0132377Y0186576D01*
X0132413Y0186647D01*
X0132445Y0186720D01*
X0132474Y0186794D01*
X0132498Y0186869D01*
X0132520Y0186945D01*
X0132537Y0187023D01*
X0132551Y0187101D01*
X0132560Y0187180D01*
X0132566Y0187259D01*
X0132568Y0187338D01*
X0130952Y0185721D02*
X0129942Y0185721D01*
X0129880Y0185723D01*
X0129818Y0185729D01*
X0129756Y0185738D01*
X0129696Y0185752D01*
X0129636Y0185769D01*
X0129577Y0185789D01*
X0129520Y0185813D01*
X0129464Y0185841D01*
X0129410Y0185872D01*
X0129358Y0185907D01*
X0129309Y0185944D01*
X0129262Y0185985D01*
X0129217Y0186028D01*
X0129175Y0186074D01*
X0129136Y0186122D01*
X0129100Y0186173D01*
X0129067Y0186226D01*
X0129038Y0186281D01*
X0129012Y0186337D01*
X0128989Y0186395D01*
X0128971Y0186455D01*
X0128955Y0186515D01*
X0128944Y0186576D01*
X0128936Y0186638D01*
X0128932Y0186700D01*
X0128932Y0186762D01*
X0128936Y0186824D01*
X0128944Y0186886D01*
X0128955Y0186947D01*
X0128971Y0187007D01*
X0128989Y0187067D01*
X0129012Y0187125D01*
X0129038Y0187181D01*
X0129067Y0187236D01*
X0129100Y0187289D01*
X0129136Y0187340D01*
X0129175Y0187388D01*
X0129217Y0187434D01*
X0129262Y0187477D01*
X0129309Y0187518D01*
X0129358Y0187555D01*
X0129410Y0187590D01*
X0129464Y0187621D01*
X0129520Y0187649D01*
X0129577Y0187673D01*
X0129636Y0187693D01*
X0129696Y0187710D01*
X0129756Y0187724D01*
X0129818Y0187733D01*
X0129880Y0187739D01*
X0129942Y0187741D01*
X0129942Y0187742D02*
X0130144Y0187742D01*
X0130144Y0187741D02*
X0130199Y0187739D01*
X0130254Y0187733D01*
X0130308Y0187724D01*
X0130362Y0187711D01*
X0130415Y0187694D01*
X0130466Y0187674D01*
X0130516Y0187650D01*
X0130564Y0187623D01*
X0130610Y0187593D01*
X0130654Y0187560D01*
X0130696Y0187524D01*
X0130735Y0187485D01*
X0130771Y0187443D01*
X0130804Y0187399D01*
X0130834Y0187353D01*
X0130861Y0187305D01*
X0130885Y0187255D01*
X0130905Y0187204D01*
X0130922Y0187151D01*
X0130935Y0187097D01*
X0130944Y0187043D01*
X0130950Y0186988D01*
X0130952Y0186933D01*
X0145181Y0172742D02*
X0145181Y0170721D01*
X0147202Y0172439D01*
X0148818Y0171832D02*
X0148816Y0171765D01*
X0148810Y0171699D01*
X0148801Y0171633D01*
X0148788Y0171567D01*
X0148771Y0171503D01*
X0148750Y0171439D01*
X0148726Y0171377D01*
X0148698Y0171316D01*
X0148667Y0171257D01*
X0148632Y0171200D01*
X0148595Y0171145D01*
X0148554Y0171092D01*
X0148510Y0171042D01*
X0148464Y0170994D01*
X0148414Y0170949D01*
X0148363Y0170907D01*
X0148309Y0170867D01*
X0148252Y0170831D01*
X0148194Y0170799D01*
X0148134Y0170769D01*
X0148073Y0170743D01*
X0148010Y0170721D01*
X0147202Y0172439D02*
X0147245Y0172482D01*
X0147291Y0172521D01*
X0147339Y0172558D01*
X0147390Y0172592D01*
X0147442Y0172623D01*
X0147496Y0172651D01*
X0147552Y0172675D01*
X0147610Y0172695D01*
X0147668Y0172712D01*
X0147727Y0172725D01*
X0147788Y0172734D01*
X0147848Y0172740D01*
X0147909Y0172742D01*
X0147909Y0172741D02*
X0147968Y0172739D01*
X0148028Y0172733D01*
X0148086Y0172724D01*
X0148144Y0172710D01*
X0148201Y0172693D01*
X0148257Y0172672D01*
X0148311Y0172647D01*
X0148363Y0172619D01*
X0148414Y0172588D01*
X0148462Y0172553D01*
X0148508Y0172515D01*
X0148552Y0172475D01*
X0148592Y0172431D01*
X0148630Y0172385D01*
X0148665Y0172337D01*
X0148696Y0172287D01*
X0148724Y0172234D01*
X0148749Y0172180D01*
X0148770Y0172124D01*
X0148787Y0172067D01*
X0148801Y0172009D01*
X0148810Y0171951D01*
X0148816Y0171891D01*
X0148818Y0171832D01*
X0148819Y0169375D02*
X0148819Y0168567D01*
X0148818Y0168567D02*
X0148816Y0168512D01*
X0148810Y0168457D01*
X0148801Y0168403D01*
X0148788Y0168349D01*
X0148771Y0168296D01*
X0148751Y0168245D01*
X0148727Y0168195D01*
X0148700Y0168147D01*
X0148670Y0168101D01*
X0148637Y0168057D01*
X0148601Y0168015D01*
X0148561Y0167976D01*
X0148520Y0167940D01*
X0148476Y0167907D01*
X0148430Y0167877D01*
X0148382Y0167850D01*
X0148332Y0167826D01*
X0148281Y0167806D01*
X0148228Y0167789D01*
X0148174Y0167776D01*
X0148120Y0167767D01*
X0148065Y0167761D01*
X0148010Y0167759D01*
X0148010Y0167758D02*
X0145990Y0167758D01*
X0145990Y0167759D02*
X0145935Y0167761D01*
X0145880Y0167767D01*
X0145826Y0167776D01*
X0145772Y0167789D01*
X0145719Y0167806D01*
X0145668Y0167826D01*
X0145618Y0167850D01*
X0145570Y0167877D01*
X0145524Y0167907D01*
X0145480Y0167940D01*
X0145438Y0167976D01*
X0145399Y0168015D01*
X0145363Y0168057D01*
X0145330Y0168101D01*
X0145300Y0168147D01*
X0145273Y0168195D01*
X0145249Y0168245D01*
X0145229Y0168296D01*
X0145212Y0168349D01*
X0145199Y0168403D01*
X0145190Y0168457D01*
X0145184Y0168512D01*
X0145182Y0168567D01*
X0145181Y0168567D02*
X0145181Y0169375D01*
X0155181Y0169500D02*
X0156798Y0168692D01*
X0156798Y0168489D02*
X0156798Y0167479D01*
X0156798Y0168489D02*
X0156800Y0168551D01*
X0156806Y0168613D01*
X0156815Y0168675D01*
X0156829Y0168735D01*
X0156846Y0168795D01*
X0156866Y0168854D01*
X0156890Y0168911D01*
X0156918Y0168967D01*
X0156949Y0169021D01*
X0156984Y0169073D01*
X0157021Y0169122D01*
X0157062Y0169169D01*
X0157105Y0169214D01*
X0157151Y0169256D01*
X0157199Y0169295D01*
X0157250Y0169331D01*
X0157303Y0169364D01*
X0157358Y0169393D01*
X0157414Y0169419D01*
X0157472Y0169442D01*
X0157532Y0169460D01*
X0157592Y0169476D01*
X0157653Y0169487D01*
X0157715Y0169495D01*
X0157777Y0169499D01*
X0157839Y0169499D01*
X0157901Y0169495D01*
X0157963Y0169487D01*
X0158024Y0169476D01*
X0158084Y0169460D01*
X0158144Y0169442D01*
X0158202Y0169419D01*
X0158258Y0169393D01*
X0158313Y0169364D01*
X0158366Y0169331D01*
X0158417Y0169295D01*
X0158465Y0169256D01*
X0158511Y0169214D01*
X0158554Y0169169D01*
X0158595Y0169122D01*
X0158632Y0169073D01*
X0158667Y0169021D01*
X0158698Y0168967D01*
X0158726Y0168911D01*
X0158750Y0168854D01*
X0158770Y0168795D01*
X0158787Y0168735D01*
X0158801Y0168675D01*
X0158810Y0168613D01*
X0158816Y0168551D01*
X0158818Y0168489D01*
X0158819Y0168489D02*
X0158819Y0167479D01*
X0155181Y0167479D01*
X0155181Y0171000D02*
X0155181Y0173021D01*
X0155181Y0171000D02*
X0157202Y0172718D01*
X0158818Y0172112D02*
X0158816Y0172045D01*
X0158810Y0171979D01*
X0158801Y0171913D01*
X0158788Y0171847D01*
X0158771Y0171783D01*
X0158750Y0171719D01*
X0158726Y0171657D01*
X0158698Y0171596D01*
X0158667Y0171537D01*
X0158632Y0171480D01*
X0158595Y0171425D01*
X0158554Y0171372D01*
X0158510Y0171322D01*
X0158464Y0171274D01*
X0158414Y0171229D01*
X0158363Y0171187D01*
X0158309Y0171147D01*
X0158252Y0171111D01*
X0158194Y0171079D01*
X0158134Y0171049D01*
X0158073Y0171023D01*
X0158010Y0171001D01*
X0157202Y0172718D02*
X0157245Y0172761D01*
X0157291Y0172800D01*
X0157339Y0172837D01*
X0157390Y0172871D01*
X0157442Y0172902D01*
X0157496Y0172930D01*
X0157552Y0172954D01*
X0157610Y0172974D01*
X0157668Y0172991D01*
X0157727Y0173004D01*
X0157788Y0173013D01*
X0157848Y0173019D01*
X0157909Y0173021D01*
X0157968Y0173019D01*
X0158028Y0173013D01*
X0158086Y0173004D01*
X0158144Y0172990D01*
X0158201Y0172973D01*
X0158257Y0172952D01*
X0158311Y0172927D01*
X0158363Y0172899D01*
X0158414Y0172868D01*
X0158462Y0172833D01*
X0158508Y0172795D01*
X0158552Y0172755D01*
X0158592Y0172711D01*
X0158630Y0172665D01*
X0158665Y0172617D01*
X0158696Y0172567D01*
X0158724Y0172514D01*
X0158749Y0172460D01*
X0158770Y0172404D01*
X0158787Y0172347D01*
X0158801Y0172289D01*
X0158810Y0172231D01*
X0158816Y0172171D01*
X0158818Y0172112D01*
X0182979Y0160819D02*
X0183990Y0157181D01*
X0186500Y0157181D02*
X0187308Y0158798D01*
X0187511Y0158798D02*
X0188521Y0158798D01*
X0187511Y0158798D02*
X0187449Y0158800D01*
X0187387Y0158806D01*
X0187325Y0158815D01*
X0187265Y0158829D01*
X0187205Y0158846D01*
X0187146Y0158866D01*
X0187089Y0158890D01*
X0187033Y0158918D01*
X0186979Y0158949D01*
X0186927Y0158984D01*
X0186878Y0159021D01*
X0186831Y0159062D01*
X0186786Y0159105D01*
X0186744Y0159151D01*
X0186705Y0159199D01*
X0186669Y0159250D01*
X0186636Y0159303D01*
X0186607Y0159358D01*
X0186581Y0159414D01*
X0186558Y0159472D01*
X0186540Y0159532D01*
X0186524Y0159592D01*
X0186513Y0159653D01*
X0186505Y0159715D01*
X0186501Y0159777D01*
X0186501Y0159839D01*
X0186505Y0159901D01*
X0186513Y0159963D01*
X0186524Y0160024D01*
X0186540Y0160084D01*
X0186558Y0160144D01*
X0186581Y0160202D01*
X0186607Y0160258D01*
X0186636Y0160313D01*
X0186669Y0160366D01*
X0186705Y0160417D01*
X0186744Y0160465D01*
X0186786Y0160511D01*
X0186831Y0160554D01*
X0186878Y0160595D01*
X0186927Y0160632D01*
X0186979Y0160667D01*
X0187033Y0160698D01*
X0187089Y0160726D01*
X0187146Y0160750D01*
X0187205Y0160770D01*
X0187265Y0160787D01*
X0187325Y0160801D01*
X0187387Y0160810D01*
X0187449Y0160816D01*
X0187511Y0160818D01*
X0187511Y0160819D02*
X0188521Y0160819D01*
X0188521Y0157181D01*
X0185000Y0160414D02*
X0185000Y0160819D01*
X0182979Y0160819D01*
X0195758Y0165819D02*
X0196769Y0162181D01*
X0199125Y0162181D02*
X0199933Y0162181D01*
X0199933Y0162182D02*
X0199988Y0162184D01*
X0200043Y0162190D01*
X0200097Y0162199D01*
X0200151Y0162212D01*
X0200204Y0162229D01*
X0200255Y0162249D01*
X0200305Y0162273D01*
X0200353Y0162300D01*
X0200399Y0162330D01*
X0200443Y0162363D01*
X0200485Y0162399D01*
X0200524Y0162438D01*
X0200560Y0162480D01*
X0200593Y0162524D01*
X0200623Y0162570D01*
X0200650Y0162618D01*
X0200674Y0162668D01*
X0200694Y0162719D01*
X0200711Y0162772D01*
X0200724Y0162826D01*
X0200733Y0162880D01*
X0200739Y0162935D01*
X0200741Y0162990D01*
X0200742Y0162990D02*
X0200742Y0165010D01*
X0200741Y0165010D02*
X0200739Y0165065D01*
X0200733Y0165120D01*
X0200724Y0165174D01*
X0200711Y0165228D01*
X0200694Y0165281D01*
X0200674Y0165332D01*
X0200650Y0165382D01*
X0200623Y0165430D01*
X0200593Y0165476D01*
X0200560Y0165520D01*
X0200524Y0165562D01*
X0200485Y0165601D01*
X0200443Y0165637D01*
X0200399Y0165670D01*
X0200353Y0165700D01*
X0200305Y0165727D01*
X0200255Y0165751D01*
X0200204Y0165771D01*
X0200151Y0165788D01*
X0200097Y0165801D01*
X0200043Y0165810D01*
X0199988Y0165816D01*
X0199933Y0165818D01*
X0199933Y0165819D02*
X0199125Y0165819D01*
X0197779Y0165819D02*
X0195758Y0165819D01*
X0197779Y0165819D02*
X0197779Y0165414D01*
X0200519Y0120819D02*
X0200519Y0117181D01*
X0201529Y0117181D02*
X0199508Y0117181D01*
X0202875Y0117181D02*
X0203683Y0117181D01*
X0203683Y0117182D02*
X0203738Y0117184D01*
X0203793Y0117190D01*
X0203847Y0117199D01*
X0203901Y0117212D01*
X0203954Y0117229D01*
X0204005Y0117249D01*
X0204055Y0117273D01*
X0204103Y0117300D01*
X0204149Y0117330D01*
X0204193Y0117363D01*
X0204235Y0117399D01*
X0204274Y0117438D01*
X0204310Y0117480D01*
X0204343Y0117524D01*
X0204373Y0117570D01*
X0204400Y0117618D01*
X0204424Y0117668D01*
X0204444Y0117719D01*
X0204461Y0117772D01*
X0204474Y0117826D01*
X0204483Y0117880D01*
X0204489Y0117935D01*
X0204491Y0117990D01*
X0204492Y0117990D02*
X0204492Y0120010D01*
X0204491Y0120010D02*
X0204489Y0120065D01*
X0204483Y0120120D01*
X0204474Y0120174D01*
X0204461Y0120228D01*
X0204444Y0120281D01*
X0204424Y0120332D01*
X0204400Y0120382D01*
X0204373Y0120430D01*
X0204343Y0120476D01*
X0204310Y0120520D01*
X0204274Y0120562D01*
X0204235Y0120601D01*
X0204193Y0120637D01*
X0204149Y0120670D01*
X0204103Y0120700D01*
X0204055Y0120727D01*
X0204005Y0120751D01*
X0203954Y0120771D01*
X0203901Y0120788D01*
X0203847Y0120801D01*
X0203793Y0120810D01*
X0203738Y0120816D01*
X0203683Y0120818D01*
X0203683Y0120819D02*
X0202875Y0120819D01*
X0201529Y0120010D02*
X0200519Y0120819D01*
X0201490Y0110819D02*
X0201490Y0107181D01*
X0202500Y0107181D02*
X0200479Y0107181D01*
X0204000Y0107181D02*
X0204808Y0108798D01*
X0205011Y0108798D02*
X0206021Y0108798D01*
X0205011Y0108798D02*
X0204949Y0108800D01*
X0204887Y0108806D01*
X0204825Y0108815D01*
X0204765Y0108829D01*
X0204705Y0108846D01*
X0204646Y0108866D01*
X0204589Y0108890D01*
X0204533Y0108918D01*
X0204479Y0108949D01*
X0204427Y0108984D01*
X0204378Y0109021D01*
X0204331Y0109062D01*
X0204286Y0109105D01*
X0204244Y0109151D01*
X0204205Y0109199D01*
X0204169Y0109250D01*
X0204136Y0109303D01*
X0204107Y0109358D01*
X0204081Y0109414D01*
X0204058Y0109472D01*
X0204040Y0109532D01*
X0204024Y0109592D01*
X0204013Y0109653D01*
X0204005Y0109715D01*
X0204001Y0109777D01*
X0204001Y0109839D01*
X0204005Y0109901D01*
X0204013Y0109963D01*
X0204024Y0110024D01*
X0204040Y0110084D01*
X0204058Y0110144D01*
X0204081Y0110202D01*
X0204107Y0110258D01*
X0204136Y0110313D01*
X0204169Y0110366D01*
X0204205Y0110417D01*
X0204244Y0110465D01*
X0204286Y0110511D01*
X0204331Y0110554D01*
X0204378Y0110595D01*
X0204427Y0110632D01*
X0204479Y0110667D01*
X0204533Y0110698D01*
X0204589Y0110726D01*
X0204646Y0110750D01*
X0204705Y0110770D01*
X0204765Y0110787D01*
X0204825Y0110801D01*
X0204887Y0110810D01*
X0204949Y0110816D01*
X0205011Y0110818D01*
X0205011Y0110819D02*
X0206021Y0110819D01*
X0206021Y0107181D01*
X0202500Y0110010D02*
X0201490Y0110819D01*
X0200687Y0084046D02*
X0200782Y0084002D01*
X0200878Y0083961D01*
X0200975Y0083924D01*
X0201074Y0083890D01*
X0201174Y0083859D01*
X0201275Y0083832D01*
X0201377Y0083808D01*
X0201480Y0083788D01*
X0201583Y0083772D01*
X0201687Y0083759D01*
X0201791Y0083750D01*
X0201895Y0083745D01*
X0202000Y0083743D01*
X0202000Y0085763D02*
X0202105Y0085761D01*
X0202209Y0085756D01*
X0202313Y0085747D01*
X0202417Y0085734D01*
X0202520Y0085718D01*
X0202623Y0085698D01*
X0202725Y0085674D01*
X0202826Y0085647D01*
X0202926Y0085616D01*
X0203025Y0085582D01*
X0203122Y0085545D01*
X0203219Y0085504D01*
X0203313Y0085460D01*
X0203010Y0085561D02*
X0200990Y0083945D01*
X0200181Y0084753D02*
X0200183Y0084808D01*
X0200189Y0084862D01*
X0200199Y0084915D01*
X0200213Y0084968D01*
X0200230Y0085020D01*
X0200252Y0085070D01*
X0200276Y0085119D01*
X0200305Y0085165D01*
X0200337Y0085210D01*
X0200371Y0085252D01*
X0200409Y0085291D01*
X0200450Y0085327D01*
X0200493Y0085361D01*
X0200539Y0085391D01*
X0200586Y0085418D01*
X0200635Y0085441D01*
X0200686Y0085461D01*
X0200181Y0084753D02*
X0200183Y0084698D01*
X0200189Y0084644D01*
X0200199Y0084591D01*
X0200213Y0084538D01*
X0200230Y0084486D01*
X0200252Y0084436D01*
X0200276Y0084387D01*
X0200305Y0084341D01*
X0200337Y0084296D01*
X0200371Y0084254D01*
X0200409Y0084215D01*
X0200450Y0084179D01*
X0200493Y0084145D01*
X0200539Y0084115D01*
X0200586Y0084088D01*
X0200635Y0084065D01*
X0200686Y0084045D01*
X0200687Y0085460D02*
X0200781Y0085504D01*
X0200878Y0085545D01*
X0200975Y0085582D01*
X0201074Y0085616D01*
X0201174Y0085647D01*
X0201275Y0085674D01*
X0201377Y0085698D01*
X0201480Y0085718D01*
X0201583Y0085734D01*
X0201687Y0085747D01*
X0201791Y0085756D01*
X0201895Y0085761D01*
X0202000Y0085763D01*
X0202000Y0083743D02*
X0202105Y0083745D01*
X0202209Y0083750D01*
X0202313Y0083759D01*
X0202417Y0083772D01*
X0202520Y0083788D01*
X0202623Y0083808D01*
X0202725Y0083832D01*
X0202826Y0083859D01*
X0202926Y0083890D01*
X0203025Y0083924D01*
X0203122Y0083961D01*
X0203218Y0084002D01*
X0203313Y0084046D01*
X0203819Y0084753D02*
X0203817Y0084808D01*
X0203811Y0084862D01*
X0203801Y0084915D01*
X0203787Y0084968D01*
X0203770Y0085020D01*
X0203748Y0085070D01*
X0203724Y0085119D01*
X0203695Y0085165D01*
X0203663Y0085210D01*
X0203629Y0085252D01*
X0203591Y0085291D01*
X0203550Y0085327D01*
X0203507Y0085361D01*
X0203461Y0085391D01*
X0203414Y0085418D01*
X0203365Y0085441D01*
X0203314Y0085461D01*
X0203819Y0084753D02*
X0203817Y0084698D01*
X0203811Y0084644D01*
X0203801Y0084591D01*
X0203787Y0084538D01*
X0203770Y0084486D01*
X0203748Y0084436D01*
X0203724Y0084387D01*
X0203695Y0084341D01*
X0203663Y0084296D01*
X0203629Y0084254D01*
X0203591Y0084215D01*
X0203550Y0084179D01*
X0203507Y0084145D01*
X0203461Y0084115D01*
X0203414Y0084088D01*
X0203365Y0084065D01*
X0203314Y0084045D01*
X0203819Y0081210D02*
X0200181Y0081210D01*
X0200181Y0082220D02*
X0200181Y0080199D01*
X0200181Y0078853D02*
X0200181Y0078045D01*
X0200182Y0078045D02*
X0200184Y0077990D01*
X0200190Y0077935D01*
X0200199Y0077881D01*
X0200212Y0077827D01*
X0200229Y0077774D01*
X0200249Y0077723D01*
X0200273Y0077673D01*
X0200300Y0077625D01*
X0200330Y0077579D01*
X0200363Y0077535D01*
X0200399Y0077493D01*
X0200438Y0077454D01*
X0200480Y0077418D01*
X0200524Y0077385D01*
X0200570Y0077355D01*
X0200618Y0077328D01*
X0200668Y0077304D01*
X0200719Y0077284D01*
X0200772Y0077267D01*
X0200826Y0077254D01*
X0200880Y0077245D01*
X0200935Y0077239D01*
X0200990Y0077237D01*
X0203010Y0077237D01*
X0203065Y0077239D01*
X0203120Y0077245D01*
X0203174Y0077254D01*
X0203228Y0077267D01*
X0203281Y0077284D01*
X0203332Y0077304D01*
X0203382Y0077328D01*
X0203430Y0077355D01*
X0203476Y0077385D01*
X0203520Y0077418D01*
X0203561Y0077454D01*
X0203601Y0077493D01*
X0203637Y0077535D01*
X0203670Y0077579D01*
X0203700Y0077625D01*
X0203727Y0077673D01*
X0203751Y0077723D01*
X0203771Y0077774D01*
X0203788Y0077827D01*
X0203801Y0077881D01*
X0203810Y0077935D01*
X0203816Y0077990D01*
X0203818Y0078045D01*
X0203819Y0078045D02*
X0203819Y0078853D01*
X0203010Y0080199D02*
X0203819Y0081210D01*
X0210181Y0079500D02*
X0211798Y0078692D01*
X0211798Y0078489D02*
X0211798Y0077479D01*
X0211798Y0078489D02*
X0211800Y0078551D01*
X0211806Y0078613D01*
X0211815Y0078675D01*
X0211829Y0078735D01*
X0211846Y0078795D01*
X0211866Y0078854D01*
X0211890Y0078911D01*
X0211918Y0078967D01*
X0211949Y0079021D01*
X0211984Y0079073D01*
X0212021Y0079122D01*
X0212062Y0079169D01*
X0212105Y0079214D01*
X0212151Y0079256D01*
X0212199Y0079295D01*
X0212250Y0079331D01*
X0212303Y0079364D01*
X0212358Y0079393D01*
X0212414Y0079419D01*
X0212472Y0079442D01*
X0212532Y0079460D01*
X0212592Y0079476D01*
X0212653Y0079487D01*
X0212715Y0079495D01*
X0212777Y0079499D01*
X0212839Y0079499D01*
X0212901Y0079495D01*
X0212963Y0079487D01*
X0213024Y0079476D01*
X0213084Y0079460D01*
X0213144Y0079442D01*
X0213202Y0079419D01*
X0213258Y0079393D01*
X0213313Y0079364D01*
X0213366Y0079331D01*
X0213417Y0079295D01*
X0213465Y0079256D01*
X0213511Y0079214D01*
X0213554Y0079169D01*
X0213595Y0079122D01*
X0213632Y0079073D01*
X0213667Y0079021D01*
X0213698Y0078967D01*
X0213726Y0078911D01*
X0213750Y0078854D01*
X0213770Y0078795D01*
X0213787Y0078735D01*
X0213801Y0078675D01*
X0213810Y0078613D01*
X0213816Y0078551D01*
X0213818Y0078489D01*
X0213819Y0078489D02*
X0213819Y0077479D01*
X0210181Y0077479D01*
X0211192Y0081000D02*
X0211130Y0081002D01*
X0211068Y0081008D01*
X0211006Y0081017D01*
X0210946Y0081031D01*
X0210886Y0081048D01*
X0210827Y0081068D01*
X0210770Y0081092D01*
X0210714Y0081120D01*
X0210660Y0081151D01*
X0210608Y0081186D01*
X0210559Y0081223D01*
X0210512Y0081264D01*
X0210467Y0081307D01*
X0210425Y0081353D01*
X0210386Y0081401D01*
X0210350Y0081452D01*
X0210317Y0081505D01*
X0210288Y0081560D01*
X0210262Y0081616D01*
X0210239Y0081674D01*
X0210221Y0081734D01*
X0210205Y0081794D01*
X0210194Y0081855D01*
X0210186Y0081917D01*
X0210182Y0081979D01*
X0210182Y0082041D01*
X0210186Y0082103D01*
X0210194Y0082165D01*
X0210205Y0082226D01*
X0210221Y0082286D01*
X0210239Y0082346D01*
X0210262Y0082404D01*
X0210288Y0082460D01*
X0210317Y0082515D01*
X0210350Y0082568D01*
X0210386Y0082619D01*
X0210425Y0082667D01*
X0210467Y0082713D01*
X0210512Y0082756D01*
X0210559Y0082797D01*
X0210608Y0082834D01*
X0210660Y0082869D01*
X0210714Y0082900D01*
X0210770Y0082928D01*
X0210827Y0082952D01*
X0210886Y0082972D01*
X0210946Y0082989D01*
X0211006Y0083003D01*
X0211068Y0083012D01*
X0211130Y0083018D01*
X0211192Y0083020D01*
X0211254Y0083018D01*
X0211316Y0083012D01*
X0211378Y0083003D01*
X0211438Y0082989D01*
X0211498Y0082972D01*
X0211557Y0082952D01*
X0211614Y0082928D01*
X0211670Y0082900D01*
X0211724Y0082869D01*
X0211776Y0082834D01*
X0211825Y0082797D01*
X0211872Y0082756D01*
X0211917Y0082713D01*
X0211959Y0082667D01*
X0211998Y0082619D01*
X0212034Y0082568D01*
X0212067Y0082515D01*
X0212096Y0082460D01*
X0212122Y0082404D01*
X0212145Y0082346D01*
X0212163Y0082286D01*
X0212179Y0082226D01*
X0212190Y0082165D01*
X0212198Y0082103D01*
X0212202Y0082041D01*
X0212202Y0081979D01*
X0212198Y0081917D01*
X0212190Y0081855D01*
X0212179Y0081794D01*
X0212163Y0081734D01*
X0212145Y0081674D01*
X0212122Y0081616D01*
X0212096Y0081560D01*
X0212067Y0081505D01*
X0212034Y0081452D01*
X0211998Y0081401D01*
X0211959Y0081353D01*
X0211917Y0081307D01*
X0211872Y0081264D01*
X0211825Y0081223D01*
X0211776Y0081186D01*
X0211724Y0081151D01*
X0211670Y0081120D01*
X0211614Y0081092D01*
X0211557Y0081068D01*
X0211498Y0081048D01*
X0211438Y0081031D01*
X0211378Y0081017D01*
X0211316Y0081008D01*
X0211254Y0081002D01*
X0211192Y0081000D01*
X0213010Y0081202D02*
X0212955Y0081204D01*
X0212900Y0081210D01*
X0212846Y0081219D01*
X0212792Y0081232D01*
X0212739Y0081249D01*
X0212688Y0081269D01*
X0212638Y0081293D01*
X0212590Y0081320D01*
X0212544Y0081350D01*
X0212500Y0081383D01*
X0212458Y0081419D01*
X0212419Y0081458D01*
X0212383Y0081500D01*
X0212350Y0081544D01*
X0212320Y0081590D01*
X0212293Y0081638D01*
X0212269Y0081688D01*
X0212249Y0081739D01*
X0212232Y0081792D01*
X0212219Y0081846D01*
X0212210Y0081900D01*
X0212204Y0081955D01*
X0212202Y0082010D01*
X0212204Y0082065D01*
X0212210Y0082120D01*
X0212219Y0082174D01*
X0212232Y0082228D01*
X0212249Y0082281D01*
X0212269Y0082332D01*
X0212293Y0082382D01*
X0212320Y0082430D01*
X0212350Y0082476D01*
X0212383Y0082520D01*
X0212419Y0082562D01*
X0212458Y0082601D01*
X0212500Y0082637D01*
X0212544Y0082670D01*
X0212590Y0082700D01*
X0212638Y0082727D01*
X0212688Y0082751D01*
X0212739Y0082771D01*
X0212792Y0082788D01*
X0212846Y0082801D01*
X0212900Y0082810D01*
X0212955Y0082816D01*
X0213010Y0082818D01*
X0213065Y0082816D01*
X0213120Y0082810D01*
X0213174Y0082801D01*
X0213228Y0082788D01*
X0213281Y0082771D01*
X0213332Y0082751D01*
X0213382Y0082727D01*
X0213430Y0082700D01*
X0213476Y0082670D01*
X0213520Y0082637D01*
X0213562Y0082601D01*
X0213601Y0082562D01*
X0213637Y0082520D01*
X0213670Y0082476D01*
X0213700Y0082430D01*
X0213727Y0082382D01*
X0213751Y0082332D01*
X0213771Y0082281D01*
X0213788Y0082228D01*
X0213801Y0082174D01*
X0213810Y0082120D01*
X0213816Y0082065D01*
X0213818Y0082010D01*
X0213816Y0081955D01*
X0213810Y0081900D01*
X0213801Y0081846D01*
X0213788Y0081792D01*
X0213771Y0081739D01*
X0213751Y0081688D01*
X0213727Y0081638D01*
X0213700Y0081590D01*
X0213670Y0081544D01*
X0213637Y0081500D01*
X0213601Y0081458D01*
X0213562Y0081419D01*
X0213520Y0081383D01*
X0213476Y0081350D01*
X0213430Y0081320D01*
X0213382Y0081293D01*
X0213332Y0081269D01*
X0213281Y0081249D01*
X0213228Y0081232D01*
X0213174Y0081219D01*
X0213120Y0081210D01*
X0213065Y0081204D01*
X0213010Y0081202D01*
X0193819Y0081210D02*
X0193010Y0080199D01*
X0193819Y0081210D02*
X0190181Y0081210D01*
X0190181Y0082220D02*
X0190181Y0080199D01*
X0190181Y0078853D02*
X0190181Y0078045D01*
X0190182Y0078045D02*
X0190184Y0077990D01*
X0190190Y0077935D01*
X0190199Y0077881D01*
X0190212Y0077827D01*
X0190229Y0077774D01*
X0190249Y0077723D01*
X0190273Y0077673D01*
X0190300Y0077625D01*
X0190330Y0077579D01*
X0190363Y0077535D01*
X0190399Y0077493D01*
X0190438Y0077454D01*
X0190480Y0077418D01*
X0190524Y0077385D01*
X0190570Y0077355D01*
X0190618Y0077328D01*
X0190668Y0077304D01*
X0190719Y0077284D01*
X0190772Y0077267D01*
X0190826Y0077254D01*
X0190880Y0077245D01*
X0190935Y0077239D01*
X0190990Y0077237D01*
X0193010Y0077237D01*
X0193065Y0077239D01*
X0193120Y0077245D01*
X0193174Y0077254D01*
X0193228Y0077267D01*
X0193281Y0077284D01*
X0193332Y0077304D01*
X0193382Y0077328D01*
X0193430Y0077355D01*
X0193476Y0077385D01*
X0193520Y0077418D01*
X0193561Y0077454D01*
X0193601Y0077493D01*
X0193637Y0077535D01*
X0193670Y0077579D01*
X0193700Y0077625D01*
X0193727Y0077673D01*
X0193751Y0077723D01*
X0193771Y0077774D01*
X0193788Y0077827D01*
X0193801Y0077881D01*
X0193810Y0077935D01*
X0193816Y0077990D01*
X0193818Y0078045D01*
X0193819Y0078045D02*
X0193819Y0078853D01*
X0193010Y0083743D02*
X0193819Y0084753D01*
X0190181Y0084753D01*
X0190181Y0083743D02*
X0190181Y0085763D01*
X0160230Y0113399D02*
X0160230Y0114207D01*
X0160230Y0113803D02*
X0156593Y0113803D01*
X0156593Y0113399D02*
X0156593Y0114207D01*
X0157401Y0115618D02*
X0159422Y0115618D01*
X0159477Y0115620D01*
X0159532Y0115626D01*
X0159586Y0115635D01*
X0159640Y0115648D01*
X0159693Y0115665D01*
X0159744Y0115685D01*
X0159794Y0115709D01*
X0159842Y0115736D01*
X0159888Y0115766D01*
X0159932Y0115799D01*
X0159973Y0115835D01*
X0160013Y0115874D01*
X0160049Y0115916D01*
X0160082Y0115960D01*
X0160112Y0116006D01*
X0160139Y0116054D01*
X0160163Y0116104D01*
X0160183Y0116155D01*
X0160200Y0116208D01*
X0160213Y0116262D01*
X0160222Y0116316D01*
X0160228Y0116371D01*
X0160230Y0116426D01*
X0160230Y0117234D01*
X0158613Y0118580D02*
X0157603Y0118580D01*
X0158613Y0118580D02*
X0158613Y0119793D01*
X0158613Y0118581D02*
X0158692Y0118583D01*
X0158771Y0118589D01*
X0158850Y0118598D01*
X0158928Y0118612D01*
X0159006Y0118629D01*
X0159082Y0118651D01*
X0159157Y0118675D01*
X0159231Y0118704D01*
X0159304Y0118736D01*
X0159375Y0118772D01*
X0159444Y0118811D01*
X0159511Y0118853D01*
X0159576Y0118899D01*
X0159638Y0118948D01*
X0159698Y0119000D01*
X0159756Y0119054D01*
X0159810Y0119112D01*
X0159862Y0119172D01*
X0159911Y0119234D01*
X0159957Y0119299D01*
X0159999Y0119366D01*
X0160038Y0119435D01*
X0160074Y0119506D01*
X0160106Y0119579D01*
X0160135Y0119653D01*
X0160159Y0119728D01*
X0160181Y0119804D01*
X0160198Y0119882D01*
X0160212Y0119960D01*
X0160221Y0120039D01*
X0160227Y0120118D01*
X0160229Y0120197D01*
X0157805Y0120601D02*
X0157603Y0120601D01*
X0157805Y0120601D02*
X0157860Y0120599D01*
X0157915Y0120593D01*
X0157969Y0120584D01*
X0158023Y0120571D01*
X0158076Y0120554D01*
X0158127Y0120534D01*
X0158177Y0120510D01*
X0158225Y0120483D01*
X0158271Y0120453D01*
X0158315Y0120420D01*
X0158357Y0120384D01*
X0158396Y0120345D01*
X0158432Y0120303D01*
X0158465Y0120259D01*
X0158495Y0120213D01*
X0158522Y0120165D01*
X0158546Y0120115D01*
X0158566Y0120064D01*
X0158583Y0120011D01*
X0158596Y0119957D01*
X0158605Y0119903D01*
X0158611Y0119848D01*
X0158613Y0119793D01*
X0157603Y0120601D02*
X0157541Y0120599D01*
X0157479Y0120593D01*
X0157417Y0120584D01*
X0157357Y0120570D01*
X0157297Y0120553D01*
X0157238Y0120533D01*
X0157181Y0120509D01*
X0157125Y0120481D01*
X0157071Y0120450D01*
X0157019Y0120415D01*
X0156970Y0120378D01*
X0156923Y0120337D01*
X0156878Y0120294D01*
X0156836Y0120248D01*
X0156797Y0120200D01*
X0156761Y0120149D01*
X0156728Y0120096D01*
X0156699Y0120041D01*
X0156673Y0119985D01*
X0156650Y0119927D01*
X0156632Y0119867D01*
X0156616Y0119807D01*
X0156605Y0119746D01*
X0156597Y0119684D01*
X0156593Y0119622D01*
X0156593Y0119560D01*
X0156597Y0119498D01*
X0156605Y0119436D01*
X0156616Y0119375D01*
X0156632Y0119315D01*
X0156650Y0119255D01*
X0156673Y0119197D01*
X0156699Y0119141D01*
X0156728Y0119086D01*
X0156761Y0119033D01*
X0156797Y0118982D01*
X0156836Y0118934D01*
X0156878Y0118888D01*
X0156923Y0118845D01*
X0156970Y0118804D01*
X0157019Y0118767D01*
X0157071Y0118732D01*
X0157125Y0118701D01*
X0157181Y0118673D01*
X0157238Y0118649D01*
X0157297Y0118629D01*
X0157357Y0118612D01*
X0157417Y0118598D01*
X0157479Y0118589D01*
X0157541Y0118583D01*
X0157603Y0118581D01*
X0156593Y0117234D02*
X0156593Y0116426D01*
X0156595Y0116371D01*
X0156601Y0116316D01*
X0156610Y0116262D01*
X0156623Y0116208D01*
X0156640Y0116155D01*
X0156660Y0116104D01*
X0156684Y0116054D01*
X0156711Y0116006D01*
X0156741Y0115960D01*
X0156774Y0115916D01*
X0156810Y0115874D01*
X0156849Y0115835D01*
X0156891Y0115799D01*
X0156935Y0115766D01*
X0156981Y0115736D01*
X0157029Y0115709D01*
X0157079Y0115685D01*
X0157130Y0115665D01*
X0157183Y0115648D01*
X0157237Y0115635D01*
X0157291Y0115626D01*
X0157346Y0115620D01*
X0157401Y0115618D01*
X0136021Y0142181D02*
X0136021Y0145819D01*
X0135011Y0145819D01*
X0135011Y0145818D02*
X0134949Y0145816D01*
X0134887Y0145810D01*
X0134825Y0145801D01*
X0134765Y0145787D01*
X0134705Y0145770D01*
X0134646Y0145750D01*
X0134589Y0145726D01*
X0134533Y0145698D01*
X0134479Y0145667D01*
X0134427Y0145632D01*
X0134378Y0145595D01*
X0134331Y0145554D01*
X0134286Y0145511D01*
X0134244Y0145465D01*
X0134205Y0145417D01*
X0134169Y0145366D01*
X0134136Y0145313D01*
X0134107Y0145258D01*
X0134081Y0145202D01*
X0134058Y0145144D01*
X0134040Y0145084D01*
X0134024Y0145024D01*
X0134013Y0144963D01*
X0134005Y0144901D01*
X0134001Y0144839D01*
X0134001Y0144777D01*
X0134005Y0144715D01*
X0134013Y0144653D01*
X0134024Y0144592D01*
X0134040Y0144532D01*
X0134058Y0144472D01*
X0134081Y0144414D01*
X0134107Y0144358D01*
X0134136Y0144303D01*
X0134169Y0144250D01*
X0134205Y0144199D01*
X0134244Y0144151D01*
X0134286Y0144105D01*
X0134331Y0144062D01*
X0134378Y0144021D01*
X0134427Y0143984D01*
X0134479Y0143949D01*
X0134533Y0143918D01*
X0134589Y0143890D01*
X0134646Y0143866D01*
X0134705Y0143846D01*
X0134765Y0143829D01*
X0134825Y0143815D01*
X0134887Y0143806D01*
X0134949Y0143800D01*
X0135011Y0143798D01*
X0136021Y0143798D01*
X0134808Y0143798D02*
X0134000Y0142181D01*
X0132500Y0142181D02*
X0131287Y0142181D01*
X0131287Y0142182D02*
X0131232Y0142184D01*
X0131177Y0142190D01*
X0131123Y0142199D01*
X0131069Y0142212D01*
X0131016Y0142229D01*
X0130965Y0142249D01*
X0130915Y0142273D01*
X0130867Y0142300D01*
X0130821Y0142330D01*
X0130777Y0142363D01*
X0130736Y0142399D01*
X0130696Y0142438D01*
X0130660Y0142480D01*
X0130627Y0142524D01*
X0130597Y0142570D01*
X0130570Y0142618D01*
X0130546Y0142668D01*
X0130526Y0142719D01*
X0130509Y0142772D01*
X0130496Y0142826D01*
X0130487Y0142880D01*
X0130481Y0142935D01*
X0130479Y0142990D01*
X0130479Y0143394D01*
X0130481Y0143449D01*
X0130487Y0143504D01*
X0130496Y0143558D01*
X0130509Y0143612D01*
X0130526Y0143665D01*
X0130546Y0143716D01*
X0130570Y0143766D01*
X0130597Y0143814D01*
X0130627Y0143860D01*
X0130660Y0143904D01*
X0130696Y0143946D01*
X0130736Y0143985D01*
X0130777Y0144021D01*
X0130821Y0144054D01*
X0130867Y0144084D01*
X0130915Y0144111D01*
X0130965Y0144135D01*
X0131016Y0144155D01*
X0131069Y0144172D01*
X0131123Y0144185D01*
X0131177Y0144194D01*
X0131232Y0144200D01*
X0131287Y0144202D01*
X0132500Y0144202D01*
X0132500Y0145819D01*
X0130479Y0145819D01*
X0083819Y0140963D02*
X0083819Y0139750D01*
X0083818Y0140963D02*
X0083816Y0141018D01*
X0083810Y0141073D01*
X0083801Y0141127D01*
X0083788Y0141181D01*
X0083771Y0141234D01*
X0083751Y0141285D01*
X0083727Y0141335D01*
X0083700Y0141383D01*
X0083670Y0141429D01*
X0083637Y0141473D01*
X0083601Y0141515D01*
X0083562Y0141554D01*
X0083520Y0141590D01*
X0083476Y0141623D01*
X0083430Y0141653D01*
X0083382Y0141680D01*
X0083332Y0141704D01*
X0083281Y0141724D01*
X0083228Y0141741D01*
X0083174Y0141754D01*
X0083120Y0141763D01*
X0083065Y0141769D01*
X0083010Y0141771D01*
X0082955Y0141769D01*
X0082900Y0141763D01*
X0082846Y0141754D01*
X0082792Y0141741D01*
X0082739Y0141724D01*
X0082688Y0141704D01*
X0082638Y0141680D01*
X0082590Y0141653D01*
X0082544Y0141623D01*
X0082500Y0141590D01*
X0082458Y0141554D01*
X0082419Y0141515D01*
X0082383Y0141473D01*
X0082350Y0141429D01*
X0082320Y0141383D01*
X0082293Y0141335D01*
X0082269Y0141285D01*
X0082249Y0141234D01*
X0082232Y0141181D01*
X0082219Y0141127D01*
X0082210Y0141073D01*
X0082204Y0141018D01*
X0082202Y0140963D01*
X0082202Y0140154D01*
X0082202Y0140761D02*
X0082200Y0140823D01*
X0082194Y0140885D01*
X0082185Y0140947D01*
X0082171Y0141007D01*
X0082154Y0141067D01*
X0082134Y0141126D01*
X0082110Y0141183D01*
X0082082Y0141239D01*
X0082051Y0141293D01*
X0082016Y0141345D01*
X0081979Y0141394D01*
X0081938Y0141441D01*
X0081895Y0141486D01*
X0081849Y0141528D01*
X0081801Y0141567D01*
X0081750Y0141603D01*
X0081697Y0141636D01*
X0081642Y0141665D01*
X0081586Y0141691D01*
X0081528Y0141714D01*
X0081468Y0141732D01*
X0081408Y0141748D01*
X0081347Y0141759D01*
X0081285Y0141767D01*
X0081223Y0141771D01*
X0081161Y0141771D01*
X0081099Y0141767D01*
X0081037Y0141759D01*
X0080976Y0141748D01*
X0080916Y0141732D01*
X0080856Y0141714D01*
X0080798Y0141691D01*
X0080742Y0141665D01*
X0080687Y0141636D01*
X0080634Y0141603D01*
X0080583Y0141567D01*
X0080535Y0141528D01*
X0080489Y0141486D01*
X0080446Y0141441D01*
X0080405Y0141394D01*
X0080368Y0141345D01*
X0080333Y0141293D01*
X0080302Y0141239D01*
X0080274Y0141183D01*
X0080250Y0141126D01*
X0080230Y0141067D01*
X0080213Y0141007D01*
X0080199Y0140947D01*
X0080190Y0140885D01*
X0080184Y0140823D01*
X0080182Y0140761D01*
X0080181Y0140761D02*
X0080181Y0139750D01*
X0080181Y0138250D02*
X0081798Y0137442D01*
X0081798Y0137239D02*
X0081798Y0136229D01*
X0081798Y0137239D02*
X0081800Y0137301D01*
X0081806Y0137363D01*
X0081815Y0137425D01*
X0081829Y0137485D01*
X0081846Y0137545D01*
X0081866Y0137604D01*
X0081890Y0137661D01*
X0081918Y0137717D01*
X0081949Y0137771D01*
X0081984Y0137823D01*
X0082021Y0137872D01*
X0082062Y0137919D01*
X0082105Y0137964D01*
X0082151Y0138006D01*
X0082199Y0138045D01*
X0082250Y0138081D01*
X0082303Y0138114D01*
X0082358Y0138143D01*
X0082414Y0138169D01*
X0082472Y0138192D01*
X0082532Y0138210D01*
X0082592Y0138226D01*
X0082653Y0138237D01*
X0082715Y0138245D01*
X0082777Y0138249D01*
X0082839Y0138249D01*
X0082901Y0138245D01*
X0082963Y0138237D01*
X0083024Y0138226D01*
X0083084Y0138210D01*
X0083144Y0138192D01*
X0083202Y0138169D01*
X0083258Y0138143D01*
X0083313Y0138114D01*
X0083366Y0138081D01*
X0083417Y0138045D01*
X0083465Y0138006D01*
X0083511Y0137964D01*
X0083554Y0137919D01*
X0083595Y0137872D01*
X0083632Y0137823D01*
X0083667Y0137771D01*
X0083698Y0137717D01*
X0083726Y0137661D01*
X0083750Y0137604D01*
X0083770Y0137545D01*
X0083787Y0137485D01*
X0083801Y0137425D01*
X0083810Y0137363D01*
X0083816Y0137301D01*
X0083818Y0137239D01*
X0083819Y0137239D02*
X0083819Y0136229D01*
X0080181Y0136229D01*
X0080990Y0176508D02*
X0083010Y0176508D01*
X0083010Y0176509D02*
X0083065Y0176511D01*
X0083120Y0176517D01*
X0083174Y0176526D01*
X0083228Y0176539D01*
X0083281Y0176556D01*
X0083332Y0176576D01*
X0083382Y0176600D01*
X0083430Y0176627D01*
X0083476Y0176657D01*
X0083520Y0176690D01*
X0083561Y0176726D01*
X0083601Y0176765D01*
X0083637Y0176807D01*
X0083670Y0176851D01*
X0083700Y0176897D01*
X0083727Y0176945D01*
X0083751Y0176995D01*
X0083771Y0177046D01*
X0083788Y0177099D01*
X0083801Y0177153D01*
X0083810Y0177207D01*
X0083816Y0177262D01*
X0083818Y0177317D01*
X0083819Y0177317D02*
X0083819Y0178125D01*
X0083819Y0179471D02*
X0083819Y0180683D01*
X0083818Y0180683D02*
X0083816Y0180738D01*
X0083810Y0180793D01*
X0083801Y0180847D01*
X0083788Y0180901D01*
X0083771Y0180954D01*
X0083751Y0181005D01*
X0083727Y0181055D01*
X0083700Y0181103D01*
X0083670Y0181149D01*
X0083637Y0181193D01*
X0083601Y0181235D01*
X0083562Y0181274D01*
X0083520Y0181310D01*
X0083476Y0181343D01*
X0083430Y0181373D01*
X0083382Y0181400D01*
X0083332Y0181424D01*
X0083281Y0181444D01*
X0083228Y0181461D01*
X0083174Y0181474D01*
X0083120Y0181483D01*
X0083065Y0181489D01*
X0083010Y0181491D01*
X0082955Y0181489D01*
X0082900Y0181483D01*
X0082846Y0181474D01*
X0082792Y0181461D01*
X0082739Y0181444D01*
X0082688Y0181424D01*
X0082638Y0181400D01*
X0082590Y0181373D01*
X0082544Y0181343D01*
X0082500Y0181310D01*
X0082458Y0181274D01*
X0082419Y0181235D01*
X0082383Y0181193D01*
X0082350Y0181149D01*
X0082320Y0181103D01*
X0082293Y0181055D01*
X0082269Y0181005D01*
X0082249Y0180954D01*
X0082232Y0180901D01*
X0082219Y0180847D01*
X0082210Y0180793D01*
X0082204Y0180738D01*
X0082202Y0180683D01*
X0082202Y0179875D01*
X0082202Y0180481D02*
X0082200Y0180543D01*
X0082194Y0180605D01*
X0082185Y0180667D01*
X0082171Y0180727D01*
X0082154Y0180787D01*
X0082134Y0180846D01*
X0082110Y0180903D01*
X0082082Y0180959D01*
X0082051Y0181013D01*
X0082016Y0181065D01*
X0081979Y0181114D01*
X0081938Y0181161D01*
X0081895Y0181206D01*
X0081849Y0181248D01*
X0081801Y0181287D01*
X0081750Y0181323D01*
X0081697Y0181356D01*
X0081642Y0181385D01*
X0081586Y0181411D01*
X0081528Y0181434D01*
X0081468Y0181452D01*
X0081408Y0181468D01*
X0081347Y0181479D01*
X0081285Y0181487D01*
X0081223Y0181491D01*
X0081161Y0181491D01*
X0081099Y0181487D01*
X0081037Y0181479D01*
X0080976Y0181468D01*
X0080916Y0181452D01*
X0080856Y0181434D01*
X0080798Y0181411D01*
X0080742Y0181385D01*
X0080687Y0181356D01*
X0080634Y0181323D01*
X0080583Y0181287D01*
X0080535Y0181248D01*
X0080489Y0181206D01*
X0080446Y0181161D01*
X0080405Y0181114D01*
X0080368Y0181065D01*
X0080333Y0181013D01*
X0080302Y0180959D01*
X0080274Y0180903D01*
X0080250Y0180846D01*
X0080230Y0180787D01*
X0080213Y0180727D01*
X0080199Y0180667D01*
X0080190Y0180605D01*
X0080184Y0180543D01*
X0080182Y0180481D01*
X0080181Y0180481D02*
X0080181Y0179471D01*
X0080181Y0178125D02*
X0080181Y0177317D01*
X0080182Y0177317D02*
X0080184Y0177262D01*
X0080190Y0177207D01*
X0080199Y0177153D01*
X0080212Y0177099D01*
X0080229Y0177046D01*
X0080249Y0176995D01*
X0080273Y0176945D01*
X0080300Y0176897D01*
X0080330Y0176851D01*
X0080363Y0176807D01*
X0080399Y0176765D01*
X0080438Y0176726D01*
X0080480Y0176690D01*
X0080524Y0176657D01*
X0080570Y0176627D01*
X0080618Y0176600D01*
X0080668Y0176576D01*
X0080719Y0176556D01*
X0080772Y0176539D01*
X0080826Y0176526D01*
X0080880Y0176517D01*
X0080935Y0176511D01*
X0080990Y0176509D01*
X0240479Y0117990D02*
X0242500Y0117990D01*
X0241692Y0120819D01*
X0241085Y0118798D02*
X0241085Y0117181D01*
X0244000Y0117181D02*
X0244808Y0118798D01*
X0245011Y0118798D02*
X0246021Y0118798D01*
X0245011Y0118798D02*
X0244949Y0118800D01*
X0244887Y0118806D01*
X0244825Y0118815D01*
X0244765Y0118829D01*
X0244705Y0118846D01*
X0244646Y0118866D01*
X0244589Y0118890D01*
X0244533Y0118918D01*
X0244479Y0118949D01*
X0244427Y0118984D01*
X0244378Y0119021D01*
X0244331Y0119062D01*
X0244286Y0119105D01*
X0244244Y0119151D01*
X0244205Y0119199D01*
X0244169Y0119250D01*
X0244136Y0119303D01*
X0244107Y0119358D01*
X0244081Y0119414D01*
X0244058Y0119472D01*
X0244040Y0119532D01*
X0244024Y0119592D01*
X0244013Y0119653D01*
X0244005Y0119715D01*
X0244001Y0119777D01*
X0244001Y0119839D01*
X0244005Y0119901D01*
X0244013Y0119963D01*
X0244024Y0120024D01*
X0244040Y0120084D01*
X0244058Y0120144D01*
X0244081Y0120202D01*
X0244107Y0120258D01*
X0244136Y0120313D01*
X0244169Y0120366D01*
X0244205Y0120417D01*
X0244244Y0120465D01*
X0244286Y0120511D01*
X0244331Y0120554D01*
X0244378Y0120595D01*
X0244427Y0120632D01*
X0244479Y0120667D01*
X0244533Y0120698D01*
X0244589Y0120726D01*
X0244646Y0120750D01*
X0244705Y0120770D01*
X0244765Y0120787D01*
X0244825Y0120801D01*
X0244887Y0120810D01*
X0244949Y0120816D01*
X0245011Y0120818D01*
X0245011Y0120819D02*
X0246021Y0120819D01*
X0246021Y0117181D01*
X0244933Y0110819D02*
X0244125Y0110819D01*
X0244933Y0110818D02*
X0244988Y0110816D01*
X0245043Y0110810D01*
X0245097Y0110801D01*
X0245151Y0110788D01*
X0245204Y0110771D01*
X0245255Y0110751D01*
X0245305Y0110727D01*
X0245353Y0110700D01*
X0245399Y0110670D01*
X0245443Y0110637D01*
X0245485Y0110601D01*
X0245524Y0110562D01*
X0245560Y0110520D01*
X0245593Y0110476D01*
X0245623Y0110430D01*
X0245650Y0110382D01*
X0245674Y0110332D01*
X0245694Y0110281D01*
X0245711Y0110228D01*
X0245724Y0110174D01*
X0245733Y0110120D01*
X0245739Y0110065D01*
X0245741Y0110010D01*
X0245742Y0110010D02*
X0245742Y0107990D01*
X0245741Y0107990D02*
X0245739Y0107935D01*
X0245733Y0107880D01*
X0245724Y0107826D01*
X0245711Y0107772D01*
X0245694Y0107719D01*
X0245674Y0107668D01*
X0245650Y0107618D01*
X0245623Y0107570D01*
X0245593Y0107524D01*
X0245560Y0107480D01*
X0245524Y0107438D01*
X0245485Y0107399D01*
X0245443Y0107363D01*
X0245399Y0107330D01*
X0245353Y0107300D01*
X0245305Y0107273D01*
X0245255Y0107249D01*
X0245204Y0107229D01*
X0245151Y0107212D01*
X0245097Y0107199D01*
X0245043Y0107190D01*
X0244988Y0107184D01*
X0244933Y0107182D01*
X0244933Y0107181D02*
X0244125Y0107181D01*
X0242779Y0107990D02*
X0240758Y0107990D01*
X0241365Y0108798D02*
X0241365Y0107181D01*
X0242779Y0107990D02*
X0241971Y0110819D01*
X0253692Y0105521D02*
X0253894Y0105521D01*
X0253949Y0105519D01*
X0254004Y0105513D01*
X0254058Y0105504D01*
X0254112Y0105491D01*
X0254165Y0105474D01*
X0254216Y0105454D01*
X0254266Y0105430D01*
X0254314Y0105403D01*
X0254360Y0105373D01*
X0254404Y0105340D01*
X0254446Y0105304D01*
X0254485Y0105265D01*
X0254521Y0105223D01*
X0254554Y0105179D01*
X0254584Y0105133D01*
X0254611Y0105085D01*
X0254635Y0105035D01*
X0254655Y0104984D01*
X0254672Y0104931D01*
X0254685Y0104877D01*
X0254694Y0104823D01*
X0254700Y0104768D01*
X0254702Y0104713D01*
X0254702Y0103500D01*
X0253692Y0103500D01*
X0253692Y0103501D02*
X0253630Y0103503D01*
X0253568Y0103509D01*
X0253506Y0103518D01*
X0253446Y0103532D01*
X0253386Y0103549D01*
X0253327Y0103569D01*
X0253270Y0103593D01*
X0253214Y0103621D01*
X0253160Y0103652D01*
X0253108Y0103687D01*
X0253059Y0103724D01*
X0253012Y0103765D01*
X0252967Y0103808D01*
X0252925Y0103854D01*
X0252886Y0103902D01*
X0252850Y0103953D01*
X0252817Y0104006D01*
X0252788Y0104061D01*
X0252762Y0104117D01*
X0252739Y0104175D01*
X0252721Y0104235D01*
X0252705Y0104295D01*
X0252694Y0104356D01*
X0252686Y0104418D01*
X0252682Y0104480D01*
X0252682Y0104542D01*
X0252686Y0104604D01*
X0252694Y0104666D01*
X0252705Y0104727D01*
X0252721Y0104787D01*
X0252739Y0104847D01*
X0252762Y0104905D01*
X0252788Y0104961D01*
X0252817Y0105016D01*
X0252850Y0105069D01*
X0252886Y0105120D01*
X0252925Y0105168D01*
X0252967Y0105214D01*
X0253012Y0105257D01*
X0253059Y0105298D01*
X0253108Y0105335D01*
X0253160Y0105370D01*
X0253214Y0105401D01*
X0253270Y0105429D01*
X0253327Y0105453D01*
X0253386Y0105473D01*
X0253446Y0105490D01*
X0253506Y0105504D01*
X0253568Y0105513D01*
X0253630Y0105519D01*
X0253692Y0105521D01*
X0254702Y0103501D02*
X0254781Y0103503D01*
X0254860Y0103509D01*
X0254939Y0103518D01*
X0255017Y0103532D01*
X0255095Y0103549D01*
X0255171Y0103571D01*
X0255246Y0103595D01*
X0255320Y0103624D01*
X0255393Y0103656D01*
X0255464Y0103692D01*
X0255533Y0103731D01*
X0255600Y0103773D01*
X0255665Y0103819D01*
X0255727Y0103868D01*
X0255787Y0103920D01*
X0255845Y0103974D01*
X0255899Y0104032D01*
X0255951Y0104092D01*
X0256000Y0104154D01*
X0256046Y0104219D01*
X0256088Y0104286D01*
X0256127Y0104355D01*
X0256163Y0104426D01*
X0256195Y0104499D01*
X0256224Y0104573D01*
X0256248Y0104648D01*
X0256270Y0104724D01*
X0256287Y0104802D01*
X0256301Y0104880D01*
X0256310Y0104959D01*
X0256316Y0105038D01*
X0256318Y0105117D01*
X0256319Y0100989D02*
X0256319Y0099979D01*
X0252681Y0099979D01*
X0254298Y0099979D02*
X0254298Y0100989D01*
X0254298Y0101192D02*
X0252681Y0102000D01*
X0254298Y0100989D02*
X0254300Y0101051D01*
X0254306Y0101113D01*
X0254315Y0101175D01*
X0254329Y0101235D01*
X0254346Y0101295D01*
X0254366Y0101354D01*
X0254390Y0101411D01*
X0254418Y0101467D01*
X0254449Y0101521D01*
X0254484Y0101573D01*
X0254521Y0101622D01*
X0254562Y0101669D01*
X0254605Y0101714D01*
X0254651Y0101756D01*
X0254699Y0101795D01*
X0254750Y0101831D01*
X0254803Y0101864D01*
X0254858Y0101893D01*
X0254914Y0101919D01*
X0254972Y0101942D01*
X0255032Y0101960D01*
X0255092Y0101976D01*
X0255153Y0101987D01*
X0255215Y0101995D01*
X0255277Y0101999D01*
X0255339Y0101999D01*
X0255401Y0101995D01*
X0255463Y0101987D01*
X0255524Y0101976D01*
X0255584Y0101960D01*
X0255644Y0101942D01*
X0255702Y0101919D01*
X0255758Y0101893D01*
X0255813Y0101864D01*
X0255866Y0101831D01*
X0255917Y0101795D01*
X0255965Y0101756D01*
X0256011Y0101714D01*
X0256054Y0101669D01*
X0256095Y0101622D01*
X0256132Y0101573D01*
X0256167Y0101521D01*
X0256198Y0101467D01*
X0256226Y0101411D01*
X0256250Y0101354D01*
X0256270Y0101295D01*
X0256287Y0101235D01*
X0256301Y0101175D01*
X0256310Y0101113D01*
X0256316Y0101051D01*
X0256318Y0100989D01*
X0251021Y0068319D02*
X0250011Y0068319D01*
X0251021Y0068319D02*
X0251021Y0064681D01*
X0251021Y0066298D02*
X0250011Y0066298D01*
X0249808Y0066298D02*
X0249000Y0064681D01*
X0247096Y0064682D02*
X0247017Y0064684D01*
X0246938Y0064690D01*
X0246859Y0064699D01*
X0246781Y0064713D01*
X0246703Y0064730D01*
X0246627Y0064752D01*
X0246552Y0064776D01*
X0246478Y0064805D01*
X0246405Y0064837D01*
X0246334Y0064873D01*
X0246265Y0064912D01*
X0246198Y0064954D01*
X0246133Y0065000D01*
X0246071Y0065049D01*
X0246011Y0065101D01*
X0245953Y0065155D01*
X0245899Y0065213D01*
X0245847Y0065273D01*
X0245798Y0065335D01*
X0245752Y0065400D01*
X0245710Y0065467D01*
X0245671Y0065536D01*
X0245635Y0065607D01*
X0245603Y0065680D01*
X0245574Y0065754D01*
X0245550Y0065829D01*
X0245528Y0065905D01*
X0245511Y0065983D01*
X0245497Y0066061D01*
X0245488Y0066140D01*
X0245482Y0066219D01*
X0245480Y0066298D01*
X0245479Y0066298D02*
X0245479Y0067308D01*
X0245479Y0066298D02*
X0246692Y0066298D01*
X0246747Y0066300D01*
X0246802Y0066306D01*
X0246856Y0066315D01*
X0246910Y0066328D01*
X0246963Y0066345D01*
X0247014Y0066365D01*
X0247064Y0066389D01*
X0247112Y0066416D01*
X0247158Y0066446D01*
X0247202Y0066479D01*
X0247244Y0066515D01*
X0247283Y0066555D01*
X0247319Y0066596D01*
X0247352Y0066640D01*
X0247382Y0066686D01*
X0247409Y0066734D01*
X0247433Y0066784D01*
X0247453Y0066835D01*
X0247470Y0066888D01*
X0247483Y0066942D01*
X0247492Y0066996D01*
X0247498Y0067051D01*
X0247500Y0067106D01*
X0247500Y0067308D01*
X0247499Y0067308D02*
X0247497Y0067370D01*
X0247491Y0067432D01*
X0247482Y0067494D01*
X0247468Y0067554D01*
X0247451Y0067614D01*
X0247431Y0067673D01*
X0247407Y0067730D01*
X0247379Y0067786D01*
X0247348Y0067840D01*
X0247313Y0067892D01*
X0247276Y0067941D01*
X0247235Y0067988D01*
X0247192Y0068033D01*
X0247146Y0068075D01*
X0247098Y0068114D01*
X0247047Y0068150D01*
X0246994Y0068183D01*
X0246939Y0068212D01*
X0246883Y0068238D01*
X0246825Y0068261D01*
X0246765Y0068279D01*
X0246705Y0068295D01*
X0246644Y0068306D01*
X0246582Y0068314D01*
X0246520Y0068318D01*
X0246458Y0068318D01*
X0246396Y0068314D01*
X0246334Y0068306D01*
X0246273Y0068295D01*
X0246213Y0068279D01*
X0246153Y0068261D01*
X0246095Y0068238D01*
X0246039Y0068212D01*
X0245984Y0068183D01*
X0245931Y0068150D01*
X0245880Y0068114D01*
X0245832Y0068075D01*
X0245786Y0068033D01*
X0245743Y0067988D01*
X0245702Y0067941D01*
X0245665Y0067892D01*
X0245630Y0067840D01*
X0245599Y0067786D01*
X0245571Y0067730D01*
X0245547Y0067673D01*
X0245527Y0067614D01*
X0245510Y0067554D01*
X0245496Y0067494D01*
X0245487Y0067432D01*
X0245481Y0067370D01*
X0245479Y0067308D01*
X0250011Y0068318D02*
X0249949Y0068316D01*
X0249887Y0068310D01*
X0249825Y0068301D01*
X0249765Y0068287D01*
X0249705Y0068270D01*
X0249646Y0068250D01*
X0249589Y0068226D01*
X0249533Y0068198D01*
X0249479Y0068167D01*
X0249427Y0068132D01*
X0249378Y0068095D01*
X0249331Y0068054D01*
X0249286Y0068011D01*
X0249244Y0067965D01*
X0249205Y0067917D01*
X0249169Y0067866D01*
X0249136Y0067813D01*
X0249107Y0067758D01*
X0249081Y0067702D01*
X0249058Y0067644D01*
X0249040Y0067584D01*
X0249024Y0067524D01*
X0249013Y0067463D01*
X0249005Y0067401D01*
X0249001Y0067339D01*
X0249001Y0067277D01*
X0249005Y0067215D01*
X0249013Y0067153D01*
X0249024Y0067092D01*
X0249040Y0067032D01*
X0249058Y0066972D01*
X0249081Y0066914D01*
X0249107Y0066858D01*
X0249136Y0066803D01*
X0249169Y0066750D01*
X0249205Y0066699D01*
X0249244Y0066651D01*
X0249286Y0066605D01*
X0249331Y0066562D01*
X0249378Y0066521D01*
X0249427Y0066484D01*
X0249479Y0066449D01*
X0249533Y0066418D01*
X0249589Y0066390D01*
X0249646Y0066366D01*
X0249705Y0066346D01*
X0249765Y0066329D01*
X0249825Y0066315D01*
X0249887Y0066306D01*
X0249949Y0066300D01*
X0250011Y0066298D01*
X0203010Y0040039D02*
X0202955Y0040037D01*
X0202900Y0040031D01*
X0202846Y0040022D01*
X0202792Y0040009D01*
X0202739Y0039992D01*
X0202688Y0039972D01*
X0202638Y0039948D01*
X0202590Y0039921D01*
X0202544Y0039891D01*
X0202500Y0039858D01*
X0202458Y0039822D01*
X0202419Y0039783D01*
X0202383Y0039741D01*
X0202350Y0039697D01*
X0202320Y0039651D01*
X0202293Y0039603D01*
X0202269Y0039553D01*
X0202249Y0039502D01*
X0202232Y0039449D01*
X0202219Y0039395D01*
X0202210Y0039341D01*
X0202204Y0039286D01*
X0202202Y0039231D01*
X0202204Y0039176D01*
X0202210Y0039121D01*
X0202219Y0039067D01*
X0202232Y0039013D01*
X0202249Y0038960D01*
X0202269Y0038909D01*
X0202293Y0038859D01*
X0202320Y0038811D01*
X0202350Y0038765D01*
X0202383Y0038721D01*
X0202419Y0038679D01*
X0202458Y0038640D01*
X0202500Y0038604D01*
X0202544Y0038571D01*
X0202590Y0038541D01*
X0202638Y0038514D01*
X0202688Y0038490D01*
X0202739Y0038470D01*
X0202792Y0038453D01*
X0202846Y0038440D01*
X0202900Y0038431D01*
X0202955Y0038425D01*
X0203010Y0038423D01*
X0203065Y0038425D01*
X0203120Y0038431D01*
X0203174Y0038440D01*
X0203228Y0038453D01*
X0203281Y0038470D01*
X0203332Y0038490D01*
X0203382Y0038514D01*
X0203430Y0038541D01*
X0203476Y0038571D01*
X0203520Y0038604D01*
X0203562Y0038640D01*
X0203601Y0038679D01*
X0203637Y0038721D01*
X0203670Y0038765D01*
X0203700Y0038811D01*
X0203727Y0038859D01*
X0203751Y0038909D01*
X0203771Y0038960D01*
X0203788Y0039013D01*
X0203801Y0039067D01*
X0203810Y0039121D01*
X0203816Y0039176D01*
X0203818Y0039231D01*
X0203816Y0039286D01*
X0203810Y0039341D01*
X0203801Y0039395D01*
X0203788Y0039449D01*
X0203771Y0039502D01*
X0203751Y0039553D01*
X0203727Y0039603D01*
X0203700Y0039651D01*
X0203670Y0039697D01*
X0203637Y0039741D01*
X0203601Y0039783D01*
X0203562Y0039822D01*
X0203520Y0039858D01*
X0203476Y0039891D01*
X0203430Y0039921D01*
X0203382Y0039948D01*
X0203332Y0039972D01*
X0203281Y0039992D01*
X0203228Y0040009D01*
X0203174Y0040022D01*
X0203120Y0040031D01*
X0203065Y0040037D01*
X0203010Y0040039D01*
X0201192Y0040241D02*
X0201130Y0040239D01*
X0201068Y0040233D01*
X0201006Y0040224D01*
X0200946Y0040210D01*
X0200886Y0040193D01*
X0200827Y0040173D01*
X0200770Y0040149D01*
X0200714Y0040121D01*
X0200660Y0040090D01*
X0200608Y0040055D01*
X0200559Y0040018D01*
X0200512Y0039977D01*
X0200467Y0039934D01*
X0200425Y0039888D01*
X0200386Y0039840D01*
X0200350Y0039789D01*
X0200317Y0039736D01*
X0200288Y0039681D01*
X0200262Y0039625D01*
X0200239Y0039567D01*
X0200221Y0039507D01*
X0200205Y0039447D01*
X0200194Y0039386D01*
X0200186Y0039324D01*
X0200182Y0039262D01*
X0200182Y0039200D01*
X0200186Y0039138D01*
X0200194Y0039076D01*
X0200205Y0039015D01*
X0200221Y0038955D01*
X0200239Y0038895D01*
X0200262Y0038837D01*
X0200288Y0038781D01*
X0200317Y0038726D01*
X0200350Y0038673D01*
X0200386Y0038622D01*
X0200425Y0038574D01*
X0200467Y0038528D01*
X0200512Y0038485D01*
X0200559Y0038444D01*
X0200608Y0038407D01*
X0200660Y0038372D01*
X0200714Y0038341D01*
X0200770Y0038313D01*
X0200827Y0038289D01*
X0200886Y0038269D01*
X0200946Y0038252D01*
X0201006Y0038238D01*
X0201068Y0038229D01*
X0201130Y0038223D01*
X0201192Y0038221D01*
X0201254Y0038223D01*
X0201316Y0038229D01*
X0201378Y0038238D01*
X0201438Y0038252D01*
X0201498Y0038269D01*
X0201557Y0038289D01*
X0201614Y0038313D01*
X0201670Y0038341D01*
X0201724Y0038372D01*
X0201776Y0038407D01*
X0201825Y0038444D01*
X0201872Y0038485D01*
X0201917Y0038528D01*
X0201959Y0038574D01*
X0201998Y0038622D01*
X0202034Y0038673D01*
X0202067Y0038726D01*
X0202096Y0038781D01*
X0202122Y0038837D01*
X0202145Y0038895D01*
X0202163Y0038955D01*
X0202179Y0039015D01*
X0202190Y0039076D01*
X0202198Y0039138D01*
X0202202Y0039200D01*
X0202202Y0039262D01*
X0202198Y0039324D01*
X0202190Y0039386D01*
X0202179Y0039447D01*
X0202163Y0039507D01*
X0202145Y0039567D01*
X0202122Y0039625D01*
X0202096Y0039681D01*
X0202067Y0039736D01*
X0202034Y0039789D01*
X0201998Y0039840D01*
X0201959Y0039888D01*
X0201917Y0039934D01*
X0201872Y0039977D01*
X0201825Y0040018D01*
X0201776Y0040055D01*
X0201724Y0040090D01*
X0201670Y0040121D01*
X0201614Y0040149D01*
X0201557Y0040173D01*
X0201498Y0040193D01*
X0201438Y0040210D01*
X0201378Y0040224D01*
X0201316Y0040233D01*
X0201254Y0040239D01*
X0201192Y0040241D01*
X0200181Y0036875D02*
X0200181Y0036067D01*
X0200182Y0036067D02*
X0200184Y0036012D01*
X0200190Y0035957D01*
X0200199Y0035903D01*
X0200212Y0035849D01*
X0200229Y0035796D01*
X0200249Y0035745D01*
X0200273Y0035695D01*
X0200300Y0035647D01*
X0200330Y0035601D01*
X0200363Y0035557D01*
X0200399Y0035515D01*
X0200438Y0035476D01*
X0200480Y0035440D01*
X0200524Y0035407D01*
X0200570Y0035377D01*
X0200618Y0035350D01*
X0200668Y0035326D01*
X0200719Y0035306D01*
X0200772Y0035289D01*
X0200826Y0035276D01*
X0200880Y0035267D01*
X0200935Y0035261D01*
X0200990Y0035259D01*
X0200990Y0035258D02*
X0203010Y0035258D01*
X0203010Y0035259D02*
X0203065Y0035261D01*
X0203120Y0035267D01*
X0203174Y0035276D01*
X0203228Y0035289D01*
X0203281Y0035306D01*
X0203332Y0035326D01*
X0203382Y0035350D01*
X0203430Y0035377D01*
X0203476Y0035407D01*
X0203520Y0035440D01*
X0203561Y0035476D01*
X0203601Y0035515D01*
X0203637Y0035557D01*
X0203670Y0035601D01*
X0203700Y0035647D01*
X0203727Y0035695D01*
X0203751Y0035745D01*
X0203771Y0035796D01*
X0203788Y0035849D01*
X0203801Y0035903D01*
X0203810Y0035957D01*
X0203816Y0036012D01*
X0203818Y0036067D01*
X0203819Y0036067D02*
X0203819Y0036875D01*
X0193819Y0036875D02*
X0193819Y0036067D01*
X0193818Y0036067D02*
X0193816Y0036012D01*
X0193810Y0035957D01*
X0193801Y0035903D01*
X0193788Y0035849D01*
X0193771Y0035796D01*
X0193751Y0035745D01*
X0193727Y0035695D01*
X0193700Y0035647D01*
X0193670Y0035601D01*
X0193637Y0035557D01*
X0193601Y0035515D01*
X0193561Y0035476D01*
X0193520Y0035440D01*
X0193476Y0035407D01*
X0193430Y0035377D01*
X0193382Y0035350D01*
X0193332Y0035326D01*
X0193281Y0035306D01*
X0193228Y0035289D01*
X0193174Y0035276D01*
X0193120Y0035267D01*
X0193065Y0035261D01*
X0193010Y0035259D01*
X0193010Y0035258D02*
X0190990Y0035258D01*
X0190990Y0035259D02*
X0190935Y0035261D01*
X0190880Y0035267D01*
X0190826Y0035276D01*
X0190772Y0035289D01*
X0190719Y0035306D01*
X0190668Y0035326D01*
X0190618Y0035350D01*
X0190570Y0035377D01*
X0190524Y0035407D01*
X0190480Y0035440D01*
X0190438Y0035476D01*
X0190399Y0035515D01*
X0190363Y0035557D01*
X0190330Y0035601D01*
X0190300Y0035647D01*
X0190273Y0035695D01*
X0190249Y0035745D01*
X0190229Y0035796D01*
X0190212Y0035849D01*
X0190199Y0035903D01*
X0190190Y0035957D01*
X0190184Y0036012D01*
X0190182Y0036067D01*
X0190181Y0036067D02*
X0190181Y0036875D01*
X0190182Y0038625D02*
X0190184Y0038704D01*
X0190190Y0038783D01*
X0190199Y0038862D01*
X0190213Y0038940D01*
X0190230Y0039018D01*
X0190252Y0039094D01*
X0190276Y0039169D01*
X0190305Y0039243D01*
X0190337Y0039316D01*
X0190373Y0039387D01*
X0190412Y0039456D01*
X0190454Y0039523D01*
X0190500Y0039588D01*
X0190549Y0039650D01*
X0190601Y0039710D01*
X0190655Y0039768D01*
X0190713Y0039822D01*
X0190773Y0039874D01*
X0190835Y0039923D01*
X0190900Y0039969D01*
X0190967Y0040011D01*
X0191036Y0040050D01*
X0191107Y0040086D01*
X0191180Y0040118D01*
X0191254Y0040147D01*
X0191329Y0040171D01*
X0191405Y0040193D01*
X0191483Y0040210D01*
X0191561Y0040224D01*
X0191640Y0040233D01*
X0191719Y0040239D01*
X0191798Y0040241D01*
X0191798Y0040242D02*
X0192808Y0040242D01*
X0191798Y0040242D02*
X0191798Y0039029D01*
X0191800Y0038974D01*
X0191806Y0038919D01*
X0191815Y0038865D01*
X0191828Y0038811D01*
X0191845Y0038758D01*
X0191865Y0038707D01*
X0191889Y0038657D01*
X0191916Y0038609D01*
X0191946Y0038563D01*
X0191979Y0038519D01*
X0192015Y0038477D01*
X0192055Y0038438D01*
X0192096Y0038402D01*
X0192140Y0038369D01*
X0192186Y0038339D01*
X0192234Y0038312D01*
X0192284Y0038288D01*
X0192335Y0038268D01*
X0192388Y0038251D01*
X0192442Y0038238D01*
X0192496Y0038229D01*
X0192551Y0038223D01*
X0192606Y0038221D01*
X0192808Y0038221D01*
X0192870Y0038223D01*
X0192932Y0038229D01*
X0192994Y0038238D01*
X0193054Y0038252D01*
X0193114Y0038269D01*
X0193173Y0038289D01*
X0193230Y0038313D01*
X0193286Y0038341D01*
X0193340Y0038372D01*
X0193392Y0038407D01*
X0193441Y0038444D01*
X0193488Y0038485D01*
X0193533Y0038528D01*
X0193575Y0038574D01*
X0193614Y0038622D01*
X0193650Y0038673D01*
X0193683Y0038726D01*
X0193712Y0038781D01*
X0193738Y0038837D01*
X0193761Y0038895D01*
X0193779Y0038955D01*
X0193795Y0039015D01*
X0193806Y0039076D01*
X0193814Y0039138D01*
X0193818Y0039200D01*
X0193818Y0039262D01*
X0193814Y0039324D01*
X0193806Y0039386D01*
X0193795Y0039447D01*
X0193779Y0039507D01*
X0193761Y0039567D01*
X0193738Y0039625D01*
X0193712Y0039681D01*
X0193683Y0039736D01*
X0193650Y0039789D01*
X0193614Y0039840D01*
X0193575Y0039888D01*
X0193533Y0039934D01*
X0193488Y0039977D01*
X0193441Y0040018D01*
X0193392Y0040055D01*
X0193340Y0040090D01*
X0193286Y0040121D01*
X0193230Y0040149D01*
X0193173Y0040173D01*
X0193114Y0040193D01*
X0193054Y0040210D01*
X0192994Y0040224D01*
X0192932Y0040233D01*
X0192870Y0040239D01*
X0192808Y0040241D01*
D12*
X0169150Y0109913D02*
X0162850Y0109913D01*
X0162850Y0124087D02*
X0169150Y0124087D01*
M02*
