%
M48
M72
T01C0.01378
T02C0.03937
T03C0.05200
T04C0.12598
%
T01
X180750Y91500
X188750Y96500
X183000Y102750
X172776Y112276
X173026Y121724
X183250Y136500
X190750Y126500
X203250Y113250
X203250Y109555
X198250Y104000
X213250Y104000
X219500Y110250
X222000Y112750
X222000Y120250
X224500Y126500
X224500Y134000
X214224Y145250
X220750Y152750
X220750Y164000
X201626Y176500
X197000Y172750
X181250Y166500
X183250Y159000
X186933Y152701
X182000Y149000
X178250Y152750
X165750Y156500
X152000Y155260
X138250Y155250
X133250Y152683
X140750Y146500
X133250Y165250
X138250Y166500
X149500Y177750
X159500Y177750
X170750Y176500
X118250Y137750
X98250Y136500
X88250Y146250
X92000Y154750
X110750Y165260
X242000Y117846
X247000Y121500
X254500Y124000
X247000Y106500
X254500Y105250
X249500Y66500
X224500Y66500
X218250Y65250
X202000Y60250
X208250Y45250
X185750Y45250
X185750Y65250
T02
X121000Y209000
X131000Y209000
X141000Y209000
X151000Y209000
X161000Y209000
X171000Y209000
X181000Y209000
X191000Y209000
X207000Y209000
X217000Y209000
X227000Y209000
X237000Y209000
X247000Y209000
X257000Y209000
X267000Y209000
X277000Y209000
X277000Y119000
X277000Y109000
X277000Y62750
X277000Y52750
X277000Y19000
X267000Y19000
X257000Y19000
X247000Y19000
X237000Y19000
X227000Y19000
X207000Y19000
X197000Y19000
X187000Y19000
X177000Y19000
X167000Y19000
X157000Y19000
T03
X277000Y87750
X247000Y184000
X237000Y184000
X227000Y184000
X199500Y192750
X178250Y192750
X159500Y192750
X144500Y192750
T04
X87000Y209000
X287000Y149000
X82000Y19000
M30
