G75*
%MOIN*%
%OFA0B0*%
%FSLAX25Y25*%
%IPPOS*%
%LPD*%
%AMOC8*
5,1,8,0,0,1.08239X$1,22.5*
%
%ADD10C,0.00000*%
%ADD11OC8,0.06600*%
%ADD12R,0.09843X0.09843*%
%ADD13R,0.02953X0.01181*%
%ADD14R,0.01181X0.02953*%
%ADD15R,0.04331X0.02362*%
%ADD16R,0.04921X0.02362*%
%ADD17R,0.14921X0.04724*%
%ADD18R,0.02362X0.03937*%
%ADD19R,0.05512X0.05709*%
%ADD20R,0.03346X0.03740*%
%ADD21R,0.02600X0.08000*%
%ADD22R,0.06102X0.09449*%
%ADD23R,0.02559X0.01378*%
%ADD24R,0.03346X0.00984*%
%ADD25R,0.07874X0.09843*%
%ADD26R,0.00984X0.03346*%
%ADD27R,0.02165X0.08445*%
%ADD28R,0.08445X0.02165*%
%ADD29R,0.07900X0.04300*%
%ADD30C,0.05906*%
%ADD31R,0.04724X0.01575*%
%ADD32C,0.07800*%
%ADD33OC8,0.08500*%
%ADD34R,0.05906X0.05906*%
%ADD35C,0.01000*%
%ADD36C,0.02559*%
D10*
X0027000Y0009000D02*
X0027000Y0219000D01*
X0281000Y0219000D01*
X0287000Y0213000D01*
X0287000Y0168000D01*
X0297000Y0158000D01*
X0297000Y0029000D01*
X0287000Y0019000D01*
X0287000Y0009000D01*
X0027000Y0009000D01*
X0075701Y0019000D02*
X0075703Y0019158D01*
X0075709Y0019316D01*
X0075719Y0019474D01*
X0075733Y0019632D01*
X0075751Y0019789D01*
X0075772Y0019946D01*
X0075798Y0020102D01*
X0075828Y0020258D01*
X0075861Y0020413D01*
X0075899Y0020566D01*
X0075940Y0020719D01*
X0075985Y0020871D01*
X0076034Y0021022D01*
X0076087Y0021171D01*
X0076143Y0021319D01*
X0076203Y0021465D01*
X0076267Y0021610D01*
X0076335Y0021753D01*
X0076406Y0021895D01*
X0076480Y0022035D01*
X0076558Y0022172D01*
X0076640Y0022308D01*
X0076724Y0022442D01*
X0076813Y0022573D01*
X0076904Y0022702D01*
X0076999Y0022829D01*
X0077096Y0022954D01*
X0077197Y0023076D01*
X0077301Y0023195D01*
X0077408Y0023312D01*
X0077518Y0023426D01*
X0077631Y0023537D01*
X0077746Y0023646D01*
X0077864Y0023751D01*
X0077985Y0023853D01*
X0078108Y0023953D01*
X0078234Y0024049D01*
X0078362Y0024142D01*
X0078492Y0024232D01*
X0078625Y0024318D01*
X0078760Y0024402D01*
X0078896Y0024481D01*
X0079035Y0024558D01*
X0079176Y0024630D01*
X0079318Y0024700D01*
X0079462Y0024765D01*
X0079608Y0024827D01*
X0079755Y0024885D01*
X0079904Y0024940D01*
X0080054Y0024991D01*
X0080205Y0025038D01*
X0080357Y0025081D01*
X0080510Y0025120D01*
X0080665Y0025156D01*
X0080820Y0025187D01*
X0080976Y0025215D01*
X0081132Y0025239D01*
X0081289Y0025259D01*
X0081447Y0025275D01*
X0081604Y0025287D01*
X0081763Y0025295D01*
X0081921Y0025299D01*
X0082079Y0025299D01*
X0082237Y0025295D01*
X0082396Y0025287D01*
X0082553Y0025275D01*
X0082711Y0025259D01*
X0082868Y0025239D01*
X0083024Y0025215D01*
X0083180Y0025187D01*
X0083335Y0025156D01*
X0083490Y0025120D01*
X0083643Y0025081D01*
X0083795Y0025038D01*
X0083946Y0024991D01*
X0084096Y0024940D01*
X0084245Y0024885D01*
X0084392Y0024827D01*
X0084538Y0024765D01*
X0084682Y0024700D01*
X0084824Y0024630D01*
X0084965Y0024558D01*
X0085104Y0024481D01*
X0085240Y0024402D01*
X0085375Y0024318D01*
X0085508Y0024232D01*
X0085638Y0024142D01*
X0085766Y0024049D01*
X0085892Y0023953D01*
X0086015Y0023853D01*
X0086136Y0023751D01*
X0086254Y0023646D01*
X0086369Y0023537D01*
X0086482Y0023426D01*
X0086592Y0023312D01*
X0086699Y0023195D01*
X0086803Y0023076D01*
X0086904Y0022954D01*
X0087001Y0022829D01*
X0087096Y0022702D01*
X0087187Y0022573D01*
X0087276Y0022442D01*
X0087360Y0022308D01*
X0087442Y0022172D01*
X0087520Y0022035D01*
X0087594Y0021895D01*
X0087665Y0021753D01*
X0087733Y0021610D01*
X0087797Y0021465D01*
X0087857Y0021319D01*
X0087913Y0021171D01*
X0087966Y0021022D01*
X0088015Y0020871D01*
X0088060Y0020719D01*
X0088101Y0020566D01*
X0088139Y0020413D01*
X0088172Y0020258D01*
X0088202Y0020102D01*
X0088228Y0019946D01*
X0088249Y0019789D01*
X0088267Y0019632D01*
X0088281Y0019474D01*
X0088291Y0019316D01*
X0088297Y0019158D01*
X0088299Y0019000D01*
X0088297Y0018842D01*
X0088291Y0018684D01*
X0088281Y0018526D01*
X0088267Y0018368D01*
X0088249Y0018211D01*
X0088228Y0018054D01*
X0088202Y0017898D01*
X0088172Y0017742D01*
X0088139Y0017587D01*
X0088101Y0017434D01*
X0088060Y0017281D01*
X0088015Y0017129D01*
X0087966Y0016978D01*
X0087913Y0016829D01*
X0087857Y0016681D01*
X0087797Y0016535D01*
X0087733Y0016390D01*
X0087665Y0016247D01*
X0087594Y0016105D01*
X0087520Y0015965D01*
X0087442Y0015828D01*
X0087360Y0015692D01*
X0087276Y0015558D01*
X0087187Y0015427D01*
X0087096Y0015298D01*
X0087001Y0015171D01*
X0086904Y0015046D01*
X0086803Y0014924D01*
X0086699Y0014805D01*
X0086592Y0014688D01*
X0086482Y0014574D01*
X0086369Y0014463D01*
X0086254Y0014354D01*
X0086136Y0014249D01*
X0086015Y0014147D01*
X0085892Y0014047D01*
X0085766Y0013951D01*
X0085638Y0013858D01*
X0085508Y0013768D01*
X0085375Y0013682D01*
X0085240Y0013598D01*
X0085104Y0013519D01*
X0084965Y0013442D01*
X0084824Y0013370D01*
X0084682Y0013300D01*
X0084538Y0013235D01*
X0084392Y0013173D01*
X0084245Y0013115D01*
X0084096Y0013060D01*
X0083946Y0013009D01*
X0083795Y0012962D01*
X0083643Y0012919D01*
X0083490Y0012880D01*
X0083335Y0012844D01*
X0083180Y0012813D01*
X0083024Y0012785D01*
X0082868Y0012761D01*
X0082711Y0012741D01*
X0082553Y0012725D01*
X0082396Y0012713D01*
X0082237Y0012705D01*
X0082079Y0012701D01*
X0081921Y0012701D01*
X0081763Y0012705D01*
X0081604Y0012713D01*
X0081447Y0012725D01*
X0081289Y0012741D01*
X0081132Y0012761D01*
X0080976Y0012785D01*
X0080820Y0012813D01*
X0080665Y0012844D01*
X0080510Y0012880D01*
X0080357Y0012919D01*
X0080205Y0012962D01*
X0080054Y0013009D01*
X0079904Y0013060D01*
X0079755Y0013115D01*
X0079608Y0013173D01*
X0079462Y0013235D01*
X0079318Y0013300D01*
X0079176Y0013370D01*
X0079035Y0013442D01*
X0078896Y0013519D01*
X0078760Y0013598D01*
X0078625Y0013682D01*
X0078492Y0013768D01*
X0078362Y0013858D01*
X0078234Y0013951D01*
X0078108Y0014047D01*
X0077985Y0014147D01*
X0077864Y0014249D01*
X0077746Y0014354D01*
X0077631Y0014463D01*
X0077518Y0014574D01*
X0077408Y0014688D01*
X0077301Y0014805D01*
X0077197Y0014924D01*
X0077096Y0015046D01*
X0076999Y0015171D01*
X0076904Y0015298D01*
X0076813Y0015427D01*
X0076724Y0015558D01*
X0076640Y0015692D01*
X0076558Y0015828D01*
X0076480Y0015965D01*
X0076406Y0016105D01*
X0076335Y0016247D01*
X0076267Y0016390D01*
X0076203Y0016535D01*
X0076143Y0016681D01*
X0076087Y0016829D01*
X0076034Y0016978D01*
X0075985Y0017129D01*
X0075940Y0017281D01*
X0075899Y0017434D01*
X0075861Y0017587D01*
X0075828Y0017742D01*
X0075798Y0017898D01*
X0075772Y0018054D01*
X0075751Y0018211D01*
X0075733Y0018368D01*
X0075719Y0018526D01*
X0075709Y0018684D01*
X0075703Y0018842D01*
X0075701Y0019000D01*
X0280701Y0149000D02*
X0280703Y0149158D01*
X0280709Y0149316D01*
X0280719Y0149474D01*
X0280733Y0149632D01*
X0280751Y0149789D01*
X0280772Y0149946D01*
X0280798Y0150102D01*
X0280828Y0150258D01*
X0280861Y0150413D01*
X0280899Y0150566D01*
X0280940Y0150719D01*
X0280985Y0150871D01*
X0281034Y0151022D01*
X0281087Y0151171D01*
X0281143Y0151319D01*
X0281203Y0151465D01*
X0281267Y0151610D01*
X0281335Y0151753D01*
X0281406Y0151895D01*
X0281480Y0152035D01*
X0281558Y0152172D01*
X0281640Y0152308D01*
X0281724Y0152442D01*
X0281813Y0152573D01*
X0281904Y0152702D01*
X0281999Y0152829D01*
X0282096Y0152954D01*
X0282197Y0153076D01*
X0282301Y0153195D01*
X0282408Y0153312D01*
X0282518Y0153426D01*
X0282631Y0153537D01*
X0282746Y0153646D01*
X0282864Y0153751D01*
X0282985Y0153853D01*
X0283108Y0153953D01*
X0283234Y0154049D01*
X0283362Y0154142D01*
X0283492Y0154232D01*
X0283625Y0154318D01*
X0283760Y0154402D01*
X0283896Y0154481D01*
X0284035Y0154558D01*
X0284176Y0154630D01*
X0284318Y0154700D01*
X0284462Y0154765D01*
X0284608Y0154827D01*
X0284755Y0154885D01*
X0284904Y0154940D01*
X0285054Y0154991D01*
X0285205Y0155038D01*
X0285357Y0155081D01*
X0285510Y0155120D01*
X0285665Y0155156D01*
X0285820Y0155187D01*
X0285976Y0155215D01*
X0286132Y0155239D01*
X0286289Y0155259D01*
X0286447Y0155275D01*
X0286604Y0155287D01*
X0286763Y0155295D01*
X0286921Y0155299D01*
X0287079Y0155299D01*
X0287237Y0155295D01*
X0287396Y0155287D01*
X0287553Y0155275D01*
X0287711Y0155259D01*
X0287868Y0155239D01*
X0288024Y0155215D01*
X0288180Y0155187D01*
X0288335Y0155156D01*
X0288490Y0155120D01*
X0288643Y0155081D01*
X0288795Y0155038D01*
X0288946Y0154991D01*
X0289096Y0154940D01*
X0289245Y0154885D01*
X0289392Y0154827D01*
X0289538Y0154765D01*
X0289682Y0154700D01*
X0289824Y0154630D01*
X0289965Y0154558D01*
X0290104Y0154481D01*
X0290240Y0154402D01*
X0290375Y0154318D01*
X0290508Y0154232D01*
X0290638Y0154142D01*
X0290766Y0154049D01*
X0290892Y0153953D01*
X0291015Y0153853D01*
X0291136Y0153751D01*
X0291254Y0153646D01*
X0291369Y0153537D01*
X0291482Y0153426D01*
X0291592Y0153312D01*
X0291699Y0153195D01*
X0291803Y0153076D01*
X0291904Y0152954D01*
X0292001Y0152829D01*
X0292096Y0152702D01*
X0292187Y0152573D01*
X0292276Y0152442D01*
X0292360Y0152308D01*
X0292442Y0152172D01*
X0292520Y0152035D01*
X0292594Y0151895D01*
X0292665Y0151753D01*
X0292733Y0151610D01*
X0292797Y0151465D01*
X0292857Y0151319D01*
X0292913Y0151171D01*
X0292966Y0151022D01*
X0293015Y0150871D01*
X0293060Y0150719D01*
X0293101Y0150566D01*
X0293139Y0150413D01*
X0293172Y0150258D01*
X0293202Y0150102D01*
X0293228Y0149946D01*
X0293249Y0149789D01*
X0293267Y0149632D01*
X0293281Y0149474D01*
X0293291Y0149316D01*
X0293297Y0149158D01*
X0293299Y0149000D01*
X0293297Y0148842D01*
X0293291Y0148684D01*
X0293281Y0148526D01*
X0293267Y0148368D01*
X0293249Y0148211D01*
X0293228Y0148054D01*
X0293202Y0147898D01*
X0293172Y0147742D01*
X0293139Y0147587D01*
X0293101Y0147434D01*
X0293060Y0147281D01*
X0293015Y0147129D01*
X0292966Y0146978D01*
X0292913Y0146829D01*
X0292857Y0146681D01*
X0292797Y0146535D01*
X0292733Y0146390D01*
X0292665Y0146247D01*
X0292594Y0146105D01*
X0292520Y0145965D01*
X0292442Y0145828D01*
X0292360Y0145692D01*
X0292276Y0145558D01*
X0292187Y0145427D01*
X0292096Y0145298D01*
X0292001Y0145171D01*
X0291904Y0145046D01*
X0291803Y0144924D01*
X0291699Y0144805D01*
X0291592Y0144688D01*
X0291482Y0144574D01*
X0291369Y0144463D01*
X0291254Y0144354D01*
X0291136Y0144249D01*
X0291015Y0144147D01*
X0290892Y0144047D01*
X0290766Y0143951D01*
X0290638Y0143858D01*
X0290508Y0143768D01*
X0290375Y0143682D01*
X0290240Y0143598D01*
X0290104Y0143519D01*
X0289965Y0143442D01*
X0289824Y0143370D01*
X0289682Y0143300D01*
X0289538Y0143235D01*
X0289392Y0143173D01*
X0289245Y0143115D01*
X0289096Y0143060D01*
X0288946Y0143009D01*
X0288795Y0142962D01*
X0288643Y0142919D01*
X0288490Y0142880D01*
X0288335Y0142844D01*
X0288180Y0142813D01*
X0288024Y0142785D01*
X0287868Y0142761D01*
X0287711Y0142741D01*
X0287553Y0142725D01*
X0287396Y0142713D01*
X0287237Y0142705D01*
X0287079Y0142701D01*
X0286921Y0142701D01*
X0286763Y0142705D01*
X0286604Y0142713D01*
X0286447Y0142725D01*
X0286289Y0142741D01*
X0286132Y0142761D01*
X0285976Y0142785D01*
X0285820Y0142813D01*
X0285665Y0142844D01*
X0285510Y0142880D01*
X0285357Y0142919D01*
X0285205Y0142962D01*
X0285054Y0143009D01*
X0284904Y0143060D01*
X0284755Y0143115D01*
X0284608Y0143173D01*
X0284462Y0143235D01*
X0284318Y0143300D01*
X0284176Y0143370D01*
X0284035Y0143442D01*
X0283896Y0143519D01*
X0283760Y0143598D01*
X0283625Y0143682D01*
X0283492Y0143768D01*
X0283362Y0143858D01*
X0283234Y0143951D01*
X0283108Y0144047D01*
X0282985Y0144147D01*
X0282864Y0144249D01*
X0282746Y0144354D01*
X0282631Y0144463D01*
X0282518Y0144574D01*
X0282408Y0144688D01*
X0282301Y0144805D01*
X0282197Y0144924D01*
X0282096Y0145046D01*
X0281999Y0145171D01*
X0281904Y0145298D01*
X0281813Y0145427D01*
X0281724Y0145558D01*
X0281640Y0145692D01*
X0281558Y0145828D01*
X0281480Y0145965D01*
X0281406Y0146105D01*
X0281335Y0146247D01*
X0281267Y0146390D01*
X0281203Y0146535D01*
X0281143Y0146681D01*
X0281087Y0146829D01*
X0281034Y0146978D01*
X0280985Y0147129D01*
X0280940Y0147281D01*
X0280899Y0147434D01*
X0280861Y0147587D01*
X0280828Y0147742D01*
X0280798Y0147898D01*
X0280772Y0148054D01*
X0280751Y0148211D01*
X0280733Y0148368D01*
X0280719Y0148526D01*
X0280709Y0148684D01*
X0280703Y0148842D01*
X0280701Y0149000D01*
X0080701Y0209000D02*
X0080703Y0209158D01*
X0080709Y0209316D01*
X0080719Y0209474D01*
X0080733Y0209632D01*
X0080751Y0209789D01*
X0080772Y0209946D01*
X0080798Y0210102D01*
X0080828Y0210258D01*
X0080861Y0210413D01*
X0080899Y0210566D01*
X0080940Y0210719D01*
X0080985Y0210871D01*
X0081034Y0211022D01*
X0081087Y0211171D01*
X0081143Y0211319D01*
X0081203Y0211465D01*
X0081267Y0211610D01*
X0081335Y0211753D01*
X0081406Y0211895D01*
X0081480Y0212035D01*
X0081558Y0212172D01*
X0081640Y0212308D01*
X0081724Y0212442D01*
X0081813Y0212573D01*
X0081904Y0212702D01*
X0081999Y0212829D01*
X0082096Y0212954D01*
X0082197Y0213076D01*
X0082301Y0213195D01*
X0082408Y0213312D01*
X0082518Y0213426D01*
X0082631Y0213537D01*
X0082746Y0213646D01*
X0082864Y0213751D01*
X0082985Y0213853D01*
X0083108Y0213953D01*
X0083234Y0214049D01*
X0083362Y0214142D01*
X0083492Y0214232D01*
X0083625Y0214318D01*
X0083760Y0214402D01*
X0083896Y0214481D01*
X0084035Y0214558D01*
X0084176Y0214630D01*
X0084318Y0214700D01*
X0084462Y0214765D01*
X0084608Y0214827D01*
X0084755Y0214885D01*
X0084904Y0214940D01*
X0085054Y0214991D01*
X0085205Y0215038D01*
X0085357Y0215081D01*
X0085510Y0215120D01*
X0085665Y0215156D01*
X0085820Y0215187D01*
X0085976Y0215215D01*
X0086132Y0215239D01*
X0086289Y0215259D01*
X0086447Y0215275D01*
X0086604Y0215287D01*
X0086763Y0215295D01*
X0086921Y0215299D01*
X0087079Y0215299D01*
X0087237Y0215295D01*
X0087396Y0215287D01*
X0087553Y0215275D01*
X0087711Y0215259D01*
X0087868Y0215239D01*
X0088024Y0215215D01*
X0088180Y0215187D01*
X0088335Y0215156D01*
X0088490Y0215120D01*
X0088643Y0215081D01*
X0088795Y0215038D01*
X0088946Y0214991D01*
X0089096Y0214940D01*
X0089245Y0214885D01*
X0089392Y0214827D01*
X0089538Y0214765D01*
X0089682Y0214700D01*
X0089824Y0214630D01*
X0089965Y0214558D01*
X0090104Y0214481D01*
X0090240Y0214402D01*
X0090375Y0214318D01*
X0090508Y0214232D01*
X0090638Y0214142D01*
X0090766Y0214049D01*
X0090892Y0213953D01*
X0091015Y0213853D01*
X0091136Y0213751D01*
X0091254Y0213646D01*
X0091369Y0213537D01*
X0091482Y0213426D01*
X0091592Y0213312D01*
X0091699Y0213195D01*
X0091803Y0213076D01*
X0091904Y0212954D01*
X0092001Y0212829D01*
X0092096Y0212702D01*
X0092187Y0212573D01*
X0092276Y0212442D01*
X0092360Y0212308D01*
X0092442Y0212172D01*
X0092520Y0212035D01*
X0092594Y0211895D01*
X0092665Y0211753D01*
X0092733Y0211610D01*
X0092797Y0211465D01*
X0092857Y0211319D01*
X0092913Y0211171D01*
X0092966Y0211022D01*
X0093015Y0210871D01*
X0093060Y0210719D01*
X0093101Y0210566D01*
X0093139Y0210413D01*
X0093172Y0210258D01*
X0093202Y0210102D01*
X0093228Y0209946D01*
X0093249Y0209789D01*
X0093267Y0209632D01*
X0093281Y0209474D01*
X0093291Y0209316D01*
X0093297Y0209158D01*
X0093299Y0209000D01*
X0093297Y0208842D01*
X0093291Y0208684D01*
X0093281Y0208526D01*
X0093267Y0208368D01*
X0093249Y0208211D01*
X0093228Y0208054D01*
X0093202Y0207898D01*
X0093172Y0207742D01*
X0093139Y0207587D01*
X0093101Y0207434D01*
X0093060Y0207281D01*
X0093015Y0207129D01*
X0092966Y0206978D01*
X0092913Y0206829D01*
X0092857Y0206681D01*
X0092797Y0206535D01*
X0092733Y0206390D01*
X0092665Y0206247D01*
X0092594Y0206105D01*
X0092520Y0205965D01*
X0092442Y0205828D01*
X0092360Y0205692D01*
X0092276Y0205558D01*
X0092187Y0205427D01*
X0092096Y0205298D01*
X0092001Y0205171D01*
X0091904Y0205046D01*
X0091803Y0204924D01*
X0091699Y0204805D01*
X0091592Y0204688D01*
X0091482Y0204574D01*
X0091369Y0204463D01*
X0091254Y0204354D01*
X0091136Y0204249D01*
X0091015Y0204147D01*
X0090892Y0204047D01*
X0090766Y0203951D01*
X0090638Y0203858D01*
X0090508Y0203768D01*
X0090375Y0203682D01*
X0090240Y0203598D01*
X0090104Y0203519D01*
X0089965Y0203442D01*
X0089824Y0203370D01*
X0089682Y0203300D01*
X0089538Y0203235D01*
X0089392Y0203173D01*
X0089245Y0203115D01*
X0089096Y0203060D01*
X0088946Y0203009D01*
X0088795Y0202962D01*
X0088643Y0202919D01*
X0088490Y0202880D01*
X0088335Y0202844D01*
X0088180Y0202813D01*
X0088024Y0202785D01*
X0087868Y0202761D01*
X0087711Y0202741D01*
X0087553Y0202725D01*
X0087396Y0202713D01*
X0087237Y0202705D01*
X0087079Y0202701D01*
X0086921Y0202701D01*
X0086763Y0202705D01*
X0086604Y0202713D01*
X0086447Y0202725D01*
X0086289Y0202741D01*
X0086132Y0202761D01*
X0085976Y0202785D01*
X0085820Y0202813D01*
X0085665Y0202844D01*
X0085510Y0202880D01*
X0085357Y0202919D01*
X0085205Y0202962D01*
X0085054Y0203009D01*
X0084904Y0203060D01*
X0084755Y0203115D01*
X0084608Y0203173D01*
X0084462Y0203235D01*
X0084318Y0203300D01*
X0084176Y0203370D01*
X0084035Y0203442D01*
X0083896Y0203519D01*
X0083760Y0203598D01*
X0083625Y0203682D01*
X0083492Y0203768D01*
X0083362Y0203858D01*
X0083234Y0203951D01*
X0083108Y0204047D01*
X0082985Y0204147D01*
X0082864Y0204249D01*
X0082746Y0204354D01*
X0082631Y0204463D01*
X0082518Y0204574D01*
X0082408Y0204688D01*
X0082301Y0204805D01*
X0082197Y0204924D01*
X0082096Y0205046D01*
X0081999Y0205171D01*
X0081904Y0205298D01*
X0081813Y0205427D01*
X0081724Y0205558D01*
X0081640Y0205692D01*
X0081558Y0205828D01*
X0081480Y0205965D01*
X0081406Y0206105D01*
X0081335Y0206247D01*
X0081267Y0206390D01*
X0081203Y0206535D01*
X0081143Y0206681D01*
X0081087Y0206829D01*
X0081034Y0206978D01*
X0080985Y0207129D01*
X0080940Y0207281D01*
X0080899Y0207434D01*
X0080861Y0207587D01*
X0080828Y0207742D01*
X0080798Y0207898D01*
X0080772Y0208054D01*
X0080751Y0208211D01*
X0080733Y0208368D01*
X0080719Y0208526D01*
X0080709Y0208684D01*
X0080703Y0208842D01*
X0080701Y0209000D01*
D11*
X0121000Y0209000D03*
X0131000Y0209000D03*
X0141000Y0209000D03*
X0151000Y0209000D03*
X0161000Y0209000D03*
X0171000Y0209000D03*
X0181000Y0209000D03*
X0191000Y0209000D03*
X0207000Y0209000D03*
X0217000Y0209000D03*
X0227000Y0209000D03*
X0237000Y0209000D03*
X0247000Y0209000D03*
X0257000Y0209000D03*
X0267000Y0209000D03*
X0277000Y0209000D03*
X0277000Y0019000D03*
X0267000Y0019000D03*
X0257000Y0019000D03*
X0247000Y0019000D03*
X0237000Y0019000D03*
X0227000Y0019000D03*
X0207000Y0019000D03*
X0197000Y0019000D03*
X0187000Y0019000D03*
X0177000Y0019000D03*
X0167000Y0019000D03*
X0157000Y0019000D03*
D12*
X0190750Y0114000D03*
X0190750Y0114000D03*
D13*
X0182876Y0114000D03*
X0182876Y0112031D03*
X0182876Y0110063D03*
X0182876Y0115969D03*
X0182876Y0117937D03*
X0198624Y0117937D03*
X0198624Y0115969D03*
X0198624Y0114000D03*
X0198624Y0112031D03*
X0198624Y0110063D03*
D14*
X0194687Y0106126D03*
X0192719Y0106126D03*
X0190750Y0106126D03*
X0188781Y0106126D03*
X0186813Y0106126D03*
X0186813Y0121874D03*
X0188781Y0121874D03*
X0190750Y0121874D03*
X0192719Y0121874D03*
X0194687Y0121874D03*
D15*
X0191488Y0072543D03*
X0191488Y0065063D03*
X0202512Y0065063D03*
X0202512Y0068803D03*
X0202512Y0072543D03*
X0202512Y0052543D03*
X0202512Y0048803D03*
X0202512Y0045063D03*
X0191488Y0045063D03*
X0191488Y0052543D03*
D16*
X0099520Y0141795D03*
X0099520Y0146126D03*
X0099520Y0150457D03*
X0099520Y0154787D03*
X0099520Y0159118D03*
X0099520Y0163449D03*
X0099520Y0167780D03*
X0099520Y0172110D03*
D17*
X0087000Y0176638D03*
D18*
X0085071Y0137661D03*
D19*
X0089992Y0138449D03*
D20*
X0081252Y0140024D03*
D21*
X0144500Y0146900D03*
X0149500Y0146900D03*
X0154500Y0146900D03*
X0159500Y0146900D03*
X0159500Y0171100D03*
X0154500Y0171100D03*
X0149500Y0171100D03*
X0144500Y0171100D03*
D22*
X0232000Y0114000D03*
D23*
X0225898Y0112720D03*
X0225898Y0110161D03*
X0225898Y0115280D03*
X0225898Y0117839D03*
X0238102Y0117839D03*
X0238102Y0115280D03*
X0238102Y0112720D03*
X0238102Y0110161D03*
D24*
X0128890Y0154079D03*
X0128890Y0156047D03*
X0128890Y0158016D03*
X0128890Y0159984D03*
X0128890Y0161953D03*
X0128890Y0163921D03*
X0115110Y0163921D03*
X0115110Y0161953D03*
X0115110Y0159984D03*
X0115110Y0158016D03*
X0115110Y0156047D03*
X0115110Y0154079D03*
D25*
X0122000Y0159000D03*
D26*
X0119047Y0151520D03*
X0124953Y0151520D03*
X0124953Y0166480D03*
X0119047Y0166480D03*
D27*
X0201626Y0165299D03*
X0204776Y0165299D03*
X0207925Y0165299D03*
X0211075Y0165299D03*
X0214224Y0165299D03*
X0217374Y0165299D03*
X0217374Y0152701D03*
X0214224Y0152701D03*
X0211075Y0152701D03*
X0207925Y0152701D03*
X0204776Y0152701D03*
X0201626Y0152701D03*
D28*
X0199264Y0159000D03*
X0219736Y0159000D03*
D29*
X0219300Y0052750D03*
X0254700Y0052750D03*
D30*
X0274047Y0052750D02*
X0279953Y0052750D01*
X0279953Y0062750D02*
X0274047Y0062750D01*
X0274047Y0109000D02*
X0279953Y0109000D01*
X0279953Y0119000D02*
X0274047Y0119000D01*
D31*
X0178043Y0156441D03*
X0178043Y0159000D03*
X0178043Y0161559D03*
X0170957Y0161559D03*
X0170957Y0156441D03*
D32*
X0227000Y0180100D02*
X0227000Y0187900D01*
X0237000Y0187900D02*
X0237000Y0180100D01*
X0247000Y0180100D02*
X0247000Y0187900D01*
X0273100Y0087750D02*
X0280900Y0087750D01*
D33*
X0199500Y0192750D03*
X0178250Y0192750D03*
X0159500Y0192750D03*
X0144500Y0192750D03*
D34*
X0230110Y0066500D03*
X0243890Y0066500D03*
D35*
X0024500Y0001500D02*
X0024500Y0222750D01*
X0303250Y0222750D01*
X0303250Y0001500D01*
X0024500Y0001500D01*
X0024500Y0002010D02*
X0303250Y0002010D01*
X0303250Y0003009D02*
X0024500Y0003009D01*
X0024500Y0004007D02*
X0303250Y0004007D01*
X0303250Y0005006D02*
X0024500Y0005006D01*
X0024500Y0006004D02*
X0303250Y0006004D01*
X0303250Y0007003D02*
X0024500Y0007003D01*
X0024500Y0008001D02*
X0303250Y0008001D01*
X0303250Y0009000D02*
X0024500Y0009000D01*
X0024500Y0009999D02*
X0303250Y0009999D01*
X0303250Y0010997D02*
X0024500Y0010997D01*
X0024500Y0011996D02*
X0303250Y0011996D01*
X0303250Y0012994D02*
X0085268Y0012994D01*
X0085851Y0013236D02*
X0083352Y0012201D01*
X0080648Y0012201D01*
X0078149Y0013236D01*
X0076236Y0015149D01*
X0075201Y0017648D01*
X0075201Y0020352D01*
X0076236Y0022851D01*
X0078149Y0024764D01*
X0080648Y0025799D01*
X0083352Y0025799D01*
X0085851Y0024764D01*
X0087764Y0022851D01*
X0088799Y0020352D01*
X0088799Y0017648D01*
X0087764Y0015149D01*
X0085851Y0013236D01*
X0086608Y0013993D02*
X0303250Y0013993D01*
X0303250Y0014991D02*
X0279479Y0014991D01*
X0278900Y0014413D02*
X0281587Y0017100D01*
X0281587Y0020900D01*
X0278900Y0023587D01*
X0275100Y0023587D01*
X0272413Y0020900D01*
X0272413Y0017100D01*
X0275100Y0014413D01*
X0278900Y0014413D01*
X0280477Y0015990D02*
X0303250Y0015990D01*
X0303250Y0016988D02*
X0281476Y0016988D01*
X0281587Y0017987D02*
X0303250Y0017987D01*
X0303250Y0018985D02*
X0281587Y0018985D01*
X0281587Y0019984D02*
X0303250Y0019984D01*
X0303250Y0020982D02*
X0281505Y0020982D01*
X0280507Y0021981D02*
X0303250Y0021981D01*
X0303250Y0022979D02*
X0279508Y0022979D01*
X0274492Y0022979D02*
X0269508Y0022979D01*
X0268900Y0023587D02*
X0265100Y0023587D01*
X0262413Y0020900D01*
X0262413Y0017100D01*
X0265100Y0014413D01*
X0268900Y0014413D01*
X0271587Y0017100D01*
X0271587Y0020900D01*
X0268900Y0023587D01*
X0270507Y0021981D02*
X0273493Y0021981D01*
X0272495Y0020982D02*
X0271505Y0020982D01*
X0271587Y0019984D02*
X0272413Y0019984D01*
X0272413Y0018985D02*
X0271587Y0018985D01*
X0271587Y0017987D02*
X0272413Y0017987D01*
X0272524Y0016988D02*
X0271476Y0016988D01*
X0270477Y0015990D02*
X0273523Y0015990D01*
X0274521Y0014991D02*
X0269479Y0014991D01*
X0264521Y0014991D02*
X0259479Y0014991D01*
X0258900Y0014413D02*
X0261587Y0017100D01*
X0261587Y0020900D01*
X0258900Y0023587D01*
X0255100Y0023587D01*
X0252413Y0020900D01*
X0252413Y0017100D01*
X0255100Y0014413D01*
X0258900Y0014413D01*
X0260477Y0015990D02*
X0263523Y0015990D01*
X0262524Y0016988D02*
X0261476Y0016988D01*
X0261587Y0017987D02*
X0262413Y0017987D01*
X0262413Y0018985D02*
X0261587Y0018985D01*
X0261587Y0019984D02*
X0262413Y0019984D01*
X0262495Y0020982D02*
X0261505Y0020982D01*
X0260507Y0021981D02*
X0263493Y0021981D01*
X0264492Y0022979D02*
X0259508Y0022979D01*
X0254492Y0022979D02*
X0249508Y0022979D01*
X0248900Y0023587D02*
X0245100Y0023587D01*
X0242413Y0020900D01*
X0242413Y0017100D01*
X0245100Y0014413D01*
X0248900Y0014413D01*
X0251587Y0017100D01*
X0251587Y0020900D01*
X0248900Y0023587D01*
X0250507Y0021981D02*
X0253493Y0021981D01*
X0252495Y0020982D02*
X0251505Y0020982D01*
X0251587Y0019984D02*
X0252413Y0019984D01*
X0252413Y0018985D02*
X0251587Y0018985D01*
X0251587Y0017987D02*
X0252413Y0017987D01*
X0252524Y0016988D02*
X0251476Y0016988D01*
X0250477Y0015990D02*
X0253523Y0015990D01*
X0254521Y0014991D02*
X0249479Y0014991D01*
X0244521Y0014991D02*
X0239479Y0014991D01*
X0238900Y0014413D02*
X0241587Y0017100D01*
X0241587Y0020900D01*
X0238900Y0023587D01*
X0235100Y0023587D01*
X0232413Y0020900D01*
X0232413Y0017100D01*
X0235100Y0014413D01*
X0238900Y0014413D01*
X0240477Y0015990D02*
X0243523Y0015990D01*
X0242524Y0016988D02*
X0241476Y0016988D01*
X0241587Y0017987D02*
X0242413Y0017987D01*
X0242413Y0018985D02*
X0241587Y0018985D01*
X0241587Y0019984D02*
X0242413Y0019984D01*
X0242495Y0020982D02*
X0241505Y0020982D01*
X0240507Y0021981D02*
X0243493Y0021981D01*
X0244492Y0022979D02*
X0239508Y0022979D01*
X0234492Y0022979D02*
X0229508Y0022979D01*
X0228900Y0023587D02*
X0228787Y0023587D01*
X0228787Y0043463D01*
X0239826Y0043463D01*
X0239958Y0043594D01*
X0240347Y0043755D01*
X0240533Y0043755D01*
X0241521Y0044744D01*
X0241580Y0044803D01*
X0247740Y0050963D01*
X0249463Y0050963D01*
X0249463Y0050067D01*
X0250217Y0049313D01*
X0259183Y0049313D01*
X0259937Y0050067D01*
X0259937Y0050963D01*
X0270198Y0050963D01*
X0270453Y0050348D01*
X0271645Y0049155D01*
X0273204Y0048510D01*
X0280796Y0048510D01*
X0282355Y0049155D01*
X0283547Y0050348D01*
X0284193Y0051907D01*
X0284193Y0053593D01*
X0283547Y0055152D01*
X0282355Y0056345D01*
X0280796Y0056990D01*
X0273204Y0056990D01*
X0271645Y0056345D01*
X0270453Y0055152D01*
X0270198Y0054537D01*
X0259937Y0054537D01*
X0259937Y0055433D01*
X0259183Y0056187D01*
X0250217Y0056187D01*
X0249463Y0055433D01*
X0249463Y0054537D01*
X0246260Y0054537D01*
X0238760Y0047037D01*
X0210093Y0047037D01*
X0209704Y0047426D01*
X0208761Y0047817D01*
X0207739Y0047817D01*
X0206796Y0047426D01*
X0206407Y0047037D01*
X0206072Y0047037D01*
X0206075Y0047043D01*
X0206177Y0047425D01*
X0206177Y0048713D01*
X0202602Y0048713D01*
X0202602Y0048894D01*
X0206177Y0048894D01*
X0206177Y0050182D01*
X0206075Y0050563D01*
X0205964Y0050756D01*
X0208990Y0050756D01*
X0210037Y0051803D01*
X0210037Y0063463D01*
X0216407Y0063463D01*
X0216796Y0063074D01*
X0217513Y0062777D01*
X0217513Y0056187D01*
X0214817Y0056187D01*
X0214063Y0055433D01*
X0214063Y0050067D01*
X0214817Y0049313D01*
X0223783Y0049313D01*
X0224537Y0050067D01*
X0224537Y0055433D01*
X0223783Y0056187D01*
X0221087Y0056187D01*
X0221087Y0064940D01*
X0220817Y0065211D01*
X0220817Y0065761D01*
X0220426Y0066704D01*
X0219704Y0067426D01*
X0218761Y0067817D01*
X0217739Y0067817D01*
X0216796Y0067426D01*
X0216407Y0067037D01*
X0210037Y0067037D01*
X0210037Y0073284D01*
X0208990Y0074331D01*
X0205892Y0074331D01*
X0205210Y0075012D01*
X0199813Y0075012D01*
X0199059Y0074258D01*
X0199059Y0070829D01*
X0199086Y0070802D01*
X0198949Y0070563D01*
X0198846Y0070182D01*
X0198846Y0068894D01*
X0202421Y0068894D01*
X0202421Y0068713D01*
X0198846Y0068713D01*
X0198846Y0067425D01*
X0198949Y0067043D01*
X0199086Y0066805D01*
X0199059Y0066777D01*
X0199059Y0063349D01*
X0199813Y0062594D01*
X0200213Y0062594D01*
X0200213Y0062093D01*
X0199824Y0061704D01*
X0199433Y0060761D01*
X0199433Y0059739D01*
X0199824Y0058796D01*
X0200546Y0058074D01*
X0201489Y0057683D01*
X0202511Y0057683D01*
X0203454Y0058074D01*
X0204176Y0058796D01*
X0204567Y0059739D01*
X0204567Y0060761D01*
X0204176Y0061704D01*
X0203787Y0062093D01*
X0203787Y0062594D01*
X0205210Y0062594D01*
X0205965Y0063349D01*
X0205965Y0066777D01*
X0205937Y0066805D01*
X0206075Y0067043D01*
X0206177Y0067425D01*
X0206177Y0068713D01*
X0202602Y0068713D01*
X0202602Y0068894D01*
X0206177Y0068894D01*
X0206177Y0070182D01*
X0206075Y0070563D01*
X0205964Y0070756D01*
X0206463Y0070756D01*
X0206463Y0054331D01*
X0205892Y0054331D01*
X0205210Y0055012D01*
X0199813Y0055012D01*
X0199059Y0054258D01*
X0199059Y0050829D01*
X0199086Y0050802D01*
X0198949Y0050563D01*
X0198846Y0050182D01*
X0198846Y0048894D01*
X0202421Y0048894D01*
X0202421Y0048713D01*
X0198846Y0048713D01*
X0198846Y0047425D01*
X0198949Y0047043D01*
X0199086Y0046805D01*
X0199059Y0046777D01*
X0199059Y0043349D01*
X0199813Y0042594D01*
X0205210Y0042594D01*
X0205965Y0043349D01*
X0205965Y0043463D01*
X0206407Y0043463D01*
X0206796Y0043074D01*
X0207739Y0042683D01*
X0208761Y0042683D01*
X0209704Y0043074D01*
X0210093Y0043463D01*
X0225213Y0043463D01*
X0225213Y0023587D01*
X0225100Y0023587D01*
X0222413Y0020900D01*
X0222413Y0017100D01*
X0225100Y0014413D01*
X0228900Y0014413D01*
X0231587Y0017100D01*
X0231587Y0020900D01*
X0228900Y0023587D01*
X0228787Y0023978D02*
X0303250Y0023978D01*
X0303250Y0024976D02*
X0228787Y0024976D01*
X0228787Y0025975D02*
X0303250Y0025975D01*
X0303250Y0026973D02*
X0228787Y0026973D01*
X0228787Y0027972D02*
X0303250Y0027972D01*
X0303250Y0028970D02*
X0228787Y0028970D01*
X0228787Y0029969D02*
X0303250Y0029969D01*
X0303250Y0030967D02*
X0228787Y0030967D01*
X0228787Y0031966D02*
X0303250Y0031966D01*
X0303250Y0032964D02*
X0228787Y0032964D01*
X0228787Y0033963D02*
X0303250Y0033963D01*
X0303250Y0034961D02*
X0228787Y0034961D01*
X0228787Y0035960D02*
X0303250Y0035960D01*
X0303250Y0036958D02*
X0228787Y0036958D01*
X0228787Y0037957D02*
X0303250Y0037957D01*
X0303250Y0038955D02*
X0228787Y0038955D01*
X0228787Y0039954D02*
X0303250Y0039954D01*
X0303250Y0040952D02*
X0228787Y0040952D01*
X0228787Y0041951D02*
X0303250Y0041951D01*
X0303250Y0042949D02*
X0228787Y0042949D01*
X0227000Y0045250D02*
X0239086Y0045250D01*
X0239793Y0045543D02*
X0247000Y0052750D01*
X0254700Y0052750D01*
X0277000Y0052750D01*
X0271231Y0055930D02*
X0259441Y0055930D01*
X0259937Y0054932D02*
X0270361Y0054932D01*
X0273055Y0056929D02*
X0221087Y0056929D01*
X0221087Y0057927D02*
X0303250Y0057927D01*
X0303250Y0056929D02*
X0280945Y0056929D01*
X0280995Y0058407D02*
X0281662Y0058623D01*
X0282287Y0058942D01*
X0282854Y0059354D01*
X0283349Y0059849D01*
X0283761Y0060416D01*
X0284079Y0061041D01*
X0284296Y0061707D01*
X0284384Y0062266D01*
X0277484Y0062266D01*
X0277484Y0058297D01*
X0280303Y0058297D01*
X0280995Y0058407D01*
X0282255Y0058926D02*
X0303250Y0058926D01*
X0303250Y0059924D02*
X0283403Y0059924D01*
X0284019Y0060923D02*
X0303250Y0060923D01*
X0303250Y0061921D02*
X0284330Y0061921D01*
X0284384Y0063234D02*
X0284296Y0063793D01*
X0284079Y0064459D01*
X0283761Y0065084D01*
X0283349Y0065651D01*
X0282854Y0066146D01*
X0282287Y0066558D01*
X0281662Y0066877D01*
X0280995Y0067093D01*
X0280303Y0067203D01*
X0277484Y0067203D01*
X0277484Y0063234D01*
X0276516Y0063234D01*
X0276516Y0062266D01*
X0277484Y0062266D01*
X0277484Y0063234D01*
X0284384Y0063234D01*
X0284255Y0063918D02*
X0303250Y0063918D01*
X0303250Y0062920D02*
X0277484Y0062920D01*
X0276516Y0062920D02*
X0248036Y0062920D01*
X0248130Y0063014D02*
X0248130Y0064289D01*
X0248989Y0063933D01*
X0250011Y0063933D01*
X0250954Y0064324D01*
X0251676Y0065046D01*
X0252067Y0065989D01*
X0252067Y0067011D01*
X0251676Y0067954D01*
X0250954Y0068676D01*
X0250011Y0069067D01*
X0248989Y0069067D01*
X0248130Y0068711D01*
X0248130Y0069986D01*
X0247376Y0070740D01*
X0240404Y0070740D01*
X0239650Y0069986D01*
X0239650Y0063014D01*
X0240404Y0062260D01*
X0247376Y0062260D01*
X0248130Y0063014D01*
X0248130Y0063918D02*
X0269745Y0063918D01*
X0269704Y0063793D02*
X0269921Y0064459D01*
X0270239Y0065084D01*
X0270651Y0065651D01*
X0271146Y0066146D01*
X0271713Y0066558D01*
X0272338Y0066877D01*
X0273005Y0067093D01*
X0273697Y0067203D01*
X0276516Y0067203D01*
X0276516Y0063234D01*
X0269616Y0063234D01*
X0269704Y0063793D01*
X0270154Y0064917D02*
X0251547Y0064917D01*
X0252036Y0065915D02*
X0270915Y0065915D01*
X0272452Y0066914D02*
X0252067Y0066914D01*
X0251693Y0067912D02*
X0303250Y0067912D01*
X0303250Y0066914D02*
X0281548Y0066914D01*
X0283085Y0065915D02*
X0303250Y0065915D01*
X0303250Y0064917D02*
X0283846Y0064917D01*
X0277484Y0064917D02*
X0276516Y0064917D01*
X0276516Y0065915D02*
X0277484Y0065915D01*
X0277484Y0066914D02*
X0276516Y0066914D01*
X0276516Y0063918D02*
X0277484Y0063918D01*
X0276516Y0062266D02*
X0269616Y0062266D01*
X0269704Y0061707D01*
X0269921Y0061041D01*
X0270239Y0060416D01*
X0270651Y0059849D01*
X0271146Y0059354D01*
X0271713Y0058942D01*
X0272338Y0058623D01*
X0273005Y0058407D01*
X0273697Y0058297D01*
X0276516Y0058297D01*
X0276516Y0062266D01*
X0276516Y0061921D02*
X0277484Y0061921D01*
X0277484Y0060923D02*
X0276516Y0060923D01*
X0276516Y0059924D02*
X0277484Y0059924D01*
X0277484Y0058926D02*
X0276516Y0058926D01*
X0271745Y0058926D02*
X0221087Y0058926D01*
X0221087Y0059924D02*
X0270596Y0059924D01*
X0269981Y0060923D02*
X0221087Y0060923D01*
X0221087Y0061921D02*
X0269670Y0061921D01*
X0265881Y0052750D02*
X0254700Y0052750D01*
X0249959Y0055930D02*
X0224041Y0055930D01*
X0224537Y0054932D02*
X0249463Y0054932D01*
X0245655Y0053933D02*
X0224537Y0053933D01*
X0224537Y0052934D02*
X0244657Y0052934D01*
X0243658Y0051936D02*
X0224537Y0051936D01*
X0224537Y0050937D02*
X0242660Y0050937D01*
X0241661Y0049939D02*
X0224410Y0049939D01*
X0227000Y0045250D02*
X0208250Y0045250D01*
X0202963Y0045250D01*
X0202512Y0045063D02*
X0202000Y0044551D01*
X0202512Y0045063D02*
X0202545Y0045094D01*
X0202581Y0045123D01*
X0202618Y0045149D01*
X0202657Y0045172D01*
X0202698Y0045192D01*
X0202740Y0045210D01*
X0202783Y0045224D01*
X0202827Y0045235D01*
X0202872Y0045244D01*
X0202917Y0045248D01*
X0202963Y0045250D01*
X0205565Y0042949D02*
X0207096Y0042949D01*
X0209404Y0042949D02*
X0225213Y0042949D01*
X0225213Y0041951D02*
X0178787Y0041951D01*
X0178787Y0042949D02*
X0184596Y0042949D01*
X0184296Y0043074D02*
X0185239Y0042683D01*
X0186261Y0042683D01*
X0187204Y0043074D01*
X0187593Y0043463D01*
X0188035Y0043463D01*
X0188035Y0043349D01*
X0188790Y0042594D01*
X0194187Y0042594D01*
X0194941Y0043349D01*
X0194941Y0046777D01*
X0194187Y0047531D01*
X0188790Y0047531D01*
X0188295Y0047037D01*
X0187593Y0047037D01*
X0187204Y0047426D01*
X0186261Y0047817D01*
X0185239Y0047817D01*
X0184296Y0047426D01*
X0183574Y0046704D01*
X0183183Y0045761D01*
X0183183Y0044739D01*
X0183574Y0043796D01*
X0184296Y0043074D01*
X0183511Y0043948D02*
X0178787Y0043948D01*
X0178787Y0044946D02*
X0183183Y0044946D01*
X0183259Y0045945D02*
X0178787Y0045945D01*
X0178787Y0046943D02*
X0183813Y0046943D01*
X0185750Y0045250D02*
X0191301Y0045250D01*
X0191488Y0045063D01*
X0194941Y0044946D02*
X0199059Y0044946D01*
X0199059Y0043948D02*
X0194941Y0043948D01*
X0194542Y0042949D02*
X0199458Y0042949D01*
X0199059Y0045945D02*
X0194941Y0045945D01*
X0194775Y0046943D02*
X0199006Y0046943D01*
X0198846Y0047942D02*
X0178787Y0047942D01*
X0178787Y0048940D02*
X0198846Y0048940D01*
X0198846Y0049939D02*
X0178787Y0049939D01*
X0178787Y0050937D02*
X0188035Y0050937D01*
X0188035Y0050829D02*
X0188790Y0050075D01*
X0194187Y0050075D01*
X0194941Y0050829D01*
X0194941Y0054258D01*
X0194187Y0055012D01*
X0188790Y0055012D01*
X0188035Y0054258D01*
X0188035Y0050829D01*
X0188035Y0051936D02*
X0178787Y0051936D01*
X0178787Y0052934D02*
X0188035Y0052934D01*
X0188035Y0053933D02*
X0178787Y0053933D01*
X0178787Y0054932D02*
X0188709Y0054932D01*
X0194267Y0054932D02*
X0199733Y0054932D01*
X0199059Y0053933D02*
X0194941Y0053933D01*
X0194941Y0052934D02*
X0199059Y0052934D01*
X0199059Y0051936D02*
X0194941Y0051936D01*
X0194941Y0050937D02*
X0199059Y0050937D01*
X0202512Y0052543D02*
X0208250Y0052543D01*
X0208250Y0065250D01*
X0218250Y0065250D01*
X0219300Y0064200D01*
X0219300Y0052750D01*
X0219093Y0052543D01*
X0214063Y0052934D02*
X0210037Y0052934D01*
X0210037Y0051936D02*
X0214063Y0051936D01*
X0214063Y0050937D02*
X0209172Y0050937D01*
X0206793Y0052543D02*
X0202512Y0052543D01*
X0205291Y0054932D02*
X0206463Y0054932D01*
X0206463Y0055930D02*
X0178958Y0055930D01*
X0178787Y0055760D02*
X0185711Y0062683D01*
X0186261Y0062683D01*
X0187204Y0063074D01*
X0187406Y0063276D01*
X0188108Y0063276D01*
X0188790Y0062594D01*
X0194187Y0062594D01*
X0194941Y0063349D01*
X0194941Y0066777D01*
X0194187Y0067531D01*
X0188790Y0067531D01*
X0188108Y0066850D01*
X0187780Y0066850D01*
X0187204Y0067426D01*
X0186261Y0067817D01*
X0185239Y0067817D01*
X0184296Y0067426D01*
X0183574Y0066704D01*
X0183183Y0065761D01*
X0183183Y0065211D01*
X0176260Y0058287D01*
X0176260Y0058287D01*
X0175213Y0057240D01*
X0175213Y0023587D01*
X0175100Y0023587D01*
X0172413Y0020900D01*
X0172413Y0017100D01*
X0175100Y0014413D01*
X0178900Y0014413D01*
X0181587Y0017100D01*
X0181587Y0020900D01*
X0178900Y0023587D01*
X0178787Y0023587D01*
X0178787Y0055760D01*
X0179956Y0056929D02*
X0206463Y0056929D01*
X0206463Y0057927D02*
X0203100Y0057927D01*
X0204230Y0058926D02*
X0206463Y0058926D01*
X0206463Y0059924D02*
X0204567Y0059924D01*
X0204500Y0060923D02*
X0206463Y0060923D01*
X0206463Y0061921D02*
X0203959Y0061921D01*
X0205536Y0062920D02*
X0206463Y0062920D01*
X0206463Y0063918D02*
X0205965Y0063918D01*
X0205965Y0064917D02*
X0206463Y0064917D01*
X0206463Y0065915D02*
X0205965Y0065915D01*
X0206000Y0066914D02*
X0206463Y0066914D01*
X0206463Y0067912D02*
X0206177Y0067912D01*
X0206177Y0068911D02*
X0206463Y0068911D01*
X0206463Y0069909D02*
X0206177Y0069909D01*
X0208250Y0072543D02*
X0202512Y0072543D01*
X0199059Y0072905D02*
X0194941Y0072905D01*
X0194941Y0073903D02*
X0199059Y0073903D01*
X0199703Y0074902D02*
X0194297Y0074902D01*
X0194187Y0075012D02*
X0188790Y0075012D01*
X0188035Y0074258D01*
X0188035Y0070829D01*
X0188790Y0070075D01*
X0194187Y0070075D01*
X0194941Y0070829D01*
X0194941Y0074258D01*
X0194187Y0075012D01*
X0194941Y0071906D02*
X0199059Y0071906D01*
X0199059Y0070908D02*
X0194941Y0070908D01*
X0194805Y0066914D02*
X0199023Y0066914D01*
X0199059Y0065915D02*
X0194941Y0065915D01*
X0194941Y0064917D02*
X0199059Y0064917D01*
X0199059Y0063918D02*
X0194941Y0063918D01*
X0194512Y0062920D02*
X0199488Y0062920D01*
X0200041Y0061921D02*
X0184949Y0061921D01*
X0183950Y0060923D02*
X0199500Y0060923D01*
X0199433Y0059924D02*
X0182952Y0059924D01*
X0181953Y0058926D02*
X0199770Y0058926D01*
X0200900Y0057927D02*
X0180955Y0057927D01*
X0177896Y0059924D02*
X0024500Y0059924D01*
X0024500Y0058926D02*
X0176898Y0058926D01*
X0175899Y0057927D02*
X0024500Y0057927D01*
X0024500Y0056929D02*
X0175213Y0056929D01*
X0175213Y0055930D02*
X0024500Y0055930D01*
X0024500Y0054932D02*
X0175213Y0054932D01*
X0175213Y0053933D02*
X0024500Y0053933D01*
X0024500Y0052934D02*
X0175213Y0052934D01*
X0175213Y0051936D02*
X0024500Y0051936D01*
X0024500Y0050937D02*
X0175213Y0050937D01*
X0175213Y0049939D02*
X0024500Y0049939D01*
X0024500Y0048940D02*
X0175213Y0048940D01*
X0175213Y0047942D02*
X0024500Y0047942D01*
X0024500Y0046943D02*
X0175213Y0046943D01*
X0175213Y0045945D02*
X0024500Y0045945D01*
X0024500Y0044946D02*
X0175213Y0044946D01*
X0175213Y0043948D02*
X0024500Y0043948D01*
X0024500Y0042949D02*
X0175213Y0042949D01*
X0175213Y0041951D02*
X0024500Y0041951D01*
X0024500Y0040952D02*
X0175213Y0040952D01*
X0175213Y0039954D02*
X0024500Y0039954D01*
X0024500Y0038955D02*
X0175213Y0038955D01*
X0175213Y0037957D02*
X0024500Y0037957D01*
X0024500Y0036958D02*
X0175213Y0036958D01*
X0175213Y0035960D02*
X0024500Y0035960D01*
X0024500Y0034961D02*
X0175213Y0034961D01*
X0175213Y0033963D02*
X0024500Y0033963D01*
X0024500Y0032964D02*
X0175213Y0032964D01*
X0175213Y0031966D02*
X0024500Y0031966D01*
X0024500Y0030967D02*
X0175213Y0030967D01*
X0175213Y0029969D02*
X0024500Y0029969D01*
X0024500Y0028970D02*
X0175213Y0028970D01*
X0175213Y0027972D02*
X0024500Y0027972D01*
X0024500Y0026973D02*
X0175213Y0026973D01*
X0175213Y0025975D02*
X0024500Y0025975D01*
X0024500Y0024976D02*
X0078661Y0024976D01*
X0077362Y0023978D02*
X0024500Y0023978D01*
X0024500Y0022979D02*
X0076364Y0022979D01*
X0075875Y0021981D02*
X0024500Y0021981D01*
X0024500Y0020982D02*
X0075462Y0020982D01*
X0075201Y0019984D02*
X0024500Y0019984D01*
X0024500Y0018985D02*
X0075201Y0018985D01*
X0075201Y0017987D02*
X0024500Y0017987D01*
X0024500Y0016988D02*
X0075474Y0016988D01*
X0075888Y0015990D02*
X0024500Y0015990D01*
X0024500Y0014991D02*
X0076393Y0014991D01*
X0077392Y0013993D02*
X0024500Y0013993D01*
X0024500Y0012994D02*
X0078732Y0012994D01*
X0087607Y0014991D02*
X0154521Y0014991D01*
X0155100Y0014413D02*
X0158900Y0014413D01*
X0161587Y0017100D01*
X0161587Y0020900D01*
X0158900Y0023587D01*
X0155100Y0023587D01*
X0152413Y0020900D01*
X0152413Y0017100D01*
X0155100Y0014413D01*
X0153523Y0015990D02*
X0088112Y0015990D01*
X0088526Y0016988D02*
X0152524Y0016988D01*
X0152413Y0017987D02*
X0088799Y0017987D01*
X0088799Y0018985D02*
X0152413Y0018985D01*
X0152413Y0019984D02*
X0088799Y0019984D01*
X0088538Y0020982D02*
X0152495Y0020982D01*
X0153493Y0021981D02*
X0088125Y0021981D01*
X0087636Y0022979D02*
X0154492Y0022979D01*
X0159508Y0022979D02*
X0164492Y0022979D01*
X0165100Y0023587D02*
X0162413Y0020900D01*
X0162413Y0017100D01*
X0165100Y0014413D01*
X0168900Y0014413D01*
X0171587Y0017100D01*
X0171587Y0020900D01*
X0168900Y0023587D01*
X0165100Y0023587D01*
X0163493Y0021981D02*
X0160507Y0021981D01*
X0161505Y0020982D02*
X0162495Y0020982D01*
X0162413Y0019984D02*
X0161587Y0019984D01*
X0161587Y0018985D02*
X0162413Y0018985D01*
X0162413Y0017987D02*
X0161587Y0017987D01*
X0161476Y0016988D02*
X0162524Y0016988D01*
X0163523Y0015990D02*
X0160477Y0015990D01*
X0159479Y0014991D02*
X0164521Y0014991D01*
X0169479Y0014991D02*
X0174521Y0014991D01*
X0173523Y0015990D02*
X0170477Y0015990D01*
X0171476Y0016988D02*
X0172524Y0016988D01*
X0172413Y0017987D02*
X0171587Y0017987D01*
X0171587Y0018985D02*
X0172413Y0018985D01*
X0172413Y0019984D02*
X0171587Y0019984D01*
X0171505Y0020982D02*
X0172495Y0020982D01*
X0173493Y0021981D02*
X0170507Y0021981D01*
X0169508Y0022979D02*
X0174492Y0022979D01*
X0175213Y0023978D02*
X0086638Y0023978D01*
X0085339Y0024976D02*
X0175213Y0024976D01*
X0178787Y0024976D02*
X0225213Y0024976D01*
X0225213Y0023978D02*
X0178787Y0023978D01*
X0179508Y0022979D02*
X0184191Y0022979D01*
X0185012Y0023800D02*
X0182200Y0020988D01*
X0182200Y0019484D01*
X0186516Y0019484D01*
X0186516Y0018516D01*
X0187484Y0018516D01*
X0187484Y0014200D01*
X0188988Y0014200D01*
X0191800Y0017012D01*
X0191800Y0018516D01*
X0187484Y0018516D01*
X0187484Y0019484D01*
X0191800Y0019484D01*
X0191800Y0020988D01*
X0188988Y0023800D01*
X0187484Y0023800D01*
X0187484Y0019484D01*
X0186516Y0019484D01*
X0186516Y0023800D01*
X0185012Y0023800D01*
X0186516Y0022979D02*
X0187484Y0022979D01*
X0187484Y0021981D02*
X0186516Y0021981D01*
X0186516Y0020982D02*
X0187484Y0020982D01*
X0187484Y0019984D02*
X0186516Y0019984D01*
X0186516Y0018985D02*
X0181587Y0018985D01*
X0182200Y0018516D02*
X0182200Y0017012D01*
X0185012Y0014200D01*
X0186516Y0014200D01*
X0186516Y0018516D01*
X0182200Y0018516D01*
X0182200Y0017987D02*
X0181587Y0017987D01*
X0181476Y0016988D02*
X0182224Y0016988D01*
X0183222Y0015990D02*
X0180477Y0015990D01*
X0179479Y0014991D02*
X0184221Y0014991D01*
X0186516Y0014991D02*
X0187484Y0014991D01*
X0187484Y0015990D02*
X0186516Y0015990D01*
X0186516Y0016988D02*
X0187484Y0016988D01*
X0187484Y0017987D02*
X0186516Y0017987D01*
X0187484Y0018985D02*
X0196516Y0018985D01*
X0196516Y0018516D02*
X0192200Y0018516D01*
X0192200Y0017012D01*
X0195012Y0014200D01*
X0196516Y0014200D01*
X0196516Y0018516D01*
X0197484Y0018516D01*
X0197484Y0014200D01*
X0198988Y0014200D01*
X0201800Y0017012D01*
X0201800Y0018516D01*
X0197484Y0018516D01*
X0197484Y0019484D01*
X0201800Y0019484D01*
X0201800Y0020988D01*
X0198988Y0023800D01*
X0197484Y0023800D01*
X0197484Y0019484D01*
X0196516Y0019484D01*
X0196516Y0018516D01*
X0196516Y0017987D02*
X0197484Y0017987D01*
X0197484Y0018985D02*
X0202413Y0018985D01*
X0202413Y0017987D02*
X0201800Y0017987D01*
X0201776Y0016988D02*
X0202524Y0016988D01*
X0202413Y0017100D02*
X0205100Y0014413D01*
X0208900Y0014413D01*
X0211587Y0017100D01*
X0211587Y0020900D01*
X0208900Y0023587D01*
X0205100Y0023587D01*
X0202413Y0020900D01*
X0202413Y0017100D01*
X0203523Y0015990D02*
X0200778Y0015990D01*
X0199779Y0014991D02*
X0204521Y0014991D01*
X0209479Y0014991D02*
X0224521Y0014991D01*
X0223523Y0015990D02*
X0210477Y0015990D01*
X0211476Y0016988D02*
X0222524Y0016988D01*
X0222413Y0017987D02*
X0211587Y0017987D01*
X0211587Y0018985D02*
X0222413Y0018985D01*
X0222413Y0019984D02*
X0211587Y0019984D01*
X0211505Y0020982D02*
X0222495Y0020982D01*
X0223493Y0021981D02*
X0210507Y0021981D01*
X0209508Y0022979D02*
X0224492Y0022979D01*
X0225213Y0025975D02*
X0178787Y0025975D01*
X0178787Y0026973D02*
X0225213Y0026973D01*
X0225213Y0027972D02*
X0178787Y0027972D01*
X0178787Y0028970D02*
X0225213Y0028970D01*
X0225213Y0029969D02*
X0178787Y0029969D01*
X0178787Y0030967D02*
X0225213Y0030967D01*
X0225213Y0031966D02*
X0178787Y0031966D01*
X0178787Y0032964D02*
X0225213Y0032964D01*
X0225213Y0033963D02*
X0178787Y0033963D01*
X0178787Y0034961D02*
X0225213Y0034961D01*
X0225213Y0035960D02*
X0178787Y0035960D01*
X0178787Y0036958D02*
X0225213Y0036958D01*
X0225213Y0037957D02*
X0178787Y0037957D01*
X0178787Y0038955D02*
X0225213Y0038955D01*
X0225213Y0039954D02*
X0178787Y0039954D01*
X0178787Y0040952D02*
X0225213Y0040952D01*
X0227000Y0045250D02*
X0227000Y0019000D01*
X0231587Y0018985D02*
X0232413Y0018985D01*
X0232413Y0017987D02*
X0231587Y0017987D01*
X0231476Y0016988D02*
X0232524Y0016988D01*
X0233523Y0015990D02*
X0230477Y0015990D01*
X0229479Y0014991D02*
X0234521Y0014991D01*
X0232413Y0019984D02*
X0231587Y0019984D01*
X0231505Y0020982D02*
X0232495Y0020982D01*
X0233493Y0021981D02*
X0230507Y0021981D01*
X0204492Y0022979D02*
X0199809Y0022979D01*
X0200808Y0021981D02*
X0203493Y0021981D01*
X0202495Y0020982D02*
X0201800Y0020982D01*
X0201800Y0019984D02*
X0202413Y0019984D01*
X0197484Y0019984D02*
X0196516Y0019984D01*
X0196516Y0019484D02*
X0196516Y0023800D01*
X0195012Y0023800D01*
X0192200Y0020988D01*
X0192200Y0019484D01*
X0196516Y0019484D01*
X0196516Y0020982D02*
X0197484Y0020982D01*
X0197484Y0021981D02*
X0196516Y0021981D01*
X0196516Y0022979D02*
X0197484Y0022979D01*
X0194191Y0022979D02*
X0189809Y0022979D01*
X0190808Y0021981D02*
X0193192Y0021981D01*
X0192200Y0020982D02*
X0191800Y0020982D01*
X0191800Y0019984D02*
X0192200Y0019984D01*
X0192200Y0017987D02*
X0191800Y0017987D01*
X0191776Y0016988D02*
X0192224Y0016988D01*
X0193222Y0015990D02*
X0190778Y0015990D01*
X0189779Y0014991D02*
X0194221Y0014991D01*
X0196516Y0014991D02*
X0197484Y0014991D01*
X0197484Y0015990D02*
X0196516Y0015990D01*
X0196516Y0016988D02*
X0197484Y0016988D01*
X0183192Y0021981D02*
X0180507Y0021981D01*
X0181505Y0020982D02*
X0182200Y0020982D01*
X0182200Y0019984D02*
X0181587Y0019984D01*
X0177000Y0019000D02*
X0177000Y0056500D01*
X0185750Y0065250D01*
X0185937Y0065063D01*
X0191488Y0065063D01*
X0188464Y0062920D02*
X0186832Y0062920D01*
X0187717Y0066914D02*
X0188172Y0066914D01*
X0183783Y0066914D02*
X0024500Y0066914D01*
X0024500Y0067912D02*
X0198846Y0067912D01*
X0198846Y0068911D02*
X0024500Y0068911D01*
X0024500Y0069909D02*
X0198846Y0069909D01*
X0202512Y0065063D02*
X0202000Y0064551D01*
X0202000Y0060250D01*
X0210037Y0059924D02*
X0217513Y0059924D01*
X0217513Y0058926D02*
X0210037Y0058926D01*
X0210037Y0057927D02*
X0217513Y0057927D01*
X0217513Y0056929D02*
X0210037Y0056929D01*
X0210037Y0055930D02*
X0214559Y0055930D01*
X0214063Y0054932D02*
X0210037Y0054932D01*
X0210037Y0053933D02*
X0214063Y0053933D01*
X0214190Y0049939D02*
X0206177Y0049939D01*
X0206177Y0048940D02*
X0240663Y0048940D01*
X0239664Y0047942D02*
X0206177Y0047942D01*
X0210037Y0060923D02*
X0217513Y0060923D01*
X0217513Y0061921D02*
X0210037Y0061921D01*
X0210037Y0062920D02*
X0217168Y0062920D01*
X0221087Y0062920D02*
X0225964Y0062920D01*
X0225870Y0063014D02*
X0226624Y0062260D01*
X0233596Y0062260D01*
X0234350Y0063014D01*
X0234350Y0069986D01*
X0233596Y0070740D01*
X0226624Y0070740D01*
X0225870Y0069986D01*
X0225870Y0068711D01*
X0225011Y0069067D01*
X0223989Y0069067D01*
X0223046Y0068676D01*
X0222324Y0067954D01*
X0221933Y0067011D01*
X0221933Y0065989D01*
X0222324Y0065046D01*
X0223046Y0064324D01*
X0223989Y0063933D01*
X0225011Y0063933D01*
X0225870Y0064289D01*
X0225870Y0063014D01*
X0225870Y0063918D02*
X0221087Y0063918D01*
X0221087Y0064917D02*
X0222453Y0064917D01*
X0221964Y0065915D02*
X0220753Y0065915D01*
X0220217Y0066914D02*
X0221933Y0066914D01*
X0222307Y0067912D02*
X0210037Y0067912D01*
X0210037Y0068911D02*
X0223612Y0068911D01*
X0225388Y0068911D02*
X0225870Y0068911D01*
X0225870Y0069909D02*
X0210037Y0069909D01*
X0210037Y0070908D02*
X0303250Y0070908D01*
X0303250Y0071906D02*
X0210037Y0071906D01*
X0210037Y0072905D02*
X0303250Y0072905D01*
X0303250Y0073903D02*
X0209418Y0073903D01*
X0208250Y0072543D02*
X0208250Y0065250D01*
X0205320Y0074902D02*
X0303250Y0074902D01*
X0303250Y0075900D02*
X0024500Y0075900D01*
X0024500Y0074902D02*
X0188680Y0074902D01*
X0188035Y0073903D02*
X0024500Y0073903D01*
X0024500Y0072905D02*
X0188035Y0072905D01*
X0188035Y0071906D02*
X0024500Y0071906D01*
X0024500Y0070908D02*
X0188035Y0070908D01*
X0183247Y0065915D02*
X0024500Y0065915D01*
X0024500Y0064917D02*
X0182889Y0064917D01*
X0181890Y0063918D02*
X0024500Y0063918D01*
X0024500Y0062920D02*
X0180892Y0062920D01*
X0179893Y0061921D02*
X0024500Y0061921D01*
X0024500Y0060923D02*
X0178895Y0060923D01*
X0186904Y0042949D02*
X0188435Y0042949D01*
X0224500Y0066500D02*
X0230110Y0066500D01*
X0234350Y0066914D02*
X0239650Y0066914D01*
X0239650Y0067912D02*
X0234350Y0067912D01*
X0234350Y0068911D02*
X0239650Y0068911D01*
X0239650Y0069909D02*
X0234350Y0069909D01*
X0234350Y0065915D02*
X0239650Y0065915D01*
X0239650Y0064917D02*
X0234350Y0064917D01*
X0234350Y0063918D02*
X0239650Y0063918D01*
X0239744Y0062920D02*
X0234256Y0062920D01*
X0243890Y0066500D02*
X0249500Y0066500D01*
X0248612Y0068911D02*
X0248130Y0068911D01*
X0248130Y0069909D02*
X0303250Y0069909D01*
X0303250Y0068911D02*
X0250388Y0068911D01*
X0270270Y0083132D02*
X0271027Y0082746D01*
X0271835Y0082483D01*
X0272675Y0082350D01*
X0276500Y0082350D01*
X0276500Y0087250D01*
X0277500Y0087250D01*
X0277500Y0088250D01*
X0276500Y0088250D01*
X0276500Y0093150D01*
X0272675Y0093150D01*
X0271835Y0093017D01*
X0271027Y0092754D01*
X0270270Y0092368D01*
X0269582Y0091869D01*
X0268981Y0091268D01*
X0268482Y0090580D01*
X0268096Y0089823D01*
X0267833Y0089015D01*
X0267712Y0088250D01*
X0276500Y0088250D01*
X0276500Y0087250D01*
X0267712Y0087250D01*
X0267833Y0086485D01*
X0268096Y0085677D01*
X0268482Y0084920D01*
X0268981Y0084232D01*
X0269582Y0083631D01*
X0270270Y0083132D01*
X0270744Y0082890D02*
X0024500Y0082890D01*
X0024500Y0083888D02*
X0269325Y0083888D01*
X0268505Y0084887D02*
X0024500Y0084887D01*
X0024500Y0085885D02*
X0268028Y0085885D01*
X0267770Y0086884D02*
X0024500Y0086884D01*
X0024500Y0087882D02*
X0276500Y0087882D01*
X0276500Y0086884D02*
X0277500Y0086884D01*
X0277500Y0087250D02*
X0277500Y0082350D01*
X0281325Y0082350D01*
X0282165Y0082483D01*
X0282973Y0082746D01*
X0283730Y0083132D01*
X0284418Y0083631D01*
X0285019Y0084232D01*
X0285518Y0084920D01*
X0285904Y0085677D01*
X0286167Y0086485D01*
X0286288Y0087250D01*
X0277500Y0087250D01*
X0277500Y0087882D02*
X0303250Y0087882D01*
X0303250Y0086884D02*
X0286230Y0086884D01*
X0285972Y0085885D02*
X0303250Y0085885D01*
X0303250Y0084887D02*
X0285495Y0084887D01*
X0284675Y0083888D02*
X0303250Y0083888D01*
X0303250Y0082890D02*
X0283256Y0082890D01*
X0277500Y0082890D02*
X0276500Y0082890D01*
X0276500Y0083888D02*
X0277500Y0083888D01*
X0277500Y0084887D02*
X0276500Y0084887D01*
X0276500Y0085885D02*
X0277500Y0085885D01*
X0277500Y0088250D02*
X0286288Y0088250D01*
X0286167Y0089015D01*
X0285904Y0089823D01*
X0285518Y0090580D01*
X0285019Y0091268D01*
X0284418Y0091869D01*
X0283730Y0092368D01*
X0282973Y0092754D01*
X0282165Y0093017D01*
X0281325Y0093150D01*
X0277500Y0093150D01*
X0277500Y0088250D01*
X0277500Y0088881D02*
X0276500Y0088881D01*
X0276500Y0089879D02*
X0277500Y0089879D01*
X0277500Y0090878D02*
X0276500Y0090878D01*
X0276500Y0091876D02*
X0277500Y0091876D01*
X0277500Y0092875D02*
X0276500Y0092875D01*
X0271398Y0092875D02*
X0193403Y0092875D01*
X0193459Y0092931D02*
X0194506Y0093978D01*
X0194506Y0099713D01*
X0196379Y0099713D01*
X0196446Y0099646D01*
X0211423Y0099646D01*
X0212470Y0100693D01*
X0213211Y0101433D01*
X0213761Y0101433D01*
X0214704Y0101824D01*
X0215426Y0102546D01*
X0215817Y0103489D01*
X0215817Y0104511D01*
X0215706Y0104780D01*
X0245090Y0104780D01*
X0245546Y0104324D01*
X0246489Y0103933D01*
X0247511Y0103933D01*
X0248454Y0104324D01*
X0249176Y0105046D01*
X0249567Y0105989D01*
X0249567Y0107011D01*
X0249176Y0107954D01*
X0248454Y0108676D01*
X0247511Y0109067D01*
X0246489Y0109067D01*
X0245546Y0108676D01*
X0245224Y0108354D01*
X0240084Y0108354D01*
X0240669Y0108939D01*
X0240669Y0110933D01*
X0252713Y0110933D01*
X0252713Y0107093D01*
X0252324Y0106704D01*
X0251933Y0105761D01*
X0251933Y0104739D01*
X0252324Y0103796D01*
X0253046Y0103074D01*
X0253989Y0102683D01*
X0255011Y0102683D01*
X0255954Y0103074D01*
X0256676Y0103796D01*
X0257067Y0104739D01*
X0257067Y0105761D01*
X0256676Y0106704D01*
X0256287Y0107093D01*
X0256287Y0110933D01*
X0270258Y0110933D01*
X0269807Y0109843D01*
X0269807Y0108157D01*
X0270453Y0106598D01*
X0271645Y0105405D01*
X0273204Y0104760D01*
X0280796Y0104760D01*
X0282355Y0105405D01*
X0283547Y0106598D01*
X0284193Y0108157D01*
X0284193Y0109843D01*
X0283547Y0111402D01*
X0282355Y0112595D01*
X0280796Y0113240D01*
X0275288Y0113240D01*
X0274528Y0114000D01*
X0275288Y0114760D01*
X0280796Y0114760D01*
X0282355Y0115405D01*
X0283547Y0116598D01*
X0284193Y0118157D01*
X0284193Y0119843D01*
X0283547Y0121402D01*
X0282355Y0122595D01*
X0280796Y0123240D01*
X0273204Y0123240D01*
X0271645Y0122595D01*
X0270453Y0121402D01*
X0269807Y0119843D01*
X0269807Y0118157D01*
X0270258Y0117067D01*
X0256287Y0117067D01*
X0256287Y0122157D01*
X0256676Y0122546D01*
X0257067Y0123489D01*
X0257067Y0124511D01*
X0256676Y0125454D01*
X0255954Y0126176D01*
X0255011Y0126567D01*
X0253989Y0126567D01*
X0253046Y0126176D01*
X0252324Y0125454D01*
X0251933Y0124511D01*
X0251933Y0123489D01*
X0252324Y0122546D01*
X0252713Y0122157D01*
X0252713Y0117067D01*
X0244456Y0117067D01*
X0244567Y0117336D01*
X0244567Y0118357D01*
X0244176Y0119300D01*
X0243454Y0120023D01*
X0242511Y0120413D01*
X0241489Y0120413D01*
X0240546Y0120023D01*
X0240149Y0119626D01*
X0240104Y0119626D01*
X0239915Y0119815D01*
X0236290Y0119815D01*
X0236186Y0119711D01*
X0235972Y0119925D01*
X0235630Y0120122D01*
X0235249Y0120224D01*
X0232500Y0120224D01*
X0232500Y0114500D01*
X0231500Y0114500D01*
X0231500Y0120224D01*
X0228751Y0120224D01*
X0228370Y0120122D01*
X0228028Y0119925D01*
X0227814Y0119711D01*
X0227710Y0119815D01*
X0224567Y0119815D01*
X0224567Y0120761D01*
X0224176Y0121704D01*
X0223454Y0122426D01*
X0222511Y0122817D01*
X0221489Y0122817D01*
X0220546Y0122426D01*
X0219824Y0121704D01*
X0219433Y0120761D01*
X0219433Y0120211D01*
X0218947Y0119724D01*
X0200724Y0119724D01*
X0200634Y0119815D01*
X0196887Y0119815D01*
X0196872Y0119842D01*
X0196592Y0120122D01*
X0196565Y0120137D01*
X0196565Y0123884D01*
X0195811Y0124638D01*
X0192819Y0124638D01*
X0192909Y0124728D01*
X0193213Y0125183D01*
X0193423Y0125689D01*
X0193530Y0126226D01*
X0193530Y0126500D01*
X0193530Y0126774D01*
X0193423Y0127311D01*
X0193213Y0127817D01*
X0192909Y0128272D01*
X0192522Y0128659D01*
X0192067Y0128963D01*
X0191561Y0129173D01*
X0191024Y0129280D01*
X0190750Y0129280D01*
X0190476Y0129280D01*
X0189939Y0129173D01*
X0189433Y0128963D01*
X0188978Y0128659D01*
X0188591Y0128272D01*
X0188287Y0127817D01*
X0188077Y0127311D01*
X0187970Y0126774D01*
X0187970Y0126500D01*
X0187970Y0126226D01*
X0188077Y0125689D01*
X0188287Y0125183D01*
X0188591Y0124728D01*
X0188681Y0124638D01*
X0185689Y0124638D01*
X0184935Y0123884D01*
X0184935Y0120137D01*
X0184908Y0120122D01*
X0184628Y0119842D01*
X0184613Y0119815D01*
X0180866Y0119815D01*
X0180776Y0119724D01*
X0178205Y0119724D01*
X0175520Y0122409D01*
X0175202Y0123178D01*
X0174480Y0123901D01*
X0173536Y0124291D01*
X0172515Y0124291D01*
X0171572Y0123901D01*
X0170849Y0123178D01*
X0170459Y0122235D01*
X0170459Y0121214D01*
X0170849Y0120270D01*
X0171572Y0119548D01*
X0172515Y0119157D01*
X0173536Y0119157D01*
X0173664Y0119210D01*
X0175792Y0117082D01*
X0173475Y0114764D01*
X0173286Y0114843D01*
X0172265Y0114843D01*
X0171322Y0114452D01*
X0170599Y0113730D01*
X0170209Y0112786D01*
X0170209Y0111765D01*
X0170599Y0110822D01*
X0171322Y0110099D01*
X0172265Y0109709D01*
X0173286Y0109709D01*
X0174230Y0110099D01*
X0174952Y0110822D01*
X0175209Y0111443D01*
X0177947Y0114181D01*
X0179900Y0114181D01*
X0179900Y0114000D01*
X0179900Y0113212D01*
X0180002Y0112830D01*
X0180112Y0112639D01*
X0180112Y0108939D01*
X0180866Y0108185D01*
X0184613Y0108185D01*
X0184628Y0108158D01*
X0184908Y0107878D01*
X0184935Y0107863D01*
X0184935Y0104537D01*
X0184843Y0104537D01*
X0184454Y0104926D01*
X0183511Y0105317D01*
X0182489Y0105317D01*
X0181546Y0104926D01*
X0180824Y0104204D01*
X0180433Y0103261D01*
X0180433Y0102239D01*
X0180824Y0101296D01*
X0181546Y0100574D01*
X0182489Y0100183D01*
X0183511Y0100183D01*
X0184454Y0100574D01*
X0184843Y0100963D01*
X0186490Y0100963D01*
X0186994Y0101466D01*
X0186994Y0098374D01*
X0186907Y0098287D01*
X0172740Y0098287D01*
X0151287Y0119740D01*
X0151287Y0141613D01*
X0151333Y0141613D01*
X0152000Y0142279D01*
X0152667Y0141613D01*
X0156333Y0141613D01*
X0157000Y0142279D01*
X0157667Y0141613D01*
X0161333Y0141613D01*
X0162087Y0142367D01*
X0162087Y0151433D01*
X0161333Y0152187D01*
X0157667Y0152187D01*
X0157000Y0151521D01*
X0156333Y0152187D01*
X0156287Y0152187D01*
X0156287Y0153500D01*
X0155240Y0154547D01*
X0154567Y0155221D01*
X0154567Y0155770D01*
X0154176Y0156714D01*
X0153454Y0157436D01*
X0152511Y0157827D01*
X0151489Y0157827D01*
X0150546Y0157436D01*
X0149824Y0156714D01*
X0149433Y0155770D01*
X0149433Y0155345D01*
X0144612Y0160165D01*
X0158760Y0160165D01*
X0161396Y0157529D01*
X0161396Y0152529D01*
X0170462Y0143463D01*
X0212382Y0143463D01*
X0212770Y0143074D01*
X0213714Y0142683D01*
X0214735Y0142683D01*
X0215678Y0143074D01*
X0216401Y0143796D01*
X0216791Y0144739D01*
X0216791Y0145761D01*
X0216401Y0146704D01*
X0216012Y0147093D01*
X0216012Y0147191D01*
X0218990Y0147191D01*
X0219744Y0147945D01*
X0219744Y0150388D01*
X0220239Y0150183D01*
X0221261Y0150183D01*
X0222204Y0150574D01*
X0222926Y0151296D01*
X0223317Y0152239D01*
X0223317Y0153261D01*
X0222926Y0154204D01*
X0222204Y0154926D01*
X0221261Y0155317D01*
X0220239Y0155317D01*
X0219744Y0155112D01*
X0219744Y0156630D01*
X0224492Y0156630D01*
X0225075Y0157213D01*
X0225213Y0157213D01*
X0225213Y0137240D01*
X0224539Y0136567D01*
X0223989Y0136567D01*
X0223046Y0136176D01*
X0222324Y0135454D01*
X0221933Y0134511D01*
X0221933Y0133489D01*
X0222324Y0132546D01*
X0223046Y0131824D01*
X0223989Y0131433D01*
X0225011Y0131433D01*
X0225954Y0131824D01*
X0226676Y0132546D01*
X0227067Y0133489D01*
X0227067Y0134039D01*
X0227740Y0134713D01*
X0228787Y0135760D01*
X0228787Y0175226D01*
X0229938Y0175702D01*
X0231398Y0177162D01*
X0232000Y0178616D01*
X0232602Y0177162D01*
X0234062Y0175702D01*
X0235213Y0175226D01*
X0235213Y0139740D01*
X0224539Y0129067D01*
X0223989Y0129067D01*
X0223046Y0128676D01*
X0222324Y0127954D01*
X0221933Y0127011D01*
X0221933Y0125989D01*
X0222324Y0125046D01*
X0223046Y0124324D01*
X0223989Y0123933D01*
X0225011Y0123933D01*
X0225954Y0124324D01*
X0226676Y0125046D01*
X0227067Y0125989D01*
X0227067Y0126539D01*
X0237740Y0137213D01*
X0238787Y0138260D01*
X0238787Y0175226D01*
X0239938Y0175702D01*
X0241398Y0177162D01*
X0242000Y0178616D01*
X0242602Y0177162D01*
X0244062Y0175702D01*
X0245213Y0175226D01*
X0245213Y0123343D01*
X0244824Y0122954D01*
X0244433Y0122011D01*
X0244433Y0120989D01*
X0244824Y0120046D01*
X0245546Y0119324D01*
X0246489Y0118933D01*
X0247511Y0118933D01*
X0248454Y0119324D01*
X0249176Y0120046D01*
X0249567Y0120989D01*
X0249567Y0122011D01*
X0249176Y0122954D01*
X0248787Y0123343D01*
X0248787Y0175226D01*
X0249938Y0175702D01*
X0251398Y0177162D01*
X0252187Y0179068D01*
X0252187Y0188932D01*
X0251398Y0190838D01*
X0249938Y0192298D01*
X0248787Y0192774D01*
X0248787Y0204413D01*
X0248900Y0204413D01*
X0251587Y0207100D01*
X0251587Y0210900D01*
X0248900Y0213587D01*
X0245100Y0213587D01*
X0242413Y0210900D01*
X0242413Y0207100D01*
X0245100Y0204413D01*
X0245213Y0204413D01*
X0245213Y0192774D01*
X0244062Y0192298D01*
X0242602Y0190838D01*
X0242000Y0189384D01*
X0241398Y0190838D01*
X0239938Y0192298D01*
X0238787Y0192774D01*
X0238787Y0204413D01*
X0238900Y0204413D01*
X0241587Y0207100D01*
X0241587Y0210900D01*
X0238900Y0213587D01*
X0235100Y0213587D01*
X0232413Y0210900D01*
X0232413Y0207100D01*
X0235100Y0204413D01*
X0235213Y0204413D01*
X0235213Y0192774D01*
X0234062Y0192298D01*
X0232602Y0190838D01*
X0232000Y0189384D01*
X0231398Y0190838D01*
X0229938Y0192298D01*
X0228787Y0192774D01*
X0228787Y0204413D01*
X0228900Y0204413D01*
X0231587Y0207100D01*
X0231587Y0210900D01*
X0228900Y0213587D01*
X0225100Y0213587D01*
X0222413Y0210900D01*
X0222413Y0207100D01*
X0225100Y0204413D01*
X0225213Y0204413D01*
X0225213Y0192774D01*
X0224062Y0192298D01*
X0222602Y0190838D01*
X0221813Y0188932D01*
X0221813Y0179068D01*
X0222602Y0177162D01*
X0224062Y0175702D01*
X0225213Y0175226D01*
X0225213Y0160787D01*
X0225075Y0160787D01*
X0224492Y0161370D01*
X0219744Y0161370D01*
X0219744Y0161638D01*
X0220239Y0161433D01*
X0221261Y0161433D01*
X0222204Y0161824D01*
X0222926Y0162546D01*
X0223317Y0163489D01*
X0223317Y0164511D01*
X0222926Y0165454D01*
X0222204Y0166176D01*
X0221261Y0166567D01*
X0220239Y0166567D01*
X0219744Y0166362D01*
X0219744Y0170055D01*
X0218990Y0170809D01*
X0216077Y0170809D01*
X0215886Y0170919D01*
X0215505Y0171022D01*
X0214266Y0171022D01*
X0214266Y0165341D01*
X0214183Y0165341D01*
X0214183Y0171022D01*
X0212944Y0171022D01*
X0212563Y0170919D01*
X0212372Y0170809D01*
X0209778Y0170809D01*
X0209587Y0170919D01*
X0209205Y0171022D01*
X0207967Y0171022D01*
X0207967Y0165341D01*
X0207884Y0165341D01*
X0207884Y0171022D01*
X0206645Y0171022D01*
X0206350Y0170943D01*
X0206056Y0171022D01*
X0204817Y0171022D01*
X0204817Y0165341D01*
X0204734Y0165341D01*
X0204734Y0171022D01*
X0203495Y0171022D01*
X0203413Y0171000D01*
X0203413Y0174657D01*
X0203802Y0175046D01*
X0204193Y0175989D01*
X0204193Y0177011D01*
X0203802Y0177954D01*
X0203080Y0178676D01*
X0202137Y0179067D01*
X0201587Y0179067D01*
X0195376Y0185278D01*
X0194329Y0186325D01*
X0155547Y0186325D01*
X0149539Y0180317D01*
X0148989Y0180317D01*
X0148046Y0179926D01*
X0147324Y0179204D01*
X0146933Y0178261D01*
X0146933Y0177239D01*
X0147324Y0176296D01*
X0147450Y0176170D01*
X0147110Y0175831D01*
X0147000Y0176021D01*
X0146721Y0176300D01*
X0146379Y0176498D01*
X0145997Y0176600D01*
X0144650Y0176600D01*
X0144650Y0171250D01*
X0144350Y0171250D01*
X0144350Y0176600D01*
X0143003Y0176600D01*
X0142621Y0176498D01*
X0142279Y0176300D01*
X0142000Y0176021D01*
X0141802Y0175679D01*
X0141700Y0175297D01*
X0141700Y0171250D01*
X0144350Y0171250D01*
X0144350Y0170950D01*
X0144650Y0170950D01*
X0144650Y0165600D01*
X0145997Y0165600D01*
X0146379Y0165702D01*
X0146721Y0165900D01*
X0147000Y0166179D01*
X0147110Y0166369D01*
X0147667Y0165813D01*
X0151333Y0165813D01*
X0152000Y0166479D01*
X0152667Y0165813D01*
X0152713Y0165813D01*
X0152713Y0163740D01*
X0138623Y0163740D01*
X0139061Y0163827D01*
X0139567Y0164037D01*
X0140022Y0164341D01*
X0140409Y0164728D01*
X0140713Y0165183D01*
X0140923Y0165689D01*
X0141030Y0166226D01*
X0141030Y0166500D01*
X0141030Y0166774D01*
X0140923Y0167311D01*
X0140713Y0167817D01*
X0140409Y0168272D01*
X0140022Y0168659D01*
X0139567Y0168963D01*
X0139061Y0169173D01*
X0138524Y0169280D01*
X0138250Y0169280D01*
X0137976Y0169280D01*
X0137439Y0169173D01*
X0136933Y0168963D01*
X0136478Y0168659D01*
X0136091Y0168272D01*
X0135787Y0167817D01*
X0135577Y0167311D01*
X0135470Y0166774D01*
X0135470Y0166597D01*
X0135426Y0166704D01*
X0134704Y0167426D01*
X0133761Y0167817D01*
X0132739Y0167817D01*
X0131796Y0167426D01*
X0131074Y0166704D01*
X0130683Y0165761D01*
X0130683Y0165709D01*
X0128149Y0165709D01*
X0128142Y0165701D01*
X0126732Y0165701D01*
X0126732Y0168687D01*
X0125978Y0169441D01*
X0123927Y0169441D01*
X0123173Y0168687D01*
X0123173Y0165421D01*
X0122500Y0165421D01*
X0122500Y0159500D01*
X0121500Y0159500D01*
X0121500Y0165421D01*
X0120827Y0165421D01*
X0120827Y0168687D01*
X0120073Y0169441D01*
X0118022Y0169441D01*
X0117268Y0168687D01*
X0117268Y0165701D01*
X0115858Y0165701D01*
X0115851Y0165709D01*
X0113317Y0165709D01*
X0113317Y0165770D01*
X0112926Y0166714D01*
X0112204Y0167436D01*
X0111261Y0167827D01*
X0110239Y0167827D01*
X0109296Y0167436D01*
X0108787Y0166927D01*
X0108787Y0167240D01*
X0107740Y0168287D01*
X0106461Y0169567D01*
X0103195Y0169567D01*
X0102817Y0169945D01*
X0103268Y0170396D01*
X0103268Y0173825D01*
X0102514Y0174579D01*
X0096526Y0174579D01*
X0095937Y0173990D01*
X0095961Y0174078D01*
X0095961Y0176138D01*
X0087500Y0176138D01*
X0087500Y0177138D01*
X0086500Y0177138D01*
X0086500Y0180500D01*
X0079342Y0180500D01*
X0078960Y0180398D01*
X0078618Y0180200D01*
X0078339Y0179921D01*
X0078142Y0179579D01*
X0078039Y0179197D01*
X0078039Y0177138D01*
X0086500Y0177138D01*
X0086500Y0176138D01*
X0078039Y0176138D01*
X0078039Y0174078D01*
X0078142Y0173697D01*
X0078339Y0173355D01*
X0078618Y0173075D01*
X0078960Y0172878D01*
X0079342Y0172776D01*
X0086500Y0172776D01*
X0086500Y0176138D01*
X0087500Y0176138D01*
X0087500Y0172776D01*
X0094658Y0172776D01*
X0095040Y0172878D01*
X0095382Y0173075D01*
X0095661Y0173355D01*
X0095772Y0173546D01*
X0095772Y0170396D01*
X0096223Y0169945D01*
X0095772Y0169494D01*
X0095772Y0166065D01*
X0096072Y0165764D01*
X0095859Y0165551D01*
X0095661Y0165209D01*
X0095559Y0164827D01*
X0095559Y0163539D01*
X0099429Y0163539D01*
X0099429Y0163358D01*
X0095559Y0163358D01*
X0095559Y0162070D01*
X0095661Y0161689D01*
X0095859Y0161347D01*
X0096072Y0161133D01*
X0095772Y0160832D01*
X0095772Y0157404D01*
X0096223Y0156953D01*
X0095845Y0156575D01*
X0093805Y0156575D01*
X0093454Y0156926D01*
X0092511Y0157317D01*
X0091489Y0157317D01*
X0090546Y0156926D01*
X0089824Y0156204D01*
X0089433Y0155261D01*
X0089433Y0154239D01*
X0089824Y0153296D01*
X0090546Y0152574D01*
X0091489Y0152183D01*
X0092511Y0152183D01*
X0093454Y0152574D01*
X0093880Y0153000D01*
X0095845Y0153000D01*
X0096223Y0152622D01*
X0095772Y0152171D01*
X0095772Y0148742D01*
X0096223Y0148291D01*
X0095969Y0148037D01*
X0090093Y0148037D01*
X0089704Y0148426D01*
X0088761Y0148817D01*
X0087739Y0148817D01*
X0086796Y0148426D01*
X0086074Y0147704D01*
X0085683Y0146761D01*
X0085683Y0145739D01*
X0086074Y0144796D01*
X0086796Y0144074D01*
X0087739Y0143683D01*
X0088761Y0143683D01*
X0089704Y0144074D01*
X0090093Y0144463D01*
X0095772Y0144463D01*
X0095772Y0144412D01*
X0096223Y0143961D01*
X0095772Y0143510D01*
X0095772Y0140081D01*
X0096526Y0139327D01*
X0102514Y0139327D01*
X0102746Y0139559D01*
X0102746Y0137207D01*
X0101260Y0135720D01*
X0100929Y0135720D01*
X0101030Y0136226D01*
X0101030Y0136500D01*
X0101030Y0136774D01*
X0100923Y0137311D01*
X0100713Y0137817D01*
X0100409Y0138272D01*
X0100022Y0138659D01*
X0099567Y0138963D01*
X0099061Y0139173D01*
X0098524Y0139280D01*
X0098250Y0139280D01*
X0097976Y0139280D01*
X0097439Y0139173D01*
X0096933Y0138963D01*
X0096478Y0138659D01*
X0096091Y0138272D01*
X0095787Y0137817D01*
X0095577Y0137311D01*
X0095470Y0136774D01*
X0095470Y0136500D01*
X0095470Y0136226D01*
X0095571Y0135720D01*
X0094248Y0135720D01*
X0094248Y0137949D01*
X0090492Y0137949D01*
X0090492Y0138949D01*
X0089492Y0138949D01*
X0089492Y0142803D01*
X0087039Y0142803D01*
X0086657Y0142701D01*
X0086315Y0142503D01*
X0086036Y0142224D01*
X0085838Y0141882D01*
X0085736Y0141501D01*
X0085736Y0141130D01*
X0085161Y0141130D01*
X0085161Y0137752D01*
X0084980Y0137752D01*
X0084980Y0141130D01*
X0084213Y0141130D01*
X0084213Y0142427D01*
X0083458Y0143181D01*
X0079045Y0143181D01*
X0078291Y0142427D01*
X0078291Y0137620D01*
X0079045Y0136866D01*
X0079465Y0136866D01*
X0079465Y0135760D01*
X0082031Y0133193D01*
X0083079Y0132146D01*
X0102740Y0132146D01*
X0105274Y0134679D01*
X0106321Y0135726D01*
X0106321Y0143265D01*
X0111220Y0148165D01*
X0111220Y0150693D01*
X0112740Y0152213D01*
X0115772Y0152213D01*
X0115858Y0152299D01*
X0117268Y0152299D01*
X0117268Y0152268D01*
X0117260Y0152260D01*
X0117260Y0140118D01*
X0116796Y0139926D01*
X0116074Y0139204D01*
X0115683Y0138261D01*
X0115683Y0137239D01*
X0116074Y0136296D01*
X0116796Y0135574D01*
X0117739Y0135183D01*
X0118761Y0135183D01*
X0119704Y0135574D01*
X0120426Y0136296D01*
X0120817Y0137239D01*
X0120817Y0137789D01*
X0120835Y0137807D01*
X0120835Y0152260D01*
X0120827Y0152268D01*
X0120827Y0152579D01*
X0121500Y0152579D01*
X0121500Y0158500D01*
X0122500Y0158500D01*
X0122500Y0152579D01*
X0122961Y0152579D01*
X0122961Y0151520D01*
X0124953Y0151520D01*
X0126945Y0151520D01*
X0126945Y0152299D01*
X0128142Y0152299D01*
X0128149Y0152291D01*
X0130683Y0152291D01*
X0130683Y0152172D01*
X0131074Y0151229D01*
X0131796Y0150507D01*
X0132739Y0150116D01*
X0133761Y0150116D01*
X0134704Y0150507D01*
X0135426Y0151229D01*
X0135817Y0152172D01*
X0135817Y0153194D01*
X0135426Y0154137D01*
X0135303Y0154260D01*
X0135882Y0154260D01*
X0136074Y0153796D01*
X0136796Y0153074D01*
X0137739Y0152683D01*
X0138761Y0152683D01*
X0139704Y0153074D01*
X0140426Y0153796D01*
X0140573Y0154150D01*
X0142601Y0152121D01*
X0141913Y0151433D01*
X0141913Y0148797D01*
X0141261Y0149067D01*
X0140239Y0149067D01*
X0139296Y0148676D01*
X0138574Y0147954D01*
X0138183Y0147011D01*
X0138183Y0145989D01*
X0138574Y0145046D01*
X0139296Y0144324D01*
X0140239Y0143933D01*
X0141261Y0143933D01*
X0141913Y0144203D01*
X0141913Y0142367D01*
X0142667Y0141613D01*
X0146333Y0141613D01*
X0147000Y0142279D01*
X0147667Y0141613D01*
X0147713Y0141613D01*
X0147713Y0118260D01*
X0148760Y0117213D01*
X0170213Y0095760D01*
X0171260Y0094713D01*
X0186907Y0094713D01*
X0187296Y0094324D01*
X0188239Y0093933D01*
X0189261Y0093933D01*
X0189508Y0094035D01*
X0188760Y0093287D01*
X0182593Y0093287D01*
X0182204Y0093676D01*
X0181261Y0094067D01*
X0180239Y0094067D01*
X0179296Y0093676D01*
X0178574Y0092954D01*
X0178183Y0092011D01*
X0178183Y0090989D01*
X0178574Y0090046D01*
X0179296Y0089324D01*
X0180239Y0088933D01*
X0181261Y0088933D01*
X0182204Y0089324D01*
X0182593Y0089713D01*
X0190240Y0089713D01*
X0193459Y0092931D01*
X0194401Y0093873D02*
X0303250Y0093873D01*
X0303250Y0092875D02*
X0282602Y0092875D01*
X0284407Y0091876D02*
X0303250Y0091876D01*
X0303250Y0090878D02*
X0285302Y0090878D01*
X0285876Y0089879D02*
X0303250Y0089879D01*
X0303250Y0088881D02*
X0286188Y0088881D01*
X0269593Y0091876D02*
X0192404Y0091876D01*
X0191406Y0090878D02*
X0268698Y0090878D01*
X0268124Y0089879D02*
X0190407Y0089879D01*
X0189500Y0091500D02*
X0192719Y0094719D01*
X0192719Y0101500D01*
X0197120Y0101500D01*
X0197187Y0101433D01*
X0210683Y0101433D01*
X0213250Y0104000D01*
X0215817Y0103859D02*
X0252298Y0103859D01*
X0251933Y0104857D02*
X0248987Y0104857D01*
X0249511Y0105856D02*
X0251972Y0105856D01*
X0252474Y0106854D02*
X0249567Y0106854D01*
X0249218Y0107853D02*
X0252713Y0107853D01*
X0252713Y0108851D02*
X0248032Y0108851D01*
X0245968Y0108851D02*
X0240581Y0108851D01*
X0240669Y0109850D02*
X0252713Y0109850D01*
X0252713Y0110848D02*
X0240669Y0110848D01*
X0238102Y0112720D02*
X0254500Y0112720D01*
X0254500Y0105250D01*
X0255438Y0102860D02*
X0303250Y0102860D01*
X0303250Y0101862D02*
X0214742Y0101862D01*
X0215556Y0102860D02*
X0253562Y0102860D01*
X0256702Y0103859D02*
X0303250Y0103859D01*
X0303250Y0104857D02*
X0281031Y0104857D01*
X0282805Y0105856D02*
X0303250Y0105856D01*
X0303250Y0106854D02*
X0283653Y0106854D01*
X0284067Y0107853D02*
X0303250Y0107853D01*
X0303250Y0108851D02*
X0284193Y0108851D01*
X0284190Y0109850D02*
X0303250Y0109850D01*
X0303250Y0110848D02*
X0283777Y0110848D01*
X0283103Y0111847D02*
X0303250Y0111847D01*
X0303250Y0112845D02*
X0281750Y0112845D01*
X0280995Y0114842D02*
X0303250Y0114842D01*
X0303250Y0113844D02*
X0274684Y0113844D01*
X0273280Y0112720D02*
X0277000Y0109000D01*
X0273280Y0112720D02*
X0254500Y0112720D01*
X0254500Y0115280D02*
X0254500Y0124000D01*
X0256304Y0125826D02*
X0303250Y0125826D01*
X0303250Y0126824D02*
X0248787Y0126824D01*
X0248787Y0125826D02*
X0252696Y0125826D01*
X0252064Y0124827D02*
X0248787Y0124827D01*
X0248787Y0123829D02*
X0251933Y0123829D01*
X0252206Y0122830D02*
X0249227Y0122830D01*
X0249567Y0121832D02*
X0252713Y0121832D01*
X0252713Y0120833D02*
X0249502Y0120833D01*
X0248965Y0119835D02*
X0252713Y0119835D01*
X0252713Y0118836D02*
X0244368Y0118836D01*
X0244567Y0117838D02*
X0252713Y0117838D01*
X0254500Y0115280D02*
X0273280Y0115280D01*
X0277000Y0119000D01*
X0272214Y0122830D02*
X0256794Y0122830D01*
X0257067Y0123829D02*
X0303250Y0123829D01*
X0303250Y0124827D02*
X0256936Y0124827D01*
X0256287Y0121832D02*
X0270883Y0121832D01*
X0270217Y0120833D02*
X0256287Y0120833D01*
X0256287Y0119835D02*
X0269807Y0119835D01*
X0269807Y0118836D02*
X0256287Y0118836D01*
X0256287Y0117838D02*
X0269939Y0117838D01*
X0270223Y0110848D02*
X0256287Y0110848D01*
X0256287Y0109850D02*
X0269810Y0109850D01*
X0269807Y0108851D02*
X0256287Y0108851D01*
X0256287Y0107853D02*
X0269933Y0107853D01*
X0270347Y0106854D02*
X0256526Y0106854D01*
X0257028Y0105856D02*
X0271195Y0105856D01*
X0272969Y0104857D02*
X0257067Y0104857D01*
X0247000Y0106500D02*
X0246981Y0106517D01*
X0246960Y0106532D01*
X0246937Y0106544D01*
X0246914Y0106554D01*
X0246889Y0106561D01*
X0246864Y0106566D01*
X0246838Y0106567D01*
X0201231Y0106567D01*
X0200524Y0106274D02*
X0198250Y0104000D01*
X0194687Y0104000D01*
X0194687Y0106126D01*
X0192719Y0106126D02*
X0192719Y0101500D01*
X0194506Y0098866D02*
X0303250Y0098866D01*
X0303250Y0097868D02*
X0194506Y0097868D01*
X0194506Y0096869D02*
X0303250Y0096869D01*
X0303250Y0095870D02*
X0194506Y0095870D01*
X0194506Y0094872D02*
X0303250Y0094872D01*
X0303250Y0099865D02*
X0211642Y0099865D01*
X0212641Y0100863D02*
X0303250Y0100863D01*
X0303250Y0115841D02*
X0282790Y0115841D01*
X0283647Y0116839D02*
X0303250Y0116839D01*
X0303250Y0117838D02*
X0284061Y0117838D01*
X0284193Y0118836D02*
X0303250Y0118836D01*
X0303250Y0119835D02*
X0284193Y0119835D01*
X0283783Y0120833D02*
X0303250Y0120833D01*
X0303250Y0121832D02*
X0283117Y0121832D01*
X0281786Y0122830D02*
X0303250Y0122830D01*
X0303250Y0127823D02*
X0248787Y0127823D01*
X0248787Y0128821D02*
X0303250Y0128821D01*
X0303250Y0129820D02*
X0248787Y0129820D01*
X0248787Y0130818D02*
X0303250Y0130818D01*
X0303250Y0131817D02*
X0248787Y0131817D01*
X0248787Y0132815D02*
X0303250Y0132815D01*
X0303250Y0133814D02*
X0248787Y0133814D01*
X0248787Y0134812D02*
X0303250Y0134812D01*
X0303250Y0135811D02*
X0248787Y0135811D01*
X0248787Y0136809D02*
X0303250Y0136809D01*
X0303250Y0137808D02*
X0248787Y0137808D01*
X0248787Y0138806D02*
X0303250Y0138806D01*
X0303250Y0139805D02*
X0248787Y0139805D01*
X0248787Y0140803D02*
X0303250Y0140803D01*
X0303250Y0141802D02*
X0248787Y0141802D01*
X0248787Y0142801D02*
X0284200Y0142801D01*
X0283149Y0143236D02*
X0285648Y0142201D01*
X0288352Y0142201D01*
X0290851Y0143236D01*
X0292764Y0145149D01*
X0293799Y0147648D01*
X0293799Y0150352D01*
X0292764Y0152851D01*
X0290851Y0154764D01*
X0288352Y0155799D01*
X0285648Y0155799D01*
X0283149Y0154764D01*
X0281236Y0152851D01*
X0280201Y0150352D01*
X0280201Y0147648D01*
X0281236Y0145149D01*
X0283149Y0143236D01*
X0282585Y0143799D02*
X0248787Y0143799D01*
X0248787Y0144798D02*
X0281587Y0144798D01*
X0280968Y0145796D02*
X0248787Y0145796D01*
X0248787Y0146795D02*
X0280554Y0146795D01*
X0280201Y0147793D02*
X0248787Y0147793D01*
X0248787Y0148792D02*
X0280201Y0148792D01*
X0280201Y0149790D02*
X0248787Y0149790D01*
X0248787Y0150789D02*
X0280381Y0150789D01*
X0280795Y0151787D02*
X0248787Y0151787D01*
X0248787Y0152786D02*
X0281209Y0152786D01*
X0282169Y0153784D02*
X0248787Y0153784D01*
X0248787Y0154783D02*
X0283193Y0154783D01*
X0285604Y0155781D02*
X0248787Y0155781D01*
X0248787Y0156780D02*
X0303250Y0156780D01*
X0303250Y0157778D02*
X0248787Y0157778D01*
X0248787Y0158777D02*
X0303250Y0158777D01*
X0303250Y0159775D02*
X0248787Y0159775D01*
X0248787Y0160774D02*
X0303250Y0160774D01*
X0303250Y0161772D02*
X0248787Y0161772D01*
X0248787Y0162771D02*
X0303250Y0162771D01*
X0303250Y0163769D02*
X0248787Y0163769D01*
X0248787Y0164768D02*
X0303250Y0164768D01*
X0303250Y0165766D02*
X0248787Y0165766D01*
X0248787Y0166765D02*
X0303250Y0166765D01*
X0303250Y0167763D02*
X0248787Y0167763D01*
X0248787Y0168762D02*
X0303250Y0168762D01*
X0303250Y0169760D02*
X0248787Y0169760D01*
X0248787Y0170759D02*
X0303250Y0170759D01*
X0303250Y0171757D02*
X0248787Y0171757D01*
X0248787Y0172756D02*
X0303250Y0172756D01*
X0303250Y0173754D02*
X0248787Y0173754D01*
X0248787Y0174753D02*
X0303250Y0174753D01*
X0303250Y0175751D02*
X0249987Y0175751D01*
X0250986Y0176750D02*
X0303250Y0176750D01*
X0303250Y0177748D02*
X0251641Y0177748D01*
X0252054Y0178747D02*
X0303250Y0178747D01*
X0303250Y0179745D02*
X0252187Y0179745D01*
X0252187Y0180744D02*
X0303250Y0180744D01*
X0303250Y0181742D02*
X0252187Y0181742D01*
X0252187Y0182741D02*
X0303250Y0182741D01*
X0303250Y0183739D02*
X0252187Y0183739D01*
X0252187Y0184738D02*
X0303250Y0184738D01*
X0303250Y0185737D02*
X0252187Y0185737D01*
X0252187Y0186735D02*
X0303250Y0186735D01*
X0303250Y0187734D02*
X0252187Y0187734D01*
X0252187Y0188732D02*
X0303250Y0188732D01*
X0303250Y0189731D02*
X0251857Y0189731D01*
X0251443Y0190729D02*
X0303250Y0190729D01*
X0303250Y0191728D02*
X0250509Y0191728D01*
X0248904Y0192726D02*
X0303250Y0192726D01*
X0303250Y0193725D02*
X0248787Y0193725D01*
X0248787Y0194723D02*
X0303250Y0194723D01*
X0303250Y0195722D02*
X0248787Y0195722D01*
X0248787Y0196720D02*
X0303250Y0196720D01*
X0303250Y0197719D02*
X0248787Y0197719D01*
X0248787Y0198717D02*
X0303250Y0198717D01*
X0303250Y0199716D02*
X0248787Y0199716D01*
X0248787Y0200714D02*
X0303250Y0200714D01*
X0303250Y0201713D02*
X0248787Y0201713D01*
X0248787Y0202711D02*
X0303250Y0202711D01*
X0303250Y0203710D02*
X0248787Y0203710D01*
X0249196Y0204708D02*
X0254804Y0204708D01*
X0255100Y0204413D02*
X0258900Y0204413D01*
X0261587Y0207100D01*
X0261587Y0210900D01*
X0258900Y0213587D01*
X0255100Y0213587D01*
X0252413Y0210900D01*
X0252413Y0207100D01*
X0255100Y0204413D01*
X0253806Y0205707D02*
X0250194Y0205707D01*
X0251193Y0206705D02*
X0252807Y0206705D01*
X0252413Y0207704D02*
X0251587Y0207704D01*
X0251587Y0208702D02*
X0252413Y0208702D01*
X0252413Y0209701D02*
X0251587Y0209701D01*
X0251587Y0210699D02*
X0252413Y0210699D01*
X0253210Y0211698D02*
X0250790Y0211698D01*
X0249791Y0212696D02*
X0254209Y0212696D01*
X0259791Y0212696D02*
X0264209Y0212696D01*
X0265100Y0213587D02*
X0262413Y0210900D01*
X0262413Y0207100D01*
X0265100Y0204413D01*
X0268900Y0204413D01*
X0271587Y0207100D01*
X0271587Y0210900D01*
X0268900Y0213587D01*
X0265100Y0213587D01*
X0263210Y0211698D02*
X0260790Y0211698D01*
X0261587Y0210699D02*
X0262413Y0210699D01*
X0262413Y0209701D02*
X0261587Y0209701D01*
X0261587Y0208702D02*
X0262413Y0208702D01*
X0262413Y0207704D02*
X0261587Y0207704D01*
X0261193Y0206705D02*
X0262807Y0206705D01*
X0263806Y0205707D02*
X0260194Y0205707D01*
X0259196Y0204708D02*
X0264804Y0204708D01*
X0269196Y0204708D02*
X0274804Y0204708D01*
X0275100Y0204413D02*
X0278900Y0204413D01*
X0281587Y0207100D01*
X0281587Y0210900D01*
X0278900Y0213587D01*
X0275100Y0213587D01*
X0272413Y0210900D01*
X0272413Y0207100D01*
X0275100Y0204413D01*
X0273806Y0205707D02*
X0270194Y0205707D01*
X0271193Y0206705D02*
X0272807Y0206705D01*
X0272413Y0207704D02*
X0271587Y0207704D01*
X0271587Y0208702D02*
X0272413Y0208702D01*
X0272413Y0209701D02*
X0271587Y0209701D01*
X0271587Y0210699D02*
X0272413Y0210699D01*
X0273210Y0211698D02*
X0270790Y0211698D01*
X0269791Y0212696D02*
X0274209Y0212696D01*
X0279791Y0212696D02*
X0303250Y0212696D01*
X0303250Y0211698D02*
X0280790Y0211698D01*
X0281587Y0210699D02*
X0303250Y0210699D01*
X0303250Y0209701D02*
X0281587Y0209701D01*
X0281587Y0208702D02*
X0303250Y0208702D01*
X0303250Y0207704D02*
X0281587Y0207704D01*
X0281193Y0206705D02*
X0303250Y0206705D01*
X0303250Y0205707D02*
X0280194Y0205707D01*
X0279196Y0204708D02*
X0303250Y0204708D01*
X0303250Y0213695D02*
X0133093Y0213695D01*
X0132988Y0213800D02*
X0131484Y0213800D01*
X0131484Y0209484D01*
X0135800Y0209484D01*
X0135800Y0210988D01*
X0132988Y0213800D01*
X0131484Y0213695D02*
X0130516Y0213695D01*
X0130516Y0213800D02*
X0129012Y0213800D01*
X0126200Y0210988D01*
X0126200Y0209484D01*
X0130516Y0209484D01*
X0130516Y0208516D01*
X0131484Y0208516D01*
X0131484Y0204200D01*
X0132988Y0204200D01*
X0135800Y0207012D01*
X0135800Y0208516D01*
X0131484Y0208516D01*
X0131484Y0209484D01*
X0130516Y0209484D01*
X0130516Y0213800D01*
X0130516Y0212696D02*
X0131484Y0212696D01*
X0131484Y0211698D02*
X0130516Y0211698D01*
X0130516Y0210699D02*
X0131484Y0210699D01*
X0131484Y0209701D02*
X0130516Y0209701D01*
X0130516Y0208702D02*
X0125587Y0208702D01*
X0126200Y0208516D02*
X0126200Y0207012D01*
X0129012Y0204200D01*
X0130516Y0204200D01*
X0130516Y0208516D01*
X0126200Y0208516D01*
X0126200Y0207704D02*
X0125587Y0207704D01*
X0125587Y0207100D02*
X0122900Y0204413D01*
X0119100Y0204413D01*
X0116413Y0207100D01*
X0116413Y0210900D01*
X0119100Y0213587D01*
X0122900Y0213587D01*
X0125587Y0210900D01*
X0125587Y0207100D01*
X0125193Y0206705D02*
X0126507Y0206705D01*
X0127505Y0205707D02*
X0124194Y0205707D01*
X0123196Y0204708D02*
X0128504Y0204708D01*
X0130516Y0204708D02*
X0131484Y0204708D01*
X0131484Y0205707D02*
X0130516Y0205707D01*
X0130516Y0206705D02*
X0131484Y0206705D01*
X0131484Y0207704D02*
X0130516Y0207704D01*
X0131484Y0208702D02*
X0136413Y0208702D01*
X0136413Y0207704D02*
X0135800Y0207704D01*
X0136413Y0207100D02*
X0139100Y0204413D01*
X0142900Y0204413D01*
X0145587Y0207100D01*
X0145587Y0210900D01*
X0142900Y0213587D01*
X0139100Y0213587D01*
X0136413Y0210900D01*
X0136413Y0207100D01*
X0136807Y0206705D02*
X0135493Y0206705D01*
X0134495Y0205707D02*
X0137806Y0205707D01*
X0138804Y0204708D02*
X0133496Y0204708D01*
X0135800Y0209701D02*
X0136413Y0209701D01*
X0136413Y0210699D02*
X0135800Y0210699D01*
X0135090Y0211698D02*
X0137210Y0211698D01*
X0138209Y0212696D02*
X0134092Y0212696D01*
X0128907Y0213695D02*
X0091921Y0213695D01*
X0092764Y0212851D02*
X0090851Y0214764D01*
X0088352Y0215799D01*
X0085648Y0215799D01*
X0083149Y0214764D01*
X0081236Y0212851D01*
X0080201Y0210352D01*
X0080201Y0207648D01*
X0081236Y0205149D01*
X0083149Y0203236D01*
X0085648Y0202201D01*
X0088352Y0202201D01*
X0090851Y0203236D01*
X0092764Y0205149D01*
X0093799Y0207648D01*
X0093799Y0210352D01*
X0092764Y0212851D01*
X0092828Y0212696D02*
X0118209Y0212696D01*
X0117210Y0211698D02*
X0093242Y0211698D01*
X0093656Y0210699D02*
X0116413Y0210699D01*
X0116413Y0209701D02*
X0093799Y0209701D01*
X0093799Y0208702D02*
X0116413Y0208702D01*
X0116413Y0207704D02*
X0093799Y0207704D01*
X0093409Y0206705D02*
X0116807Y0206705D01*
X0117806Y0205707D02*
X0092995Y0205707D01*
X0092324Y0204708D02*
X0118804Y0204708D01*
X0125587Y0209701D02*
X0126200Y0209701D01*
X0126200Y0210699D02*
X0125587Y0210699D01*
X0124790Y0211698D02*
X0126910Y0211698D01*
X0127908Y0212696D02*
X0123791Y0212696D01*
X0143196Y0204708D02*
X0148804Y0204708D01*
X0149100Y0204413D02*
X0152900Y0204413D01*
X0155587Y0207100D01*
X0155587Y0210900D01*
X0152900Y0213587D01*
X0149100Y0213587D01*
X0146413Y0210900D01*
X0146413Y0207100D01*
X0149100Y0204413D01*
X0147806Y0205707D02*
X0144194Y0205707D01*
X0145193Y0206705D02*
X0146807Y0206705D01*
X0146413Y0207704D02*
X0145587Y0207704D01*
X0145587Y0208702D02*
X0146413Y0208702D01*
X0146413Y0209701D02*
X0145587Y0209701D01*
X0145587Y0210699D02*
X0146413Y0210699D01*
X0147210Y0211698D02*
X0144790Y0211698D01*
X0143791Y0212696D02*
X0148209Y0212696D01*
X0153791Y0212696D02*
X0158209Y0212696D01*
X0159100Y0213587D02*
X0156413Y0210900D01*
X0156413Y0207100D01*
X0159100Y0204413D01*
X0162900Y0204413D01*
X0165587Y0207100D01*
X0165587Y0210900D01*
X0162900Y0213587D01*
X0159100Y0213587D01*
X0157210Y0211698D02*
X0154790Y0211698D01*
X0155587Y0210699D02*
X0156413Y0210699D01*
X0156413Y0209701D02*
X0155587Y0209701D01*
X0155587Y0208702D02*
X0156413Y0208702D01*
X0156413Y0207704D02*
X0155587Y0207704D01*
X0155193Y0206705D02*
X0156807Y0206705D01*
X0157806Y0205707D02*
X0154194Y0205707D01*
X0153196Y0204708D02*
X0158804Y0204708D01*
X0163196Y0204708D02*
X0168804Y0204708D01*
X0169100Y0204413D02*
X0172900Y0204413D01*
X0175587Y0207100D01*
X0175587Y0210900D01*
X0172900Y0213587D01*
X0169100Y0213587D01*
X0166413Y0210900D01*
X0166413Y0207100D01*
X0169100Y0204413D01*
X0167806Y0205707D02*
X0164194Y0205707D01*
X0165193Y0206705D02*
X0166807Y0206705D01*
X0166413Y0207704D02*
X0165587Y0207704D01*
X0165587Y0208702D02*
X0166413Y0208702D01*
X0166413Y0209701D02*
X0165587Y0209701D01*
X0165587Y0210699D02*
X0166413Y0210699D01*
X0167210Y0211698D02*
X0164790Y0211698D01*
X0163791Y0212696D02*
X0168209Y0212696D01*
X0173791Y0212696D02*
X0178209Y0212696D01*
X0179100Y0213587D02*
X0176413Y0210900D01*
X0176413Y0207100D01*
X0179100Y0204413D01*
X0182900Y0204413D01*
X0185587Y0207100D01*
X0185587Y0210900D01*
X0182900Y0213587D01*
X0179100Y0213587D01*
X0177210Y0211698D02*
X0174790Y0211698D01*
X0175587Y0210699D02*
X0176413Y0210699D01*
X0176413Y0209701D02*
X0175587Y0209701D01*
X0175587Y0208702D02*
X0176413Y0208702D01*
X0176413Y0207704D02*
X0175587Y0207704D01*
X0175193Y0206705D02*
X0176807Y0206705D01*
X0177806Y0205707D02*
X0174194Y0205707D01*
X0173196Y0204708D02*
X0178804Y0204708D01*
X0183196Y0204708D02*
X0188804Y0204708D01*
X0189100Y0204413D02*
X0186413Y0207100D01*
X0186413Y0210900D01*
X0189100Y0213587D01*
X0192900Y0213587D01*
X0195587Y0210900D01*
X0195587Y0207100D01*
X0192900Y0204413D01*
X0189100Y0204413D01*
X0187806Y0205707D02*
X0184194Y0205707D01*
X0185193Y0206705D02*
X0186807Y0206705D01*
X0186413Y0207704D02*
X0185587Y0207704D01*
X0185587Y0208702D02*
X0186413Y0208702D01*
X0186413Y0209701D02*
X0185587Y0209701D01*
X0185587Y0210699D02*
X0186413Y0210699D01*
X0187210Y0211698D02*
X0184790Y0211698D01*
X0183791Y0212696D02*
X0188209Y0212696D01*
X0193791Y0212696D02*
X0204209Y0212696D01*
X0205100Y0213587D02*
X0202413Y0210900D01*
X0202413Y0207100D01*
X0205100Y0204413D01*
X0208900Y0204413D01*
X0211587Y0207100D01*
X0211587Y0210900D01*
X0208900Y0213587D01*
X0205100Y0213587D01*
X0203210Y0211698D02*
X0194790Y0211698D01*
X0195587Y0210699D02*
X0202413Y0210699D01*
X0202413Y0209701D02*
X0195587Y0209701D01*
X0195587Y0208702D02*
X0202413Y0208702D01*
X0202413Y0207704D02*
X0195587Y0207704D01*
X0195193Y0206705D02*
X0202807Y0206705D01*
X0203806Y0205707D02*
X0194194Y0205707D01*
X0193196Y0204708D02*
X0204804Y0204708D01*
X0209196Y0204708D02*
X0214804Y0204708D01*
X0215100Y0204413D02*
X0218900Y0204413D01*
X0221587Y0207100D01*
X0221587Y0210900D01*
X0218900Y0213587D01*
X0215100Y0213587D01*
X0212413Y0210900D01*
X0212413Y0207100D01*
X0215100Y0204413D01*
X0213806Y0205707D02*
X0210194Y0205707D01*
X0211193Y0206705D02*
X0212807Y0206705D01*
X0212413Y0207704D02*
X0211587Y0207704D01*
X0211587Y0208702D02*
X0212413Y0208702D01*
X0212413Y0209701D02*
X0211587Y0209701D01*
X0211587Y0210699D02*
X0212413Y0210699D01*
X0213210Y0211698D02*
X0210790Y0211698D01*
X0209791Y0212696D02*
X0214209Y0212696D01*
X0219791Y0212696D02*
X0224209Y0212696D01*
X0223210Y0211698D02*
X0220790Y0211698D01*
X0221587Y0210699D02*
X0222413Y0210699D01*
X0222413Y0209701D02*
X0221587Y0209701D01*
X0221587Y0208702D02*
X0222413Y0208702D01*
X0222413Y0207704D02*
X0221587Y0207704D01*
X0221193Y0206705D02*
X0222807Y0206705D01*
X0223806Y0205707D02*
X0220194Y0205707D01*
X0219196Y0204708D02*
X0224804Y0204708D01*
X0225213Y0203710D02*
X0091325Y0203710D01*
X0089585Y0202711D02*
X0225213Y0202711D01*
X0225213Y0201713D02*
X0024500Y0201713D01*
X0024500Y0202711D02*
X0084415Y0202711D01*
X0082675Y0203710D02*
X0024500Y0203710D01*
X0024500Y0204708D02*
X0081676Y0204708D01*
X0081005Y0205707D02*
X0024500Y0205707D01*
X0024500Y0206705D02*
X0080591Y0206705D01*
X0080201Y0207704D02*
X0024500Y0207704D01*
X0024500Y0208702D02*
X0080201Y0208702D01*
X0080201Y0209701D02*
X0024500Y0209701D01*
X0024500Y0210699D02*
X0080344Y0210699D01*
X0080758Y0211698D02*
X0024500Y0211698D01*
X0024500Y0212696D02*
X0081172Y0212696D01*
X0082079Y0213695D02*
X0024500Y0213695D01*
X0024500Y0214693D02*
X0083078Y0214693D01*
X0085388Y0215692D02*
X0024500Y0215692D01*
X0024500Y0216690D02*
X0303250Y0216690D01*
X0303250Y0215692D02*
X0088612Y0215692D01*
X0090922Y0214693D02*
X0303250Y0214693D01*
X0303250Y0217689D02*
X0024500Y0217689D01*
X0024500Y0218687D02*
X0303250Y0218687D01*
X0303250Y0219686D02*
X0024500Y0219686D01*
X0024500Y0220684D02*
X0303250Y0220684D01*
X0303250Y0221683D02*
X0024500Y0221683D01*
X0024500Y0222681D02*
X0303250Y0222681D01*
X0247000Y0209000D02*
X0247000Y0184000D01*
X0242143Y0189731D02*
X0241857Y0189731D01*
X0241443Y0190729D02*
X0242557Y0190729D01*
X0243491Y0191728D02*
X0240509Y0191728D01*
X0238904Y0192726D02*
X0245096Y0192726D01*
X0245213Y0193725D02*
X0238787Y0193725D01*
X0238787Y0194723D02*
X0245213Y0194723D01*
X0245213Y0195722D02*
X0238787Y0195722D01*
X0238787Y0196720D02*
X0245213Y0196720D01*
X0245213Y0197719D02*
X0238787Y0197719D01*
X0238787Y0198717D02*
X0245213Y0198717D01*
X0245213Y0199716D02*
X0238787Y0199716D01*
X0238787Y0200714D02*
X0245213Y0200714D01*
X0245213Y0201713D02*
X0238787Y0201713D01*
X0238787Y0202711D02*
X0245213Y0202711D01*
X0245213Y0203710D02*
X0238787Y0203710D01*
X0239196Y0204708D02*
X0244804Y0204708D01*
X0243806Y0205707D02*
X0240194Y0205707D01*
X0241193Y0206705D02*
X0242807Y0206705D01*
X0242413Y0207704D02*
X0241587Y0207704D01*
X0241587Y0208702D02*
X0242413Y0208702D01*
X0242413Y0209701D02*
X0241587Y0209701D01*
X0241587Y0210699D02*
X0242413Y0210699D01*
X0243210Y0211698D02*
X0240790Y0211698D01*
X0239791Y0212696D02*
X0244209Y0212696D01*
X0247000Y0209000D02*
X0247000Y0121500D01*
X0245035Y0119835D02*
X0243642Y0119835D01*
X0244498Y0120833D02*
X0224537Y0120833D01*
X0224567Y0119835D02*
X0227938Y0119835D01*
X0225898Y0117839D02*
X0223250Y0117839D01*
X0221380Y0115969D01*
X0220750Y0115969D01*
X0198624Y0115969D01*
X0198624Y0117937D02*
X0219687Y0117937D01*
X0222000Y0120250D01*
X0224048Y0121832D02*
X0244433Y0121832D01*
X0244773Y0122830D02*
X0196565Y0122830D01*
X0196565Y0121832D02*
X0219952Y0121832D01*
X0219463Y0120833D02*
X0196565Y0120833D01*
X0196876Y0119835D02*
X0219057Y0119835D01*
X0222542Y0124827D02*
X0192975Y0124827D01*
X0193450Y0125826D02*
X0222001Y0125826D01*
X0221933Y0126824D02*
X0193519Y0126824D01*
X0193530Y0126500D02*
X0190750Y0126500D01*
X0190750Y0126500D01*
X0190750Y0129280D01*
X0190750Y0126500D01*
X0190750Y0126500D01*
X0190750Y0126500D01*
X0187970Y0126500D01*
X0190750Y0126500D01*
X0193530Y0126500D01*
X0193209Y0127823D02*
X0222270Y0127823D01*
X0223397Y0128821D02*
X0192279Y0128821D01*
X0190750Y0128821D02*
X0190750Y0128821D01*
X0190750Y0127823D02*
X0190750Y0127823D01*
X0190750Y0126824D02*
X0190750Y0126824D01*
X0189221Y0128821D02*
X0151287Y0128821D01*
X0151287Y0127823D02*
X0188291Y0127823D01*
X0187981Y0126824D02*
X0151287Y0126824D01*
X0151287Y0125826D02*
X0188050Y0125826D01*
X0188525Y0124827D02*
X0151287Y0124827D01*
X0151287Y0123829D02*
X0171500Y0123829D01*
X0170705Y0122830D02*
X0151287Y0122830D01*
X0151287Y0121832D02*
X0170459Y0121832D01*
X0170616Y0120833D02*
X0151287Y0120833D01*
X0151287Y0119835D02*
X0171285Y0119835D01*
X0173026Y0121724D02*
X0173677Y0121724D01*
X0177465Y0117937D01*
X0182876Y0117937D01*
X0182876Y0115969D02*
X0177207Y0115969D01*
X0173514Y0112276D01*
X0172776Y0112276D01*
X0170714Y0113844D02*
X0157184Y0113844D01*
X0156186Y0114842D02*
X0172264Y0114842D01*
X0173287Y0114842D02*
X0173553Y0114842D01*
X0174551Y0115841D02*
X0155187Y0115841D01*
X0154189Y0116839D02*
X0175550Y0116839D01*
X0175036Y0117838D02*
X0153190Y0117838D01*
X0152192Y0118836D02*
X0174038Y0118836D01*
X0177096Y0120833D02*
X0184935Y0120833D01*
X0184935Y0121832D02*
X0176098Y0121832D01*
X0175346Y0122830D02*
X0184935Y0122830D01*
X0184935Y0123829D02*
X0174551Y0123829D01*
X0178095Y0119835D02*
X0184624Y0119835D01*
X0185852Y0114500D02*
X0190250Y0114500D01*
X0190250Y0119110D01*
X0191250Y0119110D01*
X0191250Y0114500D01*
X0190250Y0114500D01*
X0190250Y0113500D01*
X0185852Y0113500D01*
X0185852Y0114000D01*
X0182876Y0114000D01*
X0182876Y0114000D01*
X0185852Y0114000D01*
X0185852Y0114500D01*
X0185852Y0113844D02*
X0190250Y0113844D01*
X0190250Y0113500D02*
X0190250Y0108890D01*
X0191250Y0108890D01*
X0191250Y0113500D01*
X0195860Y0113500D01*
X0195860Y0114500D01*
X0191250Y0114500D01*
X0191250Y0113500D01*
X0190250Y0113500D01*
X0190250Y0112845D02*
X0191250Y0112845D01*
X0191250Y0111847D02*
X0190250Y0111847D01*
X0190250Y0110848D02*
X0191250Y0110848D01*
X0191250Y0109850D02*
X0190250Y0109850D01*
X0188781Y0106126D02*
X0188781Y0096531D01*
X0188750Y0096500D01*
X0172000Y0096500D01*
X0149500Y0119000D01*
X0149500Y0146900D01*
X0149500Y0152750D01*
X0142266Y0159984D01*
X0128890Y0159984D01*
X0128890Y0158016D02*
X0139234Y0158016D01*
X0144500Y0152750D01*
X0144500Y0146900D01*
X0144100Y0146500D01*
X0140750Y0146500D01*
X0138822Y0144798D02*
X0120835Y0144798D01*
X0120835Y0145796D02*
X0138263Y0145796D01*
X0138183Y0146795D02*
X0120835Y0146795D01*
X0120835Y0147793D02*
X0138507Y0147793D01*
X0139575Y0148792D02*
X0126511Y0148792D01*
X0126645Y0148925D02*
X0126843Y0149267D01*
X0126945Y0149649D01*
X0126945Y0151520D01*
X0124953Y0151520D01*
X0124953Y0151520D01*
X0124953Y0151520D01*
X0124953Y0148346D01*
X0125642Y0148346D01*
X0126024Y0148449D01*
X0126366Y0148646D01*
X0126645Y0148925D01*
X0126945Y0149790D02*
X0141913Y0149790D01*
X0141913Y0150789D02*
X0134986Y0150789D01*
X0135657Y0151787D02*
X0142266Y0151787D01*
X0141937Y0152786D02*
X0139008Y0152786D01*
X0137492Y0152786D02*
X0135817Y0152786D01*
X0135572Y0153784D02*
X0136086Y0153784D01*
X0138250Y0155250D02*
X0137453Y0156047D01*
X0128890Y0156047D01*
X0128890Y0154079D02*
X0131854Y0154079D01*
X0133250Y0152683D01*
X0130843Y0151787D02*
X0126945Y0151787D01*
X0126945Y0150789D02*
X0131514Y0150789D01*
X0124953Y0150789D02*
X0124953Y0150789D01*
X0124953Y0151520D02*
X0124953Y0151520D01*
X0122961Y0151520D01*
X0122961Y0149649D01*
X0123063Y0149267D01*
X0123260Y0148925D01*
X0123540Y0148646D01*
X0123882Y0148449D01*
X0124263Y0148346D01*
X0124953Y0148346D01*
X0124953Y0151520D01*
X0124953Y0149790D02*
X0124953Y0149790D01*
X0124953Y0148792D02*
X0124953Y0148792D01*
X0123394Y0148792D02*
X0120835Y0148792D01*
X0120835Y0149790D02*
X0122961Y0149790D01*
X0122961Y0150789D02*
X0120835Y0150789D01*
X0120835Y0151787D02*
X0122961Y0151787D01*
X0122500Y0152786D02*
X0121500Y0152786D01*
X0121500Y0153784D02*
X0122500Y0153784D01*
X0122500Y0154783D02*
X0121500Y0154783D01*
X0121500Y0155781D02*
X0122500Y0155781D01*
X0122500Y0156780D02*
X0121500Y0156780D01*
X0121500Y0157778D02*
X0122500Y0157778D01*
X0122500Y0159775D02*
X0121500Y0159775D01*
X0121500Y0160774D02*
X0122500Y0160774D01*
X0122500Y0161772D02*
X0121500Y0161772D01*
X0121500Y0162771D02*
X0122500Y0162771D01*
X0122500Y0163769D02*
X0121500Y0163769D01*
X0121500Y0164768D02*
X0122500Y0164768D01*
X0123173Y0165766D02*
X0120827Y0165766D01*
X0120827Y0166765D02*
X0123173Y0166765D01*
X0123173Y0167763D02*
X0120827Y0167763D01*
X0120752Y0168762D02*
X0123248Y0168762D01*
X0126657Y0168762D02*
X0136632Y0168762D01*
X0135765Y0167763D02*
X0133890Y0167763D01*
X0132610Y0167763D02*
X0126732Y0167763D01*
X0126732Y0166765D02*
X0131135Y0166765D01*
X0130685Y0165766D02*
X0126732Y0165766D01*
X0128890Y0163921D02*
X0131921Y0163921D01*
X0133250Y0165250D01*
X0135365Y0166765D02*
X0135470Y0166765D01*
X0138250Y0166765D02*
X0138250Y0166765D01*
X0138250Y0166500D02*
X0138250Y0169280D01*
X0138250Y0166500D01*
X0138250Y0166500D01*
X0141030Y0166500D01*
X0138250Y0166500D01*
X0138250Y0166500D01*
X0138250Y0167763D02*
X0138250Y0167763D01*
X0138250Y0168762D02*
X0138250Y0168762D01*
X0139868Y0168762D02*
X0141700Y0168762D01*
X0141700Y0169760D02*
X0103001Y0169760D01*
X0103268Y0170759D02*
X0141700Y0170759D01*
X0141700Y0170950D02*
X0141700Y0166903D01*
X0141802Y0166521D01*
X0142000Y0166179D01*
X0142279Y0165900D01*
X0142621Y0165702D01*
X0143003Y0165600D01*
X0144350Y0165600D01*
X0144350Y0170950D01*
X0141700Y0170950D01*
X0141700Y0171757D02*
X0103268Y0171757D01*
X0103268Y0172756D02*
X0141700Y0172756D01*
X0141700Y0173754D02*
X0103268Y0173754D01*
X0107266Y0168762D02*
X0117343Y0168762D01*
X0117268Y0167763D02*
X0111414Y0167763D01*
X0110086Y0167763D02*
X0108264Y0167763D01*
X0107000Y0166500D02*
X0107000Y0163000D01*
X0108047Y0161953D01*
X0115110Y0161953D01*
X0115110Y0163921D02*
X0112089Y0163921D01*
X0110750Y0165260D01*
X0112875Y0166765D02*
X0117268Y0166765D01*
X0117268Y0165766D02*
X0113317Y0165766D01*
X0115110Y0159984D02*
X0109206Y0159984D01*
X0108340Y0159118D01*
X0099520Y0159118D01*
X0095772Y0158777D02*
X0024500Y0158777D01*
X0024500Y0159775D02*
X0095772Y0159775D01*
X0095772Y0160774D02*
X0024500Y0160774D01*
X0024500Y0161772D02*
X0095639Y0161772D01*
X0095559Y0162771D02*
X0024500Y0162771D01*
X0024500Y0163769D02*
X0095559Y0163769D01*
X0095559Y0164768D02*
X0024500Y0164768D01*
X0024500Y0165766D02*
X0096071Y0165766D01*
X0095772Y0166765D02*
X0024500Y0166765D01*
X0024500Y0167763D02*
X0095772Y0167763D01*
X0095772Y0168762D02*
X0024500Y0168762D01*
X0024500Y0169760D02*
X0096038Y0169760D01*
X0095772Y0170759D02*
X0024500Y0170759D01*
X0024500Y0171757D02*
X0095772Y0171757D01*
X0095772Y0172756D02*
X0024500Y0172756D01*
X0024500Y0173754D02*
X0078126Y0173754D01*
X0078039Y0174753D02*
X0024500Y0174753D01*
X0024500Y0175751D02*
X0078039Y0175751D01*
X0078039Y0177748D02*
X0024500Y0177748D01*
X0024500Y0176750D02*
X0086500Y0176750D01*
X0086500Y0177748D02*
X0087500Y0177748D01*
X0087500Y0177138D02*
X0087500Y0180500D01*
X0094658Y0180500D01*
X0095040Y0180398D01*
X0095382Y0180200D01*
X0095661Y0179921D01*
X0095858Y0179579D01*
X0095961Y0179197D01*
X0095961Y0177138D01*
X0087500Y0177138D01*
X0087500Y0176750D02*
X0147136Y0176750D01*
X0146933Y0177748D02*
X0095961Y0177748D01*
X0095961Y0178747D02*
X0147135Y0178747D01*
X0147865Y0179745D02*
X0095762Y0179745D01*
X0095961Y0175751D02*
X0141844Y0175751D01*
X0141700Y0174753D02*
X0095961Y0174753D01*
X0099520Y0167780D02*
X0105720Y0167780D01*
X0107000Y0166500D01*
X0105213Y0165760D02*
X0105213Y0162260D01*
X0106567Y0160905D01*
X0103195Y0160905D01*
X0102967Y0161133D01*
X0103181Y0161347D01*
X0103378Y0161689D01*
X0103480Y0162070D01*
X0103480Y0163358D01*
X0099610Y0163358D01*
X0099610Y0163539D01*
X0103480Y0163539D01*
X0103480Y0164827D01*
X0103378Y0165209D01*
X0103181Y0165551D01*
X0102967Y0165764D01*
X0103195Y0165992D01*
X0104980Y0165992D01*
X0105213Y0165760D01*
X0105206Y0165766D02*
X0102969Y0165766D01*
X0103480Y0164768D02*
X0105213Y0164768D01*
X0105213Y0163769D02*
X0103480Y0163769D01*
X0103480Y0162771D02*
X0105213Y0162771D01*
X0105700Y0161772D02*
X0103400Y0161772D01*
X0095772Y0157778D02*
X0024500Y0157778D01*
X0024500Y0156780D02*
X0090399Y0156780D01*
X0089649Y0155781D02*
X0024500Y0155781D01*
X0024500Y0154783D02*
X0089433Y0154783D01*
X0089622Y0153784D02*
X0024500Y0153784D01*
X0024500Y0152786D02*
X0090334Y0152786D01*
X0092000Y0154750D02*
X0092037Y0154787D01*
X0099520Y0154787D01*
X0096059Y0152786D02*
X0093666Y0152786D01*
X0095772Y0151787D02*
X0024500Y0151787D01*
X0024500Y0150789D02*
X0095772Y0150789D01*
X0095772Y0149790D02*
X0024500Y0149790D01*
X0024500Y0148792D02*
X0087678Y0148792D01*
X0088822Y0148792D02*
X0095772Y0148792D01*
X0099520Y0150457D02*
X0102207Y0150457D01*
X0103875Y0152125D01*
X0103967Y0152125D01*
X0109858Y0158016D01*
X0115110Y0158016D01*
X0115110Y0156047D02*
X0110417Y0156047D01*
X0106933Y0152563D01*
X0106933Y0150250D01*
X0102809Y0146126D01*
X0099520Y0146126D01*
X0099396Y0146250D01*
X0088250Y0146250D01*
X0087459Y0143799D02*
X0024500Y0143799D01*
X0024500Y0142801D02*
X0078665Y0142801D01*
X0078291Y0141802D02*
X0024500Y0141802D01*
X0024500Y0140803D02*
X0078291Y0140803D01*
X0078291Y0139805D02*
X0024500Y0139805D01*
X0024500Y0138806D02*
X0078291Y0138806D01*
X0078291Y0137808D02*
X0024500Y0137808D01*
X0024500Y0136809D02*
X0079465Y0136809D01*
X0079465Y0135811D02*
X0024500Y0135811D01*
X0024500Y0134812D02*
X0080412Y0134812D01*
X0081410Y0133814D02*
X0024500Y0133814D01*
X0024500Y0132815D02*
X0082409Y0132815D01*
X0083819Y0133933D02*
X0102000Y0133933D01*
X0104533Y0136467D01*
X0104533Y0144006D01*
X0109433Y0148905D01*
X0109433Y0151433D01*
X0112000Y0154000D01*
X0115031Y0154000D01*
X0115110Y0154079D01*
X0117260Y0151787D02*
X0112315Y0151787D01*
X0111316Y0150789D02*
X0117260Y0150789D01*
X0117260Y0149790D02*
X0111220Y0149790D01*
X0111220Y0148792D02*
X0117260Y0148792D01*
X0117260Y0147793D02*
X0110849Y0147793D01*
X0109850Y0146795D02*
X0117260Y0146795D01*
X0117260Y0145796D02*
X0108852Y0145796D01*
X0107853Y0144798D02*
X0117260Y0144798D01*
X0117260Y0143799D02*
X0106855Y0143799D01*
X0106321Y0142801D02*
X0117260Y0142801D01*
X0117260Y0141802D02*
X0106321Y0141802D01*
X0106321Y0140803D02*
X0117260Y0140803D01*
X0116675Y0139805D02*
X0106321Y0139805D01*
X0106321Y0138806D02*
X0115909Y0138806D01*
X0115683Y0137808D02*
X0106321Y0137808D01*
X0106321Y0136809D02*
X0115861Y0136809D01*
X0116559Y0135811D02*
X0106321Y0135811D01*
X0105407Y0134812D02*
X0147713Y0134812D01*
X0147713Y0133814D02*
X0104409Y0133814D01*
X0103410Y0132815D02*
X0147713Y0132815D01*
X0147713Y0131817D02*
X0024500Y0131817D01*
X0024500Y0130818D02*
X0147713Y0130818D01*
X0147713Y0129820D02*
X0024500Y0129820D01*
X0024500Y0128821D02*
X0147713Y0128821D01*
X0147713Y0127823D02*
X0024500Y0127823D01*
X0024500Y0126824D02*
X0147713Y0126824D01*
X0147713Y0125826D02*
X0024500Y0125826D01*
X0024500Y0124827D02*
X0147713Y0124827D01*
X0147713Y0123829D02*
X0024500Y0123829D01*
X0024500Y0122830D02*
X0147713Y0122830D01*
X0147713Y0121832D02*
X0024500Y0121832D01*
X0024500Y0120833D02*
X0147713Y0120833D01*
X0147713Y0119835D02*
X0024500Y0119835D01*
X0024500Y0118836D02*
X0147713Y0118836D01*
X0148134Y0117838D02*
X0024500Y0117838D01*
X0024500Y0116839D02*
X0149133Y0116839D01*
X0150132Y0115841D02*
X0024500Y0115841D01*
X0024500Y0114842D02*
X0151130Y0114842D01*
X0152129Y0113844D02*
X0024500Y0113844D01*
X0024500Y0112845D02*
X0153127Y0112845D01*
X0154126Y0111847D02*
X0024500Y0111847D01*
X0024500Y0110848D02*
X0155124Y0110848D01*
X0156123Y0109850D02*
X0024500Y0109850D01*
X0024500Y0108851D02*
X0157121Y0108851D01*
X0158120Y0107853D02*
X0024500Y0107853D01*
X0024500Y0106854D02*
X0159118Y0106854D01*
X0160117Y0105856D02*
X0024500Y0105856D01*
X0024500Y0104857D02*
X0161115Y0104857D01*
X0162114Y0103859D02*
X0024500Y0103859D01*
X0024500Y0102860D02*
X0163112Y0102860D01*
X0164111Y0101862D02*
X0024500Y0101862D01*
X0024500Y0100863D02*
X0165109Y0100863D01*
X0166108Y0099865D02*
X0024500Y0099865D01*
X0024500Y0098866D02*
X0167106Y0098866D01*
X0168105Y0097868D02*
X0024500Y0097868D01*
X0024500Y0096869D02*
X0169103Y0096869D01*
X0170102Y0095870D02*
X0024500Y0095870D01*
X0024500Y0094872D02*
X0171100Y0094872D01*
X0172162Y0098866D02*
X0186994Y0098866D01*
X0186994Y0099865D02*
X0171163Y0099865D01*
X0170165Y0100863D02*
X0181257Y0100863D01*
X0180590Y0101862D02*
X0169166Y0101862D01*
X0168168Y0102860D02*
X0180433Y0102860D01*
X0180681Y0103859D02*
X0167169Y0103859D01*
X0166171Y0104857D02*
X0181477Y0104857D01*
X0183000Y0102750D02*
X0185750Y0102750D01*
X0186813Y0103813D01*
X0186813Y0106126D01*
X0184935Y0105856D02*
X0165172Y0105856D01*
X0164174Y0106854D02*
X0184935Y0106854D01*
X0184935Y0107853D02*
X0163175Y0107853D01*
X0162177Y0108851D02*
X0180200Y0108851D01*
X0180112Y0109850D02*
X0173627Y0109850D01*
X0174963Y0110848D02*
X0180112Y0110848D01*
X0180112Y0111847D02*
X0175613Y0111847D01*
X0176611Y0112845D02*
X0179998Y0112845D01*
X0179900Y0113844D02*
X0177610Y0113844D01*
X0179900Y0114000D02*
X0182876Y0114000D01*
X0182876Y0114000D01*
X0179900Y0114000D01*
X0171925Y0109850D02*
X0161178Y0109850D01*
X0160180Y0110848D02*
X0170588Y0110848D01*
X0170209Y0111847D02*
X0159181Y0111847D01*
X0158183Y0112845D02*
X0170233Y0112845D01*
X0184523Y0104857D02*
X0184935Y0104857D01*
X0184743Y0100863D02*
X0186994Y0100863D01*
X0189346Y0093873D02*
X0181728Y0093873D01*
X0179772Y0093873D02*
X0024500Y0093873D01*
X0024500Y0092875D02*
X0178541Y0092875D01*
X0178183Y0091876D02*
X0024500Y0091876D01*
X0024500Y0090878D02*
X0178229Y0090878D01*
X0178740Y0089879D02*
X0024500Y0089879D01*
X0024500Y0088881D02*
X0267812Y0088881D01*
X0232000Y0114000D02*
X0230720Y0115280D01*
X0225898Y0115280D01*
X0225868Y0112750D02*
X0222000Y0112750D01*
X0220630Y0112750D01*
X0220563Y0112817D01*
X0203683Y0112817D01*
X0203250Y0113250D01*
X0202500Y0114000D01*
X0198624Y0114000D01*
X0195860Y0113844D02*
X0191250Y0113844D01*
X0191250Y0114842D02*
X0190250Y0114842D01*
X0190250Y0115841D02*
X0191250Y0115841D01*
X0191250Y0116839D02*
X0190250Y0116839D01*
X0190250Y0117838D02*
X0191250Y0117838D01*
X0191250Y0118836D02*
X0190250Y0118836D01*
X0196565Y0123829D02*
X0245213Y0123829D01*
X0245213Y0124827D02*
X0226457Y0124827D01*
X0226999Y0125826D02*
X0245213Y0125826D01*
X0245213Y0126824D02*
X0227352Y0126824D01*
X0228351Y0127823D02*
X0245213Y0127823D01*
X0245213Y0128821D02*
X0229349Y0128821D01*
X0230348Y0129820D02*
X0245213Y0129820D01*
X0245213Y0130818D02*
X0231346Y0130818D01*
X0232345Y0131817D02*
X0245213Y0131817D01*
X0245213Y0132815D02*
X0233343Y0132815D01*
X0234342Y0133814D02*
X0245213Y0133814D01*
X0245213Y0134812D02*
X0235340Y0134812D01*
X0236339Y0135811D02*
X0245213Y0135811D01*
X0245213Y0136809D02*
X0237337Y0136809D01*
X0238336Y0137808D02*
X0245213Y0137808D01*
X0245213Y0138806D02*
X0238787Y0138806D01*
X0238787Y0139805D02*
X0245213Y0139805D01*
X0245213Y0140803D02*
X0238787Y0140803D01*
X0238787Y0141802D02*
X0245213Y0141802D01*
X0245213Y0142801D02*
X0238787Y0142801D01*
X0238787Y0143799D02*
X0245213Y0143799D01*
X0245213Y0144798D02*
X0238787Y0144798D01*
X0238787Y0145796D02*
X0245213Y0145796D01*
X0245213Y0146795D02*
X0238787Y0146795D01*
X0238787Y0147793D02*
X0245213Y0147793D01*
X0245213Y0148792D02*
X0238787Y0148792D01*
X0238787Y0149790D02*
X0245213Y0149790D01*
X0245213Y0150789D02*
X0238787Y0150789D01*
X0238787Y0151787D02*
X0245213Y0151787D01*
X0245213Y0152786D02*
X0238787Y0152786D01*
X0238787Y0153784D02*
X0245213Y0153784D01*
X0245213Y0154783D02*
X0238787Y0154783D01*
X0238787Y0155781D02*
X0245213Y0155781D01*
X0245213Y0156780D02*
X0238787Y0156780D01*
X0238787Y0157778D02*
X0245213Y0157778D01*
X0245213Y0158777D02*
X0238787Y0158777D01*
X0238787Y0159775D02*
X0245213Y0159775D01*
X0245213Y0160774D02*
X0238787Y0160774D01*
X0238787Y0161772D02*
X0245213Y0161772D01*
X0245213Y0162771D02*
X0238787Y0162771D01*
X0238787Y0163769D02*
X0245213Y0163769D01*
X0245213Y0164768D02*
X0238787Y0164768D01*
X0238787Y0165766D02*
X0245213Y0165766D01*
X0245213Y0166765D02*
X0238787Y0166765D01*
X0238787Y0167763D02*
X0245213Y0167763D01*
X0245213Y0168762D02*
X0238787Y0168762D01*
X0238787Y0169760D02*
X0245213Y0169760D01*
X0245213Y0170759D02*
X0238787Y0170759D01*
X0238787Y0171757D02*
X0245213Y0171757D01*
X0245213Y0172756D02*
X0238787Y0172756D01*
X0238787Y0173754D02*
X0245213Y0173754D01*
X0245213Y0174753D02*
X0238787Y0174753D01*
X0239987Y0175751D02*
X0244012Y0175751D01*
X0243014Y0176750D02*
X0240986Y0176750D01*
X0241641Y0177748D02*
X0242359Y0177748D01*
X0235213Y0174753D02*
X0228787Y0174753D01*
X0228787Y0173754D02*
X0235213Y0173754D01*
X0235213Y0172756D02*
X0228787Y0172756D01*
X0228787Y0171757D02*
X0235213Y0171757D01*
X0235213Y0170759D02*
X0228787Y0170759D01*
X0228787Y0169760D02*
X0235213Y0169760D01*
X0235213Y0168762D02*
X0228787Y0168762D01*
X0228787Y0167763D02*
X0235213Y0167763D01*
X0235213Y0166765D02*
X0228787Y0166765D01*
X0228787Y0165766D02*
X0235213Y0165766D01*
X0235213Y0164768D02*
X0228787Y0164768D01*
X0228787Y0163769D02*
X0235213Y0163769D01*
X0235213Y0162771D02*
X0228787Y0162771D01*
X0228787Y0161772D02*
X0235213Y0161772D01*
X0235213Y0160774D02*
X0228787Y0160774D01*
X0228787Y0159775D02*
X0235213Y0159775D01*
X0235213Y0158777D02*
X0228787Y0158777D01*
X0228787Y0157778D02*
X0235213Y0157778D01*
X0235213Y0156780D02*
X0228787Y0156780D01*
X0228787Y0155781D02*
X0235213Y0155781D01*
X0235213Y0154783D02*
X0228787Y0154783D01*
X0228787Y0153784D02*
X0235213Y0153784D01*
X0235213Y0152786D02*
X0228787Y0152786D01*
X0228787Y0151787D02*
X0235213Y0151787D01*
X0235213Y0150789D02*
X0228787Y0150789D01*
X0228787Y0149790D02*
X0235213Y0149790D01*
X0235213Y0148792D02*
X0228787Y0148792D01*
X0228787Y0147793D02*
X0235213Y0147793D01*
X0235213Y0146795D02*
X0228787Y0146795D01*
X0228787Y0145796D02*
X0235213Y0145796D01*
X0235213Y0144798D02*
X0228787Y0144798D01*
X0228787Y0143799D02*
X0235213Y0143799D01*
X0235213Y0142801D02*
X0228787Y0142801D01*
X0228787Y0141802D02*
X0235213Y0141802D01*
X0235213Y0140803D02*
X0228787Y0140803D01*
X0228787Y0139805D02*
X0235213Y0139805D01*
X0234279Y0138806D02*
X0228787Y0138806D01*
X0228787Y0137808D02*
X0233280Y0137808D01*
X0232282Y0136809D02*
X0228787Y0136809D01*
X0228787Y0135811D02*
X0231283Y0135811D01*
X0230285Y0134812D02*
X0227840Y0134812D01*
X0227067Y0133814D02*
X0229286Y0133814D01*
X0228288Y0132815D02*
X0226788Y0132815D01*
X0227289Y0131817D02*
X0225937Y0131817D01*
X0226291Y0130818D02*
X0151287Y0130818D01*
X0151287Y0129820D02*
X0225292Y0129820D01*
X0223063Y0131817D02*
X0151287Y0131817D01*
X0151287Y0132815D02*
X0222212Y0132815D01*
X0221933Y0133814D02*
X0183994Y0133814D01*
X0184061Y0133827D02*
X0184567Y0134037D01*
X0185022Y0134341D01*
X0185409Y0134728D01*
X0185713Y0135183D01*
X0185923Y0135689D01*
X0186030Y0136226D01*
X0186030Y0136500D01*
X0186030Y0136774D01*
X0185923Y0137311D01*
X0185713Y0137817D01*
X0185409Y0138272D01*
X0185022Y0138659D01*
X0184567Y0138963D01*
X0184061Y0139173D01*
X0183524Y0139280D01*
X0183250Y0139280D01*
X0182976Y0139280D01*
X0182439Y0139173D01*
X0181933Y0138963D01*
X0181478Y0138659D01*
X0181091Y0138272D01*
X0180787Y0137817D01*
X0180577Y0137311D01*
X0180470Y0136774D01*
X0180470Y0136500D01*
X0180470Y0136226D01*
X0180577Y0135689D01*
X0180787Y0135183D01*
X0181091Y0134728D01*
X0181478Y0134341D01*
X0181933Y0134037D01*
X0182439Y0133827D01*
X0182976Y0133720D01*
X0183250Y0133720D01*
X0183524Y0133720D01*
X0184061Y0133827D01*
X0183250Y0133814D02*
X0183250Y0133814D01*
X0183250Y0133720D02*
X0183250Y0136500D01*
X0186030Y0136500D01*
X0183250Y0136500D01*
X0183250Y0136500D01*
X0183250Y0136500D01*
X0183250Y0139280D01*
X0183250Y0136500D01*
X0183250Y0136500D01*
X0183250Y0136500D01*
X0180470Y0136500D01*
X0183250Y0136500D01*
X0183250Y0133720D01*
X0182506Y0133814D02*
X0151287Y0133814D01*
X0151287Y0134812D02*
X0181035Y0134812D01*
X0180553Y0135811D02*
X0151287Y0135811D01*
X0151287Y0136809D02*
X0180478Y0136809D01*
X0180783Y0137808D02*
X0151287Y0137808D01*
X0151287Y0138806D02*
X0181699Y0138806D01*
X0183250Y0138806D02*
X0183250Y0138806D01*
X0183250Y0137808D02*
X0183250Y0137808D01*
X0183250Y0136809D02*
X0183250Y0136809D01*
X0183250Y0135811D02*
X0183250Y0135811D01*
X0183250Y0134812D02*
X0183250Y0134812D01*
X0185465Y0134812D02*
X0222058Y0134812D01*
X0222681Y0135811D02*
X0185947Y0135811D01*
X0186022Y0136809D02*
X0224782Y0136809D01*
X0225213Y0137808D02*
X0185717Y0137808D01*
X0184801Y0138806D02*
X0225213Y0138806D01*
X0225213Y0139805D02*
X0151287Y0139805D01*
X0151287Y0140803D02*
X0225213Y0140803D01*
X0225213Y0141802D02*
X0161523Y0141802D01*
X0162087Y0142801D02*
X0213430Y0142801D01*
X0215019Y0142801D02*
X0225213Y0142801D01*
X0225213Y0143799D02*
X0216402Y0143799D01*
X0216791Y0144798D02*
X0225213Y0144798D01*
X0225213Y0145796D02*
X0216777Y0145796D01*
X0216310Y0146795D02*
X0225213Y0146795D01*
X0225213Y0147793D02*
X0219592Y0147793D01*
X0219744Y0148792D02*
X0225213Y0148792D01*
X0225213Y0149790D02*
X0219744Y0149790D01*
X0222419Y0150789D02*
X0225213Y0150789D01*
X0225213Y0151787D02*
X0223130Y0151787D01*
X0223317Y0152786D02*
X0225213Y0152786D01*
X0225213Y0153784D02*
X0223100Y0153784D01*
X0222348Y0154783D02*
X0225213Y0154783D01*
X0225213Y0155781D02*
X0219744Y0155781D01*
X0220750Y0152750D02*
X0217423Y0152750D01*
X0217374Y0152701D01*
X0214224Y0152701D02*
X0214224Y0145250D01*
X0171203Y0145250D01*
X0163183Y0153270D01*
X0163183Y0158270D01*
X0159500Y0161953D01*
X0154500Y0161953D01*
X0154500Y0171100D01*
X0154500Y0165250D01*
X0156287Y0164768D02*
X0169169Y0164768D01*
X0169169Y0165766D02*
X0156287Y0165766D01*
X0156287Y0165813D02*
X0156333Y0165813D01*
X0157000Y0166479D01*
X0157667Y0165813D01*
X0161333Y0165813D01*
X0162087Y0166567D01*
X0162087Y0175633D01*
X0161550Y0176170D01*
X0161676Y0176296D01*
X0162067Y0177239D01*
X0162067Y0178261D01*
X0161676Y0179204D01*
X0160954Y0179926D01*
X0160011Y0180317D01*
X0158989Y0180317D01*
X0158046Y0179926D01*
X0157324Y0179204D01*
X0156933Y0178261D01*
X0156933Y0177239D01*
X0157324Y0176296D01*
X0157450Y0176170D01*
X0157000Y0175721D01*
X0156333Y0176387D01*
X0152667Y0176387D01*
X0152000Y0175721D01*
X0151550Y0176170D01*
X0151676Y0176296D01*
X0152067Y0177239D01*
X0152067Y0177789D01*
X0157028Y0182750D01*
X0192848Y0182750D01*
X0199059Y0176539D01*
X0199059Y0175989D01*
X0199450Y0175046D01*
X0199839Y0174657D01*
X0199839Y0170638D01*
X0199256Y0170055D01*
X0199256Y0161370D01*
X0194508Y0161370D01*
X0193925Y0160787D01*
X0185093Y0160787D01*
X0184704Y0161176D01*
X0183761Y0161567D01*
X0182739Y0161567D01*
X0181905Y0161221D01*
X0181905Y0161559D01*
X0178043Y0161559D01*
X0178043Y0163846D01*
X0175484Y0163846D01*
X0175102Y0163744D01*
X0174760Y0163547D01*
X0174481Y0163267D01*
X0174385Y0163101D01*
X0173852Y0163634D01*
X0172744Y0163634D01*
X0172744Y0168466D01*
X0175240Y0170963D01*
X0195157Y0170963D01*
X0195546Y0170574D01*
X0196489Y0170183D01*
X0197511Y0170183D01*
X0198454Y0170574D01*
X0199176Y0171296D01*
X0199567Y0172239D01*
X0199567Y0173261D01*
X0199176Y0174204D01*
X0198454Y0174926D01*
X0197511Y0175317D01*
X0196489Y0175317D01*
X0195546Y0174926D01*
X0195157Y0174537D01*
X0173760Y0174537D01*
X0169169Y0169947D01*
X0169169Y0163634D01*
X0168061Y0163634D01*
X0167307Y0162880D01*
X0167307Y0160238D01*
X0168061Y0159484D01*
X0173852Y0159484D01*
X0174385Y0160017D01*
X0174394Y0160002D01*
X0174394Y0157974D01*
X0173852Y0158516D01*
X0168061Y0158516D01*
X0167774Y0158228D01*
X0167652Y0158228D01*
X0167204Y0158676D01*
X0166261Y0159067D01*
X0165239Y0159067D01*
X0164970Y0158956D01*
X0164970Y0159010D01*
X0163923Y0160057D01*
X0160240Y0163740D01*
X0158760Y0163740D01*
X0156287Y0163740D01*
X0156287Y0165813D01*
X0156287Y0163769D02*
X0169169Y0163769D01*
X0167307Y0162771D02*
X0161210Y0162771D01*
X0162208Y0161772D02*
X0167307Y0161772D01*
X0167307Y0160774D02*
X0163207Y0160774D01*
X0164205Y0159775D02*
X0167770Y0159775D01*
X0166961Y0158777D02*
X0174394Y0158777D01*
X0174394Y0159775D02*
X0174143Y0159775D01*
X0170957Y0161559D02*
X0170957Y0169207D01*
X0174500Y0172750D01*
X0197000Y0172750D01*
X0199567Y0172756D02*
X0199839Y0172756D01*
X0199839Y0173754D02*
X0199362Y0173754D01*
X0199743Y0174753D02*
X0198627Y0174753D01*
X0199158Y0175751D02*
X0173435Y0175751D01*
X0173423Y0175689D02*
X0173530Y0176226D01*
X0173530Y0176500D01*
X0173530Y0176774D01*
X0173423Y0177311D01*
X0173213Y0177817D01*
X0172909Y0178272D01*
X0172522Y0178659D01*
X0172067Y0178963D01*
X0171561Y0179173D01*
X0171024Y0179280D01*
X0170750Y0179280D01*
X0170476Y0179280D01*
X0169939Y0179173D01*
X0169433Y0178963D01*
X0168978Y0178659D01*
X0168591Y0178272D01*
X0168287Y0177817D01*
X0168077Y0177311D01*
X0167970Y0176774D01*
X0167970Y0176500D01*
X0167970Y0176226D01*
X0168077Y0175689D01*
X0168287Y0175183D01*
X0168591Y0174728D01*
X0168978Y0174341D01*
X0169433Y0174037D01*
X0169939Y0173827D01*
X0170476Y0173720D01*
X0170750Y0173720D01*
X0171024Y0173720D01*
X0171561Y0173827D01*
X0172067Y0174037D01*
X0172522Y0174341D01*
X0172909Y0174728D01*
X0173213Y0175183D01*
X0173423Y0175689D01*
X0173530Y0176500D02*
X0170750Y0176500D01*
X0173530Y0176500D01*
X0173530Y0176750D02*
X0198848Y0176750D01*
X0197850Y0177748D02*
X0173241Y0177748D01*
X0172390Y0178747D02*
X0196851Y0178747D01*
X0195853Y0179745D02*
X0161135Y0179745D01*
X0161865Y0178747D02*
X0169110Y0178747D01*
X0168259Y0177748D02*
X0162067Y0177748D01*
X0161864Y0176750D02*
X0167970Y0176750D01*
X0167970Y0176500D02*
X0170750Y0176500D01*
X0170750Y0176500D01*
X0170750Y0176500D01*
X0170750Y0179280D01*
X0170750Y0176500D01*
X0170750Y0173720D01*
X0170750Y0176500D01*
X0170750Y0176500D01*
X0170750Y0176500D01*
X0167970Y0176500D01*
X0168065Y0175751D02*
X0161969Y0175751D01*
X0162087Y0174753D02*
X0168574Y0174753D01*
X0170306Y0173754D02*
X0162087Y0173754D01*
X0162087Y0172756D02*
X0171978Y0172756D01*
X0171194Y0173754D02*
X0172977Y0173754D01*
X0172926Y0174753D02*
X0195373Y0174753D01*
X0195361Y0170759D02*
X0175037Y0170759D01*
X0174038Y0169760D02*
X0199256Y0169760D01*
X0199256Y0168762D02*
X0182868Y0168762D01*
X0183022Y0168659D02*
X0182567Y0168963D01*
X0182061Y0169173D01*
X0181524Y0169280D01*
X0181250Y0169280D01*
X0180976Y0169280D01*
X0180439Y0169173D01*
X0179933Y0168963D01*
X0179478Y0168659D01*
X0179091Y0168272D01*
X0178787Y0167817D01*
X0178577Y0167311D01*
X0178470Y0166774D01*
X0178470Y0166500D01*
X0178470Y0166226D01*
X0178577Y0165689D01*
X0178787Y0165183D01*
X0179091Y0164728D01*
X0179478Y0164341D01*
X0179933Y0164037D01*
X0180393Y0163846D01*
X0178043Y0163846D01*
X0178043Y0161559D01*
X0178043Y0161559D01*
X0181905Y0161559D01*
X0181905Y0162544D01*
X0181803Y0162925D01*
X0181606Y0163267D01*
X0181327Y0163547D01*
X0181026Y0163720D01*
X0181250Y0163720D01*
X0181524Y0163720D01*
X0182061Y0163827D01*
X0182567Y0164037D01*
X0183022Y0164341D01*
X0183409Y0164728D01*
X0183713Y0165183D01*
X0183923Y0165689D01*
X0184030Y0166226D01*
X0184030Y0166500D01*
X0184030Y0166774D01*
X0183923Y0167311D01*
X0183713Y0167817D01*
X0183409Y0168272D01*
X0183022Y0168659D01*
X0183735Y0167763D02*
X0199256Y0167763D01*
X0199256Y0166765D02*
X0184030Y0166765D01*
X0184030Y0166500D02*
X0181250Y0166500D01*
X0181250Y0166500D01*
X0181250Y0169280D01*
X0181250Y0166500D01*
X0181250Y0166500D01*
X0181250Y0166500D01*
X0178470Y0166500D01*
X0181250Y0166500D01*
X0184030Y0166500D01*
X0183938Y0165766D02*
X0199256Y0165766D01*
X0199256Y0164768D02*
X0183435Y0164768D01*
X0181769Y0163769D02*
X0199256Y0163769D01*
X0199256Y0162771D02*
X0181845Y0162771D01*
X0181905Y0161772D02*
X0199256Y0161772D01*
X0201626Y0165299D02*
X0201626Y0176500D01*
X0193589Y0184537D01*
X0156287Y0184537D01*
X0149500Y0177750D01*
X0149500Y0171100D01*
X0144650Y0170759D02*
X0144350Y0170759D01*
X0144350Y0171757D02*
X0144650Y0171757D01*
X0144650Y0172756D02*
X0144350Y0172756D01*
X0144350Y0173754D02*
X0144650Y0173754D01*
X0144650Y0174753D02*
X0144350Y0174753D01*
X0144350Y0175751D02*
X0144650Y0175751D01*
X0151864Y0176750D02*
X0157136Y0176750D01*
X0157031Y0175751D02*
X0156969Y0175751D01*
X0156933Y0177748D02*
X0152067Y0177748D01*
X0153025Y0178747D02*
X0157135Y0178747D01*
X0157865Y0179745D02*
X0154023Y0179745D01*
X0155022Y0180744D02*
X0194854Y0180744D01*
X0193856Y0181742D02*
X0156020Y0181742D01*
X0157019Y0182741D02*
X0192857Y0182741D01*
X0194917Y0185737D02*
X0221813Y0185737D01*
X0221813Y0186735D02*
X0024500Y0186735D01*
X0024500Y0185737D02*
X0154959Y0185737D01*
X0153960Y0184738D02*
X0024500Y0184738D01*
X0024500Y0183739D02*
X0152962Y0183739D01*
X0151963Y0182741D02*
X0024500Y0182741D01*
X0024500Y0181742D02*
X0150965Y0181742D01*
X0149966Y0180744D02*
X0024500Y0180744D01*
X0024500Y0179745D02*
X0078238Y0179745D01*
X0078039Y0178747D02*
X0024500Y0178747D01*
X0024500Y0187734D02*
X0141685Y0187734D01*
X0142206Y0187213D02*
X0146794Y0187213D01*
X0150037Y0190456D01*
X0150037Y0195044D01*
X0146794Y0198287D01*
X0142206Y0198287D01*
X0138963Y0195044D01*
X0138963Y0190456D01*
X0142206Y0187213D01*
X0140687Y0188732D02*
X0024500Y0188732D01*
X0024500Y0189731D02*
X0139688Y0189731D01*
X0138963Y0190729D02*
X0024500Y0190729D01*
X0024500Y0191728D02*
X0138963Y0191728D01*
X0138963Y0192726D02*
X0024500Y0192726D01*
X0024500Y0193725D02*
X0138963Y0193725D01*
X0138963Y0194723D02*
X0024500Y0194723D01*
X0024500Y0195722D02*
X0139641Y0195722D01*
X0140639Y0196720D02*
X0024500Y0196720D01*
X0024500Y0197719D02*
X0141638Y0197719D01*
X0147362Y0197719D02*
X0156638Y0197719D01*
X0157206Y0198287D02*
X0153963Y0195044D01*
X0153963Y0190456D01*
X0157206Y0187213D01*
X0161794Y0187213D01*
X0165037Y0190456D01*
X0165037Y0195044D01*
X0161794Y0198287D01*
X0157206Y0198287D01*
X0155639Y0196720D02*
X0148361Y0196720D01*
X0149359Y0195722D02*
X0154641Y0195722D01*
X0153963Y0194723D02*
X0150037Y0194723D01*
X0150037Y0193725D02*
X0153963Y0193725D01*
X0153963Y0192726D02*
X0150037Y0192726D01*
X0150037Y0191728D02*
X0153963Y0191728D01*
X0153963Y0190729D02*
X0150037Y0190729D01*
X0149312Y0189731D02*
X0154688Y0189731D01*
X0155687Y0188732D02*
X0148313Y0188732D01*
X0147315Y0187734D02*
X0156685Y0187734D01*
X0162315Y0187734D02*
X0175435Y0187734D01*
X0175956Y0187213D02*
X0180544Y0187213D01*
X0183787Y0190456D01*
X0183787Y0195044D01*
X0180544Y0198287D01*
X0175956Y0198287D01*
X0172713Y0195044D01*
X0172713Y0190456D01*
X0175956Y0187213D01*
X0174437Y0188732D02*
X0163313Y0188732D01*
X0164312Y0189731D02*
X0173438Y0189731D01*
X0172713Y0190729D02*
X0165037Y0190729D01*
X0165037Y0191728D02*
X0172713Y0191728D01*
X0172713Y0192726D02*
X0165037Y0192726D01*
X0165037Y0193725D02*
X0172713Y0193725D01*
X0172713Y0194723D02*
X0165037Y0194723D01*
X0164359Y0195722D02*
X0173391Y0195722D01*
X0174389Y0196720D02*
X0163361Y0196720D01*
X0162362Y0197719D02*
X0175388Y0197719D01*
X0181112Y0197719D02*
X0196638Y0197719D01*
X0197206Y0198287D02*
X0193963Y0195044D01*
X0193963Y0190456D01*
X0197206Y0187213D01*
X0201794Y0187213D01*
X0205037Y0190456D01*
X0205037Y0195044D01*
X0201794Y0198287D01*
X0197206Y0198287D01*
X0195639Y0196720D02*
X0182111Y0196720D01*
X0183109Y0195722D02*
X0194641Y0195722D01*
X0193963Y0194723D02*
X0183787Y0194723D01*
X0183787Y0193725D02*
X0193963Y0193725D01*
X0193963Y0192726D02*
X0183787Y0192726D01*
X0183787Y0191728D02*
X0193963Y0191728D01*
X0193963Y0190729D02*
X0183787Y0190729D01*
X0183062Y0189731D02*
X0194688Y0189731D01*
X0195687Y0188732D02*
X0182063Y0188732D01*
X0181065Y0187734D02*
X0196685Y0187734D01*
X0195916Y0184738D02*
X0221813Y0184738D01*
X0221813Y0183739D02*
X0196914Y0183739D01*
X0197913Y0182741D02*
X0221813Y0182741D01*
X0221813Y0181742D02*
X0198911Y0181742D01*
X0199910Y0180744D02*
X0221813Y0180744D01*
X0221813Y0179745D02*
X0200908Y0179745D01*
X0202909Y0178747D02*
X0221946Y0178747D01*
X0222359Y0177748D02*
X0203887Y0177748D01*
X0204193Y0176750D02*
X0223014Y0176750D01*
X0224012Y0175751D02*
X0204094Y0175751D01*
X0203509Y0174753D02*
X0225213Y0174753D01*
X0225213Y0173754D02*
X0203413Y0173754D01*
X0203413Y0172756D02*
X0225213Y0172756D01*
X0225213Y0171757D02*
X0203413Y0171757D01*
X0204734Y0170759D02*
X0204817Y0170759D01*
X0204817Y0169760D02*
X0204734Y0169760D01*
X0204734Y0168762D02*
X0204817Y0168762D01*
X0204817Y0167763D02*
X0204734Y0167763D01*
X0204734Y0166765D02*
X0204817Y0166765D01*
X0204817Y0165766D02*
X0204734Y0165766D01*
X0204817Y0165341D02*
X0205343Y0165341D01*
X0207884Y0165341D01*
X0207884Y0165258D01*
X0204817Y0165258D01*
X0204817Y0165341D01*
X0204817Y0165258D02*
X0204817Y0159577D01*
X0206056Y0159577D01*
X0206350Y0159656D01*
X0206645Y0159577D01*
X0207884Y0159577D01*
X0207884Y0165258D01*
X0207967Y0165258D01*
X0207967Y0159577D01*
X0209205Y0159577D01*
X0209587Y0159679D01*
X0209778Y0159789D01*
X0212372Y0159789D01*
X0212563Y0159679D01*
X0212944Y0159577D01*
X0214183Y0159577D01*
X0214183Y0165258D01*
X0214266Y0165258D01*
X0214266Y0160655D01*
X0214226Y0160616D01*
X0214226Y0158211D01*
X0204774Y0158211D01*
X0204774Y0160616D01*
X0204734Y0160655D01*
X0204734Y0165258D01*
X0204817Y0165258D01*
X0204817Y0164768D02*
X0204734Y0164768D01*
X0204734Y0163769D02*
X0204817Y0163769D01*
X0204817Y0162771D02*
X0204734Y0162771D01*
X0204734Y0161772D02*
X0204817Y0161772D01*
X0204817Y0160774D02*
X0204734Y0160774D01*
X0204774Y0159775D02*
X0204817Y0159775D01*
X0204774Y0158777D02*
X0214226Y0158777D01*
X0214183Y0159775D02*
X0214226Y0159775D01*
X0214183Y0160774D02*
X0214266Y0160774D01*
X0214266Y0161772D02*
X0214183Y0161772D01*
X0214183Y0162771D02*
X0214266Y0162771D01*
X0214266Y0163769D02*
X0214183Y0163769D01*
X0214183Y0164768D02*
X0214266Y0164768D01*
X0214266Y0165766D02*
X0214183Y0165766D01*
X0214183Y0166765D02*
X0214266Y0166765D01*
X0214266Y0167763D02*
X0214183Y0167763D01*
X0214183Y0168762D02*
X0214266Y0168762D01*
X0214266Y0169760D02*
X0214183Y0169760D01*
X0214183Y0170759D02*
X0214266Y0170759D01*
X0219040Y0170759D02*
X0225213Y0170759D01*
X0225213Y0169760D02*
X0219744Y0169760D01*
X0219744Y0168762D02*
X0225213Y0168762D01*
X0225213Y0167763D02*
X0219744Y0167763D01*
X0219744Y0166765D02*
X0225213Y0166765D01*
X0225213Y0165766D02*
X0222614Y0165766D01*
X0223210Y0164768D02*
X0225213Y0164768D01*
X0225213Y0163769D02*
X0223317Y0163769D01*
X0223019Y0162771D02*
X0225213Y0162771D01*
X0225213Y0161772D02*
X0222079Y0161772D01*
X0220750Y0164000D02*
X0218673Y0164000D01*
X0217374Y0165299D01*
X0212396Y0159775D02*
X0209753Y0159775D01*
X0207967Y0159775D02*
X0207884Y0159775D01*
X0207884Y0160774D02*
X0207967Y0160774D01*
X0207967Y0161772D02*
X0207884Y0161772D01*
X0207884Y0162771D02*
X0207967Y0162771D01*
X0207967Y0163769D02*
X0207884Y0163769D01*
X0207884Y0164768D02*
X0207967Y0164768D01*
X0207967Y0165766D02*
X0207884Y0165766D01*
X0207884Y0166765D02*
X0207967Y0166765D01*
X0207967Y0167763D02*
X0207884Y0167763D01*
X0207884Y0168762D02*
X0207967Y0168762D01*
X0207967Y0169760D02*
X0207884Y0169760D01*
X0207884Y0170759D02*
X0207967Y0170759D01*
X0201626Y0172376D02*
X0201626Y0165299D01*
X0199839Y0170759D02*
X0198639Y0170759D01*
X0199367Y0171757D02*
X0199839Y0171757D01*
X0199264Y0159000D02*
X0183250Y0159000D01*
X0178043Y0159000D01*
X0178043Y0156441D02*
X0178043Y0152957D01*
X0178250Y0152750D01*
X0180630Y0151787D02*
X0184533Y0151787D01*
X0184366Y0152190D02*
X0184757Y0151247D01*
X0185479Y0150525D01*
X0186422Y0150134D01*
X0187444Y0150134D01*
X0188387Y0150525D01*
X0188776Y0150913D01*
X0199256Y0150913D01*
X0199256Y0147945D01*
X0200010Y0147191D01*
X0212437Y0147191D01*
X0212437Y0147093D01*
X0212382Y0147037D01*
X0183968Y0147037D01*
X0184159Y0147228D01*
X0184463Y0147683D01*
X0184673Y0148189D01*
X0184780Y0148726D01*
X0184780Y0149000D01*
X0184780Y0149274D01*
X0184673Y0149811D01*
X0184463Y0150317D01*
X0184159Y0150772D01*
X0183772Y0151159D01*
X0183317Y0151463D01*
X0182811Y0151673D01*
X0182274Y0151780D01*
X0182000Y0151780D01*
X0181726Y0151780D01*
X0181189Y0151673D01*
X0180683Y0151463D01*
X0180412Y0151282D01*
X0180426Y0151296D01*
X0180817Y0152239D01*
X0180817Y0153261D01*
X0180426Y0154204D01*
X0180264Y0154366D01*
X0180939Y0154366D01*
X0181693Y0155120D01*
X0181693Y0156927D01*
X0181796Y0156824D01*
X0182739Y0156433D01*
X0183761Y0156433D01*
X0184704Y0156824D01*
X0185093Y0157213D01*
X0193925Y0157213D01*
X0194508Y0156630D01*
X0199256Y0156630D01*
X0199256Y0154488D01*
X0188776Y0154488D01*
X0188387Y0154877D01*
X0187444Y0155268D01*
X0186422Y0155268D01*
X0185479Y0154877D01*
X0184757Y0154155D01*
X0184366Y0153211D01*
X0184366Y0152190D01*
X0184366Y0152786D02*
X0180817Y0152786D01*
X0180600Y0153784D02*
X0184603Y0153784D01*
X0185385Y0154783D02*
X0181355Y0154783D01*
X0181693Y0155781D02*
X0199256Y0155781D01*
X0199256Y0154783D02*
X0188481Y0154783D01*
X0186933Y0152701D02*
X0201626Y0152701D01*
X0199256Y0150789D02*
X0188651Y0150789D01*
X0185215Y0150789D02*
X0184142Y0150789D01*
X0184677Y0149790D02*
X0199256Y0149790D01*
X0199256Y0148792D02*
X0184780Y0148792D01*
X0184780Y0149000D02*
X0182000Y0149000D01*
X0184780Y0149000D01*
X0184509Y0147793D02*
X0199408Y0147793D01*
X0194358Y0156780D02*
X0184597Y0156780D01*
X0181903Y0156780D02*
X0181693Y0156780D01*
X0182000Y0151780D02*
X0182000Y0149000D01*
X0182000Y0149000D01*
X0182000Y0149000D01*
X0182000Y0151780D01*
X0182000Y0150789D02*
X0182000Y0150789D01*
X0182000Y0149790D02*
X0182000Y0149790D01*
X0182000Y0149000D02*
X0182000Y0149000D01*
X0179220Y0149000D01*
X0179220Y0148726D01*
X0179327Y0148189D01*
X0179537Y0147683D01*
X0179841Y0147228D01*
X0180032Y0147037D01*
X0171943Y0147037D01*
X0164970Y0154010D01*
X0164970Y0154044D01*
X0165239Y0153933D01*
X0166261Y0153933D01*
X0167204Y0154324D01*
X0167534Y0154654D01*
X0167774Y0154654D01*
X0168061Y0154366D01*
X0173852Y0154366D01*
X0174500Y0155014D01*
X0175148Y0154366D01*
X0176236Y0154366D01*
X0176074Y0154204D01*
X0175683Y0153261D01*
X0175683Y0152239D01*
X0176074Y0151296D01*
X0176796Y0150574D01*
X0177739Y0150183D01*
X0178761Y0150183D01*
X0179704Y0150574D01*
X0179718Y0150588D01*
X0179537Y0150317D01*
X0179327Y0149811D01*
X0179220Y0149274D01*
X0179220Y0149000D01*
X0182000Y0149000D01*
X0179491Y0147793D02*
X0171187Y0147793D01*
X0170189Y0148792D02*
X0179220Y0148792D01*
X0179323Y0149790D02*
X0169190Y0149790D01*
X0168192Y0150789D02*
X0176581Y0150789D01*
X0175870Y0151787D02*
X0167193Y0151787D01*
X0166195Y0152786D02*
X0175683Y0152786D01*
X0175900Y0153784D02*
X0165196Y0153784D01*
X0165809Y0156441D02*
X0165750Y0156500D01*
X0165809Y0156441D02*
X0170957Y0156441D01*
X0174269Y0154783D02*
X0174731Y0154783D01*
X0178043Y0161559D02*
X0178043Y0161559D01*
X0178043Y0161772D02*
X0178043Y0161772D01*
X0178043Y0162771D02*
X0178043Y0162771D01*
X0178043Y0163769D02*
X0178043Y0163769D01*
X0179065Y0164768D02*
X0172744Y0164768D01*
X0172744Y0165766D02*
X0178562Y0165766D01*
X0178470Y0166765D02*
X0172744Y0166765D01*
X0172744Y0167763D02*
X0178765Y0167763D01*
X0179632Y0168762D02*
X0173040Y0168762D01*
X0170980Y0171757D02*
X0162087Y0171757D01*
X0162087Y0170759D02*
X0169981Y0170759D01*
X0169169Y0169760D02*
X0162087Y0169760D01*
X0162087Y0168762D02*
X0169169Y0168762D01*
X0169169Y0167763D02*
X0162087Y0167763D01*
X0162087Y0166765D02*
X0169169Y0166765D01*
X0172744Y0163769D02*
X0175196Y0163769D01*
X0181250Y0163769D02*
X0181250Y0163769D01*
X0181250Y0163720D02*
X0181250Y0166500D01*
X0181250Y0166500D01*
X0181250Y0163720D01*
X0181250Y0164768D02*
X0181250Y0164768D01*
X0181250Y0165766D02*
X0181250Y0165766D01*
X0181250Y0166765D02*
X0181250Y0166765D01*
X0181250Y0167763D02*
X0181250Y0167763D01*
X0181250Y0168762D02*
X0181250Y0168762D01*
X0170750Y0173754D02*
X0170750Y0173754D01*
X0170750Y0174753D02*
X0170750Y0174753D01*
X0170750Y0175751D02*
X0170750Y0175751D01*
X0170750Y0176750D02*
X0170750Y0176750D01*
X0170750Y0177748D02*
X0170750Y0177748D01*
X0170750Y0178747D02*
X0170750Y0178747D01*
X0159500Y0177750D02*
X0159500Y0171100D01*
X0152713Y0165766D02*
X0146490Y0165766D01*
X0144650Y0165766D02*
X0144350Y0165766D01*
X0144350Y0166765D02*
X0144650Y0166765D01*
X0144650Y0167763D02*
X0144350Y0167763D01*
X0144350Y0168762D02*
X0144650Y0168762D01*
X0144650Y0169760D02*
X0144350Y0169760D01*
X0141700Y0167763D02*
X0140735Y0167763D01*
X0141030Y0166765D02*
X0141737Y0166765D01*
X0142510Y0165766D02*
X0140938Y0165766D01*
X0140435Y0164768D02*
X0152713Y0164768D01*
X0152713Y0163769D02*
X0138769Y0163769D01*
X0145003Y0159775D02*
X0159150Y0159775D01*
X0160148Y0158777D02*
X0146001Y0158777D01*
X0147000Y0157778D02*
X0151372Y0157778D01*
X0152628Y0157778D02*
X0161147Y0157778D01*
X0161396Y0156780D02*
X0154110Y0156780D01*
X0154562Y0155781D02*
X0161396Y0155781D01*
X0161396Y0154783D02*
X0155005Y0154783D01*
X0156003Y0153784D02*
X0161396Y0153784D01*
X0161396Y0152786D02*
X0156287Y0152786D01*
X0156734Y0151787D02*
X0157266Y0151787D01*
X0154500Y0152760D02*
X0154500Y0146900D01*
X0159500Y0146900D01*
X0162087Y0146795D02*
X0167130Y0146795D01*
X0166132Y0147793D02*
X0162087Y0147793D01*
X0162087Y0148792D02*
X0165133Y0148792D01*
X0164135Y0149790D02*
X0162087Y0149790D01*
X0162087Y0150789D02*
X0163136Y0150789D01*
X0162138Y0151787D02*
X0161734Y0151787D01*
X0162087Y0145796D02*
X0168129Y0145796D01*
X0169127Y0144798D02*
X0162087Y0144798D01*
X0162087Y0143799D02*
X0170126Y0143799D01*
X0157477Y0141802D02*
X0156523Y0141802D01*
X0152477Y0141802D02*
X0151523Y0141802D01*
X0147713Y0140803D02*
X0120835Y0140803D01*
X0120835Y0139805D02*
X0147713Y0139805D01*
X0147713Y0138806D02*
X0120835Y0138806D01*
X0120835Y0137808D02*
X0147713Y0137808D01*
X0147713Y0136809D02*
X0120639Y0136809D01*
X0119941Y0135811D02*
X0147713Y0135811D01*
X0147477Y0141802D02*
X0146523Y0141802D01*
X0142477Y0141802D02*
X0120835Y0141802D01*
X0120835Y0142801D02*
X0141913Y0142801D01*
X0141913Y0143799D02*
X0120835Y0143799D01*
X0119047Y0138547D02*
X0118250Y0137750D01*
X0119047Y0138547D02*
X0119047Y0151520D01*
X0128890Y0161953D02*
X0154500Y0161953D01*
X0149890Y0156780D02*
X0147998Y0156780D01*
X0148997Y0155781D02*
X0149438Y0155781D01*
X0152000Y0155260D02*
X0154500Y0152760D01*
X0140938Y0153784D02*
X0140414Y0153784D01*
X0151969Y0175751D02*
X0152031Y0175751D01*
X0202315Y0187734D02*
X0221813Y0187734D01*
X0221813Y0188732D02*
X0203313Y0188732D01*
X0204312Y0189731D02*
X0222143Y0189731D01*
X0222557Y0190729D02*
X0205037Y0190729D01*
X0205037Y0191728D02*
X0223491Y0191728D01*
X0225096Y0192726D02*
X0205037Y0192726D01*
X0205037Y0193725D02*
X0225213Y0193725D01*
X0225213Y0194723D02*
X0205037Y0194723D01*
X0204359Y0195722D02*
X0225213Y0195722D01*
X0225213Y0196720D02*
X0203361Y0196720D01*
X0202362Y0197719D02*
X0225213Y0197719D01*
X0225213Y0198717D02*
X0024500Y0198717D01*
X0024500Y0199716D02*
X0225213Y0199716D01*
X0225213Y0200714D02*
X0024500Y0200714D01*
X0086500Y0179745D02*
X0087500Y0179745D01*
X0087500Y0178747D02*
X0086500Y0178747D01*
X0086500Y0175751D02*
X0087500Y0175751D01*
X0087500Y0174753D02*
X0086500Y0174753D01*
X0086500Y0173754D02*
X0087500Y0173754D01*
X0093600Y0156780D02*
X0096050Y0156780D01*
X0099520Y0146126D02*
X0100154Y0146126D01*
X0096061Y0143799D02*
X0089041Y0143799D01*
X0089492Y0142801D02*
X0090492Y0142801D01*
X0090492Y0142803D02*
X0090492Y0138949D01*
X0094248Y0138949D01*
X0094248Y0141501D01*
X0094146Y0141882D01*
X0093948Y0142224D01*
X0093669Y0142503D01*
X0093327Y0142701D01*
X0092946Y0142803D01*
X0090492Y0142803D01*
X0090492Y0141802D02*
X0089492Y0141802D01*
X0089492Y0140803D02*
X0090492Y0140803D01*
X0090492Y0139805D02*
X0089492Y0139805D01*
X0090492Y0138806D02*
X0096699Y0138806D01*
X0096048Y0139805D02*
X0094248Y0139805D01*
X0094248Y0140803D02*
X0095772Y0140803D01*
X0095772Y0141802D02*
X0094167Y0141802D01*
X0092955Y0142801D02*
X0095772Y0142801D01*
X0098250Y0139280D02*
X0098250Y0136500D01*
X0098250Y0136500D01*
X0098250Y0139280D01*
X0098250Y0138806D02*
X0098250Y0138806D01*
X0098250Y0137808D02*
X0098250Y0137808D01*
X0098250Y0136809D02*
X0098250Y0136809D01*
X0098250Y0136500D02*
X0095470Y0136500D01*
X0098250Y0136500D01*
X0101030Y0136500D01*
X0098250Y0136500D01*
X0098250Y0136500D01*
X0098250Y0136500D01*
X0099801Y0138806D02*
X0102746Y0138806D01*
X0102746Y0137808D02*
X0100717Y0137808D01*
X0101022Y0136809D02*
X0102349Y0136809D01*
X0101350Y0135811D02*
X0100947Y0135811D01*
X0095553Y0135811D02*
X0094248Y0135811D01*
X0094248Y0136809D02*
X0095478Y0136809D01*
X0095783Y0137808D02*
X0094248Y0137808D01*
X0087029Y0142801D02*
X0083839Y0142801D01*
X0084213Y0141802D02*
X0085817Y0141802D01*
X0085161Y0140803D02*
X0084980Y0140803D01*
X0084980Y0139805D02*
X0085161Y0139805D01*
X0085161Y0138806D02*
X0084980Y0138806D01*
X0084980Y0137808D02*
X0085161Y0137808D01*
X0083819Y0133933D02*
X0081252Y0136500D01*
X0081252Y0140024D01*
X0086073Y0144798D02*
X0024500Y0144798D01*
X0024500Y0145796D02*
X0085683Y0145796D01*
X0085697Y0146795D02*
X0024500Y0146795D01*
X0024500Y0147793D02*
X0086163Y0147793D01*
X0024500Y0081891D02*
X0303250Y0081891D01*
X0303250Y0080893D02*
X0024500Y0080893D01*
X0024500Y0079894D02*
X0303250Y0079894D01*
X0303250Y0078896D02*
X0024500Y0078896D01*
X0024500Y0077897D02*
X0303250Y0077897D01*
X0303250Y0076899D02*
X0024500Y0076899D01*
X0180750Y0091500D02*
X0189500Y0091500D01*
X0200524Y0106274D02*
X0200568Y0106316D01*
X0200614Y0106354D01*
X0200663Y0106390D01*
X0200714Y0106423D01*
X0200766Y0106452D01*
X0200821Y0106479D01*
X0200876Y0106502D01*
X0200933Y0106522D01*
X0200992Y0106538D01*
X0201051Y0106551D01*
X0201110Y0106560D01*
X0201171Y0106565D01*
X0201231Y0106567D01*
X0203250Y0109555D02*
X0202742Y0110063D01*
X0198624Y0110063D01*
X0219500Y0110250D02*
X0219589Y0110161D01*
X0225898Y0110161D01*
X0225898Y0112720D02*
X0225868Y0112750D01*
X0231500Y0114842D02*
X0232500Y0114842D01*
X0232500Y0115841D02*
X0231500Y0115841D01*
X0231500Y0116839D02*
X0232500Y0116839D01*
X0232500Y0117838D02*
X0231500Y0117838D01*
X0231500Y0118836D02*
X0232500Y0118836D01*
X0232500Y0119835D02*
X0231500Y0119835D01*
X0236062Y0119835D02*
X0240358Y0119835D01*
X0241981Y0117838D02*
X0241988Y0117839D01*
X0241995Y0117842D01*
X0242000Y0117846D01*
X0241981Y0117839D02*
X0238102Y0117839D01*
X0238102Y0115280D02*
X0254500Y0115280D01*
X0227000Y0136500D02*
X0227000Y0159000D01*
X0219736Y0159000D01*
X0225750Y0159000D01*
X0227000Y0159000D02*
X0227000Y0169000D01*
X0227000Y0184000D01*
X0227000Y0209000D01*
X0231587Y0208702D02*
X0232413Y0208702D01*
X0232413Y0207704D02*
X0231587Y0207704D01*
X0231193Y0206705D02*
X0232807Y0206705D01*
X0233806Y0205707D02*
X0230194Y0205707D01*
X0229196Y0204708D02*
X0234804Y0204708D01*
X0235213Y0203710D02*
X0228787Y0203710D01*
X0228787Y0202711D02*
X0235213Y0202711D01*
X0235213Y0201713D02*
X0228787Y0201713D01*
X0228787Y0200714D02*
X0235213Y0200714D01*
X0235213Y0199716D02*
X0228787Y0199716D01*
X0228787Y0198717D02*
X0235213Y0198717D01*
X0235213Y0197719D02*
X0228787Y0197719D01*
X0228787Y0196720D02*
X0235213Y0196720D01*
X0235213Y0195722D02*
X0228787Y0195722D01*
X0228787Y0194723D02*
X0235213Y0194723D01*
X0235213Y0193725D02*
X0228787Y0193725D01*
X0228904Y0192726D02*
X0235096Y0192726D01*
X0233491Y0191728D02*
X0230509Y0191728D01*
X0231443Y0190729D02*
X0232557Y0190729D01*
X0232143Y0189731D02*
X0231857Y0189731D01*
X0237000Y0184000D02*
X0237000Y0209000D01*
X0237000Y0139000D01*
X0224500Y0126500D01*
X0224500Y0134000D02*
X0227000Y0136500D01*
X0225213Y0156780D02*
X0224642Y0156780D01*
X0229987Y0175751D02*
X0234012Y0175751D01*
X0233014Y0176750D02*
X0230986Y0176750D01*
X0231641Y0177748D02*
X0232359Y0177748D01*
X0232413Y0209701D02*
X0231587Y0209701D01*
X0231587Y0210699D02*
X0232413Y0210699D01*
X0233210Y0211698D02*
X0230790Y0211698D01*
X0229791Y0212696D02*
X0234209Y0212696D01*
X0288396Y0155781D02*
X0303250Y0155781D01*
X0303250Y0154783D02*
X0290807Y0154783D01*
X0291831Y0153784D02*
X0303250Y0153784D01*
X0303250Y0152786D02*
X0292791Y0152786D01*
X0293205Y0151787D02*
X0303250Y0151787D01*
X0303250Y0150789D02*
X0293619Y0150789D01*
X0293799Y0149790D02*
X0303250Y0149790D01*
X0303250Y0148792D02*
X0293799Y0148792D01*
X0293799Y0147793D02*
X0303250Y0147793D01*
X0303250Y0146795D02*
X0293446Y0146795D01*
X0293032Y0145796D02*
X0303250Y0145796D01*
X0303250Y0144798D02*
X0292413Y0144798D01*
X0291415Y0143799D02*
X0303250Y0143799D01*
X0303250Y0142801D02*
X0289800Y0142801D01*
X0282769Y0055930D02*
X0303250Y0055930D01*
X0303250Y0054932D02*
X0283639Y0054932D01*
X0284052Y0053933D02*
X0303250Y0053933D01*
X0303250Y0052934D02*
X0284193Y0052934D01*
X0284193Y0051936D02*
X0303250Y0051936D01*
X0303250Y0050937D02*
X0283791Y0050937D01*
X0283138Y0049939D02*
X0303250Y0049939D01*
X0303250Y0048940D02*
X0281836Y0048940D01*
X0272164Y0048940D02*
X0245718Y0048940D01*
X0244720Y0047942D02*
X0303250Y0047942D01*
X0303250Y0046943D02*
X0243721Y0046943D01*
X0242723Y0045945D02*
X0303250Y0045945D01*
X0303250Y0044946D02*
X0241724Y0044946D01*
X0241580Y0044803D02*
X0241580Y0044803D01*
X0240726Y0043948D02*
X0303250Y0043948D01*
X0270862Y0049939D02*
X0259810Y0049939D01*
X0259937Y0050937D02*
X0270208Y0050937D01*
X0249590Y0049939D02*
X0246717Y0049939D01*
X0247715Y0050937D02*
X0249463Y0050937D01*
X0239793Y0045543D02*
X0239749Y0045501D01*
X0239703Y0045463D01*
X0239654Y0045427D01*
X0239603Y0045394D01*
X0239551Y0045365D01*
X0239496Y0045338D01*
X0239441Y0045315D01*
X0239384Y0045295D01*
X0239325Y0045279D01*
X0239266Y0045266D01*
X0239207Y0045257D01*
X0239146Y0045252D01*
X0239086Y0045250D01*
D36*
X0249500Y0066500D03*
X0224500Y0066500D03*
X0218250Y0065250D03*
X0202000Y0060250D03*
X0208250Y0045250D03*
X0185750Y0045250D03*
X0185750Y0065250D03*
X0180750Y0091500D03*
X0188750Y0096500D03*
X0183000Y0102750D03*
X0172776Y0112276D03*
X0173026Y0121724D03*
X0183250Y0136500D03*
X0190750Y0126500D03*
X0203250Y0113250D03*
X0203250Y0109555D03*
X0198250Y0104000D03*
X0213250Y0104000D03*
X0219500Y0110250D03*
X0222000Y0112750D03*
X0222000Y0120250D03*
X0224500Y0126500D03*
X0224500Y0134000D03*
X0214224Y0145250D03*
X0220750Y0152750D03*
X0220750Y0164000D03*
X0201626Y0176500D03*
X0197000Y0172750D03*
X0181250Y0166500D03*
X0183250Y0159000D03*
X0186933Y0152701D03*
X0182000Y0149000D03*
X0178250Y0152750D03*
X0165750Y0156500D03*
X0152000Y0155260D03*
X0138250Y0155250D03*
X0133250Y0152683D03*
X0140750Y0146500D03*
X0133250Y0165250D03*
X0138250Y0166500D03*
X0149500Y0177750D03*
X0159500Y0177750D03*
X0170750Y0176500D03*
X0118250Y0137750D03*
X0098250Y0136500D03*
X0088250Y0146250D03*
X0092000Y0154750D03*
X0110750Y0165260D03*
X0242000Y0117846D03*
X0247000Y0121500D03*
X0254500Y0124000D03*
X0247000Y0106500D03*
X0254500Y0105250D03*
M02*
